<svg width="24" height="24" viewBox="0 0 24 24" fill="none" xmlns="http://www.w3.org/2000/svg">
<path d="M12 2.175L22.0575 22.2195H1.94405L12 2.175ZM12 0C11.4825 0 10.965 0.3495 10.5735 1.047L0.330045 21.4635C-0.454455 22.8585 0.213045 24 1.81354 24H22.188C23.7885 24 24.456 22.8585 23.6715 21.4635L13.428 1.047C13.035 0.3495 12.5175 0 12 0Z" fill="white"/>
<path d="M13.5 19.5C13.5 20.328 12.828 21 12 21C11.172 21 10.5 20.328 10.5 19.5C10.5 18.672 11.172 18 12 18C12.828 18 13.5 18.672 13.5 19.5Z" fill="white"/>
<path d="M12 16.5C11.172 16.5 10.5 15.828 10.5 15V10.5C10.5 9.672 11.172 9 12 9C12.828 9 13.5 9.672 13.5 10.5V15C13.5 15.828 12.828 16.5 12 16.5Z" fill="white"/>
</svg>
