<svg width="22" height="23" viewBox="0 0 22 23" fill="none" xmlns="http://www.w3.org/2000/svg">
<path d="M9.5844 23C11.32 23 12.7719 21.7627 13.1053 20.125H6.06348C6.39706 21.7627 7.84895 23 9.5844 23Z" />
<path d="M16.3037 11.4994C16.2999 11.4994 16.296 11.5003 16.2921 11.5003C12.594 11.5003 9.58387 8.49103 9.58387 4.79199C9.58387 3.77511 9.81778 2.81385 10.2251 1.94946C10.0141 1.92945 9.80041 1.91699 9.58387 1.91699C5.87905 1.91699 2.8756 4.92027 2.8756 8.62527V11.2971C2.8756 13.1936 2.04472 14.9838 0.587038 16.2162C0.101145 16.6312 -0.114516 17.2924 0.0599077 17.9374C0.263109 18.6878 1.00485 19.167 1.78308 19.167H17.3799C18.1964 19.167 18.9661 18.6379 19.1317 17.8378C19.2602 17.2187 19.0398 16.6005 18.5597 16.1971C17.1662 15.0289 16.3602 13.3124 16.3037 11.4994Z" />
<path d="M21.0843 4.79173C21.0843 7.43808 18.9391 9.58328 16.2925 9.58328C13.6462 9.58328 11.501 7.43808 11.501 4.79173C11.501 2.14537 13.6462 0 16.2925 0C18.9391 0 21.0843 2.14537 21.0843 4.79173Z" />
</svg>
