<svg width="20" height="20" viewBox="0 0 20 20" fill="none" xmlns="http://www.w3.org/2000/svg">
<path d="M6.66699 4.16671C5.84337 4.16735 5.41165 4.17782 5.07701 4.34832C4.7634 4.50811 4.50844 4.76308 4.34865 5.07668C4.16699 5.4332 4.16699 5.89991 4.16699 6.83333V14.8333C4.16699 15.7668 4.16699 16.2335 4.34865 16.59C4.50844 16.9036 4.7634 17.1586 5.07701 17.3183C5.43353 17.5 5.90024 17.5 6.83366 17.5H13.167C14.1004 17.5 14.5671 17.5 14.9236 17.3183C15.2372 17.1586 15.4922 16.9036 15.652 16.59C15.8337 16.2335 15.8337 15.7668 15.8337 14.8333V6.83333C15.8337 5.89991 15.8337 5.4332 15.652 5.07668C15.4922 4.76308 15.2372 4.50811 14.9236 4.34832C14.589 4.17782 14.1573 4.16735 13.3337 4.16671M6.66699 4.16671V5.83333H13.3337V4.16671M6.66699 4.16671V3.92259C6.66699 3.54529 6.81687 3.18345 7.08366 2.91667C7.35045 2.64988 7.71229 2.5 8.08958 2.5H11.9111C12.2884 2.5 12.6502 2.64988 12.917 2.91667C13.1838 3.18345 13.3337 3.54529 13.3337 3.92259V4.16671M13.3337 9.16667H11.667M13.3337 13.3333H11.667M6.66699 9.16667L7.50033 10L9.16699 8.33333M6.66699 13.3333L7.50033 14.1667L9.16699 12.5"  stroke-width="1.6" stroke-linecap="round" stroke-linejoin="round"/>
</svg>
