<svg width="22" height="42" viewBox="0 0 22 42" fill="none" xmlns="http://www.w3.org/2000/svg">
<path opacity="0.3" d="M0.638672 39.3749C0.639285 38.679 0.916248 38.0117 1.40867 37.5199L14.8347 24.0939C15.2411 23.6876 15.5634 23.2053 15.7834 22.6744C16.0033 22.1435 16.1165 21.5745 16.1165 20.9999C16.1165 20.4253 16.0033 19.8563 15.7834 19.3254C15.5634 18.7945 15.2411 18.3122 14.8347 17.9059L1.42617 4.48866C0.948007 3.99358 0.683421 3.3305 0.689402 2.64223C0.695383 1.95396 0.971452 1.29558 1.45815 0.808884C1.94484 0.322188 2.60323 0.0461191 3.29149 0.0401383C3.97976 0.0341574 4.64284 0.298743 5.13792 0.776908L18.5464 14.1837C20.3493 15.9901 21.3619 18.4381 21.3619 20.9903C21.3619 23.5425 20.3493 25.9905 18.5464 27.7969L5.12042 41.2229C4.75383 41.5897 4.2868 41.8398 3.77825 41.9414C3.26971 42.0431 2.74245 41.9918 2.263 41.7942C1.78356 41.5965 1.37341 41.2612 1.08432 40.8306C0.795237 40.4001 0.640163 39.8935 0.638672 39.3749V39.3749Z" fill="#00323C"/>
</svg>
