<svg width="51" height="67" viewBox="0 0 51 67" fill="none" xmlns="http://www.w3.org/2000/svg">
<path d="M25.016 1.82053e-10C19.2366 -2.20394e-05 13.6355 2.00106 9.16446 5.6632C4.69343 9.32534 1.62834 14.4226 0.490049 20.0888C-0.648245 25.755 0.210483 31.6405 2.92031 36.7452C5.63013 41.8499 10.0239 45.8589 15.3549 48.0909L24.0307 65.4426C24.122 65.6258 24.2626 65.7799 24.4366 65.8876C24.6107 65.9953 24.8113 66.0524 25.016 66.0524C25.2207 66.0524 25.4213 65.9953 25.5953 65.8876C25.7694 65.7799 25.9099 65.6258 26.0012 65.4426L34.6771 48.0909C40.0081 45.8589 44.4018 41.8499 47.1117 36.7452C49.8215 31.6405 50.6802 25.755 49.5419 20.0888C48.4036 14.4226 45.3385 9.32534 40.8675 5.6632C36.3965 2.00106 30.7954 -2.20394e-05 25.016 1.82053e-10V1.82053e-10Z" fill="#0091AE"/>
<path d="M45.8659 25.0113C45.8681 29.1356 44.6471 33.1678 42.3574 36.5981C40.0677 40.0283 36.8121 42.7025 33.0024 44.2822C29.1927 45.862 25.0001 46.2765 20.9548 45.4732C16.9096 44.67 13.1934 42.6851 10.2763 39.7695C7.35926 36.854 5.37238 33.1389 4.56697 29.0941C3.76157 25.0492 4.17383 20.8564 5.75161 17.0458C7.32939 13.2353 10.0018 9.97832 13.4308 7.68678C16.8599 5.39524 20.8915 4.17212 25.0157 4.17212C30.5419 4.17794 35.8401 6.37501 39.7487 10.2815C43.6573 14.1881 45.8572 19.4852 45.8659 25.0113V25.0113Z" fill="white"/>
<path d="M36.5738 12.7974H13.515C13.1187 12.7974 12.7974 13.1187 12.7974 13.515V20.6909C12.7974 21.0872 13.1187 21.4085 13.515 21.4085H36.5738C36.9701 21.4085 37.2914 21.0872 37.2914 20.6909V13.515C37.2914 13.1187 36.9701 12.7974 36.5738 12.7974ZM17.8684 19.2557C16.6813 19.2557 15.7156 18.29 15.7156 17.1029C15.7156 15.9159 16.6813 14.9502 17.8684 14.9502C19.0554 14.9502 20.0212 15.9159 20.0212 17.1029C20.0212 18.29 19.0554 19.2557 17.8684 19.2557ZM26.4796 16.3854C26.0833 16.3854 25.762 16.0641 25.762 15.6678C25.762 15.2714 26.0833 14.9502 26.4796 14.9502C26.8759 14.9502 27.1972 15.2714 27.1972 15.6678C27.1972 16.0641 26.8759 16.3854 26.4796 16.3854ZM27.9148 19.2557C27.5184 19.2557 27.1972 18.9344 27.1972 18.5381C27.1972 18.1418 27.5184 17.8205 27.9148 17.8205C28.3111 17.8205 28.6323 18.1418 28.6323 18.5381C28.6323 18.9344 28.3111 19.2557 27.9148 19.2557ZM29.3499 16.3854C28.9536 16.3854 28.6323 16.0641 28.6323 15.6678C28.6323 15.2714 28.9536 14.9502 29.3499 14.9502C29.7463 14.9502 30.0675 15.2714 30.0675 15.6678C30.0675 16.0641 29.7463 16.3854 29.3499 16.3854ZM30.7851 19.2557C30.3888 19.2557 30.0675 18.9344 30.0675 18.5381C30.0675 18.1418 30.3888 17.8205 30.7851 17.8205C31.1814 17.8205 31.5027 18.1418 31.5027 18.5381C31.5027 18.9344 31.1814 19.2557 30.7851 19.2557ZM32.2203 16.3854C31.824 16.3854 31.5027 16.0641 31.5027 15.6678C31.5027 15.2714 31.824 14.9502 32.2203 14.9502C32.6166 14.9502 32.9379 15.2714 32.9379 15.6678C32.9379 16.0641 32.6166 16.3854 32.2203 16.3854ZM33.6555 19.2557C33.2592 19.2557 32.9379 18.9344 32.9379 18.5381C32.9379 18.1418 33.2592 17.8205 33.6555 17.8205C34.0518 17.8205 34.3731 18.1418 34.3731 18.5381C34.3731 18.9344 34.0518 19.2557 33.6555 19.2557Z" fill="#0091AE"/>
<path d="M12.7973 30.7373C12.7973 31.1336 13.1186 31.4549 13.5149 31.4549H24.3267V33.1092C23.7161 33.3258 23.2315 33.8104 23.0149 34.421H13.5352C13.1488 34.421 12.8163 34.7179 12.7981 35.1039C12.7787 35.516 13.1071 35.8562 13.5149 35.8562H23.0149C23.3112 36.6914 24.1088 37.2914 25.0443 37.2914C25.9798 37.2914 26.7774 36.6914 27.0737 35.8562H36.5534C36.9398 35.8562 37.2723 35.5592 37.2905 35.1733C37.3099 34.7612 36.9815 34.421 36.5737 34.421H27.0737C26.8571 33.8104 26.3725 33.3258 25.7619 33.1092V31.4549H36.5737C36.97 31.4549 37.2913 31.1336 37.2913 30.7373V23.5613C37.2913 23.165 36.97 22.8438 36.5737 22.8438H13.5149C13.1186 22.8438 12.7973 23.165 12.7973 23.5613V30.7373ZM25.0443 35.8562C24.6486 35.8562 24.3267 35.5343 24.3267 35.1386C24.3267 34.7429 24.6486 34.421 25.0443 34.421C25.44 34.421 25.7619 34.7429 25.7619 35.1386C25.7619 35.5343 25.44 35.8562 25.0443 35.8562ZM33.6555 27.8669C34.0518 27.8669 34.3731 28.1882 34.3731 28.5845C34.3731 28.9808 34.0518 29.3021 33.6555 29.3021C33.2592 29.3021 32.9379 28.9808 32.9379 28.5845C32.9379 28.1882 33.2592 27.8669 33.6555 27.8669ZM32.2203 24.9965C32.6166 24.9965 32.9379 25.3178 32.9379 25.7141C32.9379 26.1104 32.6166 26.4317 32.2203 26.4317C31.824 26.4317 31.5027 26.1104 31.5027 25.7141C31.5027 25.3178 31.824 24.9965 32.2203 24.9965ZM30.7851 27.8669C31.1814 27.8669 31.5027 28.1882 31.5027 28.5845C31.5027 28.9808 31.1814 29.3021 30.7851 29.3021C30.3888 29.3021 30.0675 28.9808 30.0675 28.5845C30.0675 28.1882 30.3888 27.8669 30.7851 27.8669ZM29.3499 24.9965C29.7462 24.9965 30.0675 25.3178 30.0675 25.7141C30.0675 26.1104 29.7462 26.4317 29.3499 26.4317C28.9536 26.4317 28.6323 26.1104 28.6323 25.7141C28.6323 25.3178 28.9536 24.9965 29.3499 24.9965ZM27.9147 27.8669C28.311 27.8669 28.6323 28.1882 28.6323 28.5845C28.6323 28.9808 28.311 29.3021 27.9147 29.3021C27.5184 29.3021 27.1971 28.9808 27.1971 28.5845C27.1971 28.1882 27.5184 27.8669 27.9147 27.8669ZM26.4795 24.9965C26.8758 24.9965 27.1971 25.3178 27.1971 25.7141C27.1971 26.1104 26.8758 26.4317 26.4795 26.4317C26.0832 26.4317 25.7619 26.1104 25.7619 25.7141C25.7619 25.3178 26.0832 24.9965 26.4795 24.9965ZM17.8683 24.9965C19.0554 24.9965 20.0211 25.9623 20.0211 27.1493C20.0211 28.3364 19.0554 29.3021 17.8683 29.3021C16.6813 29.3021 15.7155 28.3364 15.7155 27.1493C15.7155 25.9623 16.6813 24.9965 17.8683 24.9965Z" fill="#0091AE"/>
</svg>
