<svg width="22" height="29" viewBox="0 0 22 29" fill="none" xmlns="http://www.w3.org/2000/svg">
<g clip-path="url(#clip0_9_308)">
<path d="M4.08143 0.306396C3.16223 0.306396 2.41016 1.10478 2.41016 2.08059V26.9193C2.41016 27.8951 3.16223 28.6935 4.08143 28.6935H20.7942C21.7134 28.6935 22.4655 27.8951 22.4655 26.9193V7.40317L15.7804 0.306396H4.08143Z" fill="white"/>
<path d="M17.599 7.01607H22.4654L15.9769 0.306396V5.33865C15.9769 6.26124 16.7069 7.01607 17.599 7.01607Z" fill="#D3D8DC"/>
<path d="M22.4655 12.6935L17.7466 7.01611H22.4655V12.6935Z" fill="#E7EAEC"/>
<path d="M19.5161 23.1452C19.5161 23.642 19.1401 24.0484 18.6805 24.0484H0.296453C-0.163148 24.0484 -0.539185 23.642 -0.539185 23.1452V14.1129C-0.539185 13.6162 -0.163148 13.2097 0.296453 13.2097H18.6805C19.1401 13.2097 19.5161 13.6162 19.5161 14.1129V23.1452Z" fill="#F15642"/>
<path d="M2.41016 17.3309C2.41016 17.0878 2.59197 16.8226 2.88479 16.8226H4.49924C5.4083 16.8226 6.22645 17.4635 6.22645 18.6919C6.22645 19.8559 5.4083 20.5041 4.49924 20.5041H3.33233V21.4765C3.33233 21.8007 3.13653 21.9839 2.88479 21.9839C2.65403 21.9839 2.41016 21.8007 2.41016 21.4765V17.3309ZM3.33233 17.7499V19.5842H4.49924C4.96776 19.5842 5.33837 19.1487 5.33837 18.6919C5.33837 18.1772 4.96776 17.7499 4.49924 17.7499H3.33233ZM7.59529 21.9839C7.36452 21.9839 7.11279 21.8513 7.11279 21.5281V17.3457C7.11279 17.0814 7.36452 16.8889 7.59529 16.8889H9.19575C12.3897 16.8889 12.3198 21.9839 9.25869 21.9839H7.59529ZM8.03583 17.7877V21.0861H9.19575C11.0829 21.0861 11.1668 17.7877 9.19575 17.7877H8.03583ZM13.4526 17.8466V19.017H15.2349C15.4866 19.017 15.7384 19.2822 15.7384 19.5391C15.7384 19.7822 15.4866 19.9811 15.2349 19.9811H13.4526V21.5272C13.4526 21.785 13.2786 21.983 13.0339 21.983C12.7262 21.983 12.5383 21.785 12.5383 21.5272V17.3447C12.5383 17.0805 12.7271 16.888 13.0339 16.888H15.4875C15.7952 16.888 15.977 17.0805 15.977 17.3447C15.977 17.5805 15.7952 17.8457 15.4875 17.8457H13.4526V17.8466Z" fill="white"/>
</g>
<defs>
<clipPath id="clip0_9_308">
<rect width="22" height="29" fill="white"/>
</clipPath>
</defs>
</svg>
