<svg width="20" height="20" viewBox="0 0 20 20" fill="none" xmlns="http://www.w3.org/2000/svg">
<path d="M15.6355 11.4953L16.6905 13.3518C16.5652 13.5969 16.4251 13.8376 16.27 14.0727C16.115 14.3079 15.9489 14.5315 15.7731 14.7432L13.6977 14.5118C13.1426 14.9674 12.5019 15.3225 11.8034 15.5493L10.8332 17.4542C10.5596 17.4844 10.2815 17.5 9.99985 17.5C9.71818 17.5 9.44013 17.4844 9.16652 17.4542L8.19378 15.5485C7.49491 15.3212 6.85396 14.9655 6.29876 14.5092L4.2114 14.7429C4.03553 14.5312 3.86951 14.3076 3.71446 14.0724C3.55941 13.8373 3.41931 13.5966 3.29395 13.3515L4.35498 11.4845C4.23137 11.0118 4.16651 10.5115 4.16651 10.0001C4.16651 9.47908 4.23483 8.97397 4.363 8.49329L3.29426 6.61334C3.41963 6.36826 3.55972 6.12759 3.71478 5.89243C3.86983 5.65727 4.03585 5.43369 4.21172 5.22192L6.34086 5.46106C6.88947 5.01729 7.51321 4.67236 8.19967 4.44987M8.19646 4.44997L9.16632 2.54577C9.43993 2.51553 9.71798 2.5 9.99965 2.5C10.2813 2.5 10.5594 2.51553 10.833 2.54577L11.8028 4.44997C12.4898 4.67263 13.1154 5.0147 13.6643 5.45897L15.7725 5.22218C15.9484 5.43395 16.1144 5.65753 16.2695 5.89269C16.4245 6.12784 16.5646 6.36852 16.69 6.6136L15.6323 8.47473M15.6325 8.47764C15.7634 8.963 15.8332 9.47342 15.8332 10.0001C15.8332 10.5179 15.7657 11.0199 15.6391 11.4979M12.4998 10.0001C12.4998 11.3808 11.3806 12.5001 9.99984 12.5001C8.61913 12.5001 7.49984 11.3808 7.49984 10.0001C7.49984 8.61942 8.61913 7.50013 9.99984 7.50013C11.3806 7.50013 12.4998 8.61942 12.4998 10.0001Z" stroke-width="1.5" stroke-linecap="round" stroke-linejoin="round"/>
</svg>
