<svg width="20" height="20" viewBox="0 0 20 20" fill="none" xmlns="http://www.w3.org/2000/svg">
<path d="M9.97218 10.625C10.8055 9.79167 11.6388 9.46214 11.6388 8.54167C11.6388 7.62119 10.8926 6.875 9.97217 6.875C9.19557 6.875 8.54303 7.40616 8.35801 8.125M9.97218 13.125H9.98052M17.5029 10C17.5029 14.1421 14.1451 17.5 10.0029 17.5C8.30592 17.5 2.50353 17.5 2.50353 17.5C2.50353 17.5 3.80286 14.3801 3.28286 13.334C2.78364 12.3297 2.50293 11.1976 2.50293 10C2.50293 5.85786 5.86079 2.5 10.0029 2.5C14.1451 2.5 17.5029 5.85786 17.5029 10Z" stroke-width="1.5" stroke-linecap="round" stroke-linejoin="round"/>
</svg>
