<svg width="38" height="42" viewBox="0 0 38 42" fill="none" xmlns="http://www.w3.org/2000/svg">
<path d="M18.8931 41.5099C17.5993 41.5099 16.3121 41.1783 15.1613 40.5087L3.73181 33.8773C1.43031 32.5445 0 30.0544 0 27.3823V14.126C0 11.4539 1.43031 8.96383 3.73181 7.63104L15.1613 0.999593C17.4628 -0.333198 20.3234 -0.333198 22.6314 0.999593L34.0609 7.63104C36.3624 8.96383 37.7927 11.4539 37.7927 14.126V27.3823C37.7927 30.0544 36.3624 32.5445 34.0609 33.8773L22.6314 40.5087C21.4807 41.1783 20.1869 41.5099 18.8996 41.5099H18.8931ZM18.8931 4.13978C18.3145 4.13978 17.7359 4.28931 17.2223 4.58837L5.78626 11.2198C4.75254 11.8179 4.1154 12.9297 4.1154 14.126V27.3823C4.1154 28.5786 4.75904 29.6903 5.78626 30.2885L17.2223 36.9199C18.256 37.518 19.5368 37.518 20.564 36.9199L32 30.2885C33.0337 29.6903 33.6708 28.5786 33.6708 27.3823V14.126C33.6708 12.9297 33.0272 11.8179 32 11.2198L20.564 4.58837C20.0504 4.28931 19.4717 4.13978 18.8931 4.13978V4.13978Z" fill="#3C56A0"/>
<path d="M18.594 28.3575C22.7771 28.3575 26.1682 24.9519 26.1682 20.7509C26.1682 16.5498 22.7771 13.1442 18.594 13.1442C14.411 13.1442 11.0199 16.5498 11.0199 20.7509C11.0199 24.9519 14.411 28.3575 18.594 28.3575Z" fill="#0B2464"/>
</svg>
