<svg width="20" height="21" viewBox="0 0 20 21" fill="none" xmlns="http://www.w3.org/2000/svg">
<path d="M8.67435 17.2965C7.35099 18.6688 5.19585 18.7954 3.72098 17.5874C2.84263 16.8269 2.39395 15.6834 2.52077 14.5285C2.6306 13.677 3.02856 12.8888 3.64847 12.2948L6.04557 9.89606C6.53362 9.40785 6.53362 8.61646 6.04557 8.12825C5.55736 7.6402 4.76597 7.6402 4.27776 8.12825L1.93153 10.4753C0.862045 11.5067 0.187591 12.88 0.025336 14.3568C-0.277725 17.6831 2.17306 20.6253 5.49934 20.9283C7.28563 21.0911 9.05203 20.4525 10.3213 19.1851L12.8284 16.6789C13.3164 16.1907 13.3164 15.3993 12.8284 14.9111C12.3402 14.423 11.5488 14.423 11.0606 14.9111L8.67435 17.2965Z" fill="#C14671"/>
<path d="M17.6343 2.19714C15.1454 0.368463 11.6891 0.655154 9.53543 2.86894L7.17584 5.22935C6.68778 5.71756 6.68778 6.50895 7.17584 6.99716C7.66405 7.48521 8.45544 7.48521 8.94365 6.99716L11.3407 4.60256C12.6352 3.26377 14.7295 3.11297 16.2024 4.2525C17.7184 5.49561 17.9397 7.73229 16.6966 9.2483C16.6238 9.33702 16.5468 9.42215 16.4658 9.50342L13.9587 12.0105C13.4706 12.4987 13.4706 13.2901 13.9587 13.7783C14.4469 14.2664 15.2383 14.2664 15.7265 13.7783L18.2336 11.2712C20.5939 8.90339 20.5878 5.0705 18.22 2.7102C18.036 2.52681 17.8404 2.35545 17.6343 2.19714Z" fill="#C14671"/>
<path d="M7.17558 12.0128L11.06 8.1283C11.5483 7.64005 12.3399 7.64005 12.8281 8.1283C13.3164 8.61655 13.3164 9.40813 12.8281 9.89638L8.94366 13.7808C8.45541 14.2691 7.66383 14.2691 7.17558 13.7808C6.68733 13.2926 6.68733 12.501 7.17558 12.0128Z" fill="#C14671"/>
</svg>
