<svg width="16" height="17" viewBox="0 0 16 17" fill="none" xmlns="http://www.w3.org/2000/svg">
<g clip-path="url(#clip0_1_3)">
<path d="M16 0.5H0V16.5H16V0.5Z" fill="white" fill-opacity="0.01"/>
<path d="M8 0.499268C6.41775 0.499268 4.87104 0.968459 3.55544 1.84751C2.23985 2.72656 1.21447 3.97599 0.608967 5.4378C0.00346625 6.89961 -0.15496 8.50814 0.153721 10.06C0.462403 11.6118 1.22433 13.0373 2.34315 14.1561C3.46197 15.2749 4.88743 16.0369 6.43928 16.3456C7.99113 16.6542 9.59966 16.4958 11.0615 15.8903C12.5233 15.2848 13.7727 14.2594 14.6518 12.9438C15.5308 11.6282 16 10.0815 16 8.49927C15.9977 6.37824 15.1541 4.34474 13.6543 2.84495C12.1545 1.34515 10.121 0.501562 8 0.499268ZM8 15.1659C6.68146 15.1659 5.39253 14.7749 4.2962 14.0424C3.19987 13.3099 2.34539 12.2687 1.84081 11.0505C1.33622 9.83232 1.2042 8.49187 1.46144 7.19867C1.71867 5.90546 2.35361 4.71757 3.28596 3.78522C4.21831 2.85287 5.4062 2.21793 6.6994 1.9607C7.99261 1.70346 9.33305 1.83549 10.5512 2.34007C11.7694 2.84466 12.8106 3.69914 13.5431 4.79547C14.2757 5.89179 14.6667 7.18073 14.6667 8.49927C14.6647 10.2668 13.9617 11.9613 12.7119 13.2112C11.4621 14.461 9.76752 15.164 8 15.1659ZM11.3333 8.49927C11.3333 8.67608 11.2631 8.84565 11.1381 8.97067C11.0131 9.0957 10.8435 9.16594 10.6667 9.16594H8.66667V11.1659C8.66667 11.3427 8.59643 11.5123 8.47141 11.6373C8.34638 11.7624 8.17682 11.8326 8 11.8326C7.82319 11.8326 7.65362 11.7624 7.5286 11.6373C7.40358 11.5123 7.33334 11.3427 7.33334 11.1659V9.16594H5.33334C5.15653 9.16594 4.98696 9.0957 4.86193 8.97067C4.73691 8.84565 4.66667 8.67608 4.66667 8.49927C4.66667 8.32246 4.73691 8.15289 4.86193 8.02786C4.98696 7.90284 5.15653 7.8326 5.33334 7.8326H7.33334V5.8326C7.33334 5.65579 7.40358 5.48622 7.5286 5.3612C7.65362 5.23617 7.82319 5.16593 8 5.16593C8.17682 5.16593 8.34638 5.23617 8.47141 5.3612C8.59643 5.48622 8.66667 5.65579 8.66667 5.8326V7.8326H10.6667C10.8435 7.8326 11.0131 7.90284 11.1381 8.02786C11.2631 8.15289 11.3333 8.32246 11.3333 8.49927Z" fill="#007D59"/>
</g>
<defs>
<clipPath id="clip0_1_3">
<rect width="16" height="17" fill="white"/>
</clipPath>
</defs>
</svg>
