<svg width="16" height="17" viewBox="0 0 16 17" fill="none" xmlns="http://www.w3.org/2000/svg">
<g clip-path="url(#clip0_541_105157)">
<rect width="16" height="16" transform="translate(0 0.5)" fill="white" fill-opacity="0.01"/>
<g clip-path="url(#clip1_541_105157)">
<path d="M7.99951 15.4992C6.143 15.4992 4.36252 14.7617 3.04976 13.4489C1.73701 12.1362 0.999512 10.3557 0.999512 8.49918C0.999512 6.64266 1.73701 4.86218 3.04976 3.54943C4.36252 2.23667 6.143 1.49918 7.99951 1.49918C9.85603 1.49918 11.6365 2.23667 12.9493 3.54943C14.262 4.86218 14.9995 6.64266 14.9995 8.49918C14.9995 10.3557 14.262 12.1362 12.9493 13.4489C11.6365 14.7617 9.85603 15.4992 7.99951 15.4992ZM7.99951 16.4992C10.1212 16.4992 12.1561 15.6563 13.6564 14.156C15.1567 12.6557 15.9995 10.6209 15.9995 8.49918C15.9995 6.37744 15.1567 4.34261 13.6564 2.84232C12.1561 1.34203 10.1212 0.499176 7.99951 0.499176C5.87778 0.499176 3.84295 1.34203 2.34266 2.84232C0.842367 4.34261 -0.000488281 6.37744 -0.000488281 8.49918C-0.000488281 10.6209 0.842367 12.6557 2.34266 14.156C3.84295 15.6563 5.87778 16.4992 7.99951 16.4992Z" fill="white"/>
<path d="M7.99951 4.49918C8.13212 4.49918 8.2593 4.55185 8.35307 4.64562C8.44683 4.73939 8.49951 4.86657 8.49951 4.99918V7.99918H11.4995C11.6321 7.99918 11.7593 8.05185 11.8531 8.14562C11.9468 8.23939 11.9995 8.36657 11.9995 8.49918C11.9995 8.63178 11.9468 8.75896 11.8531 8.85273C11.7593 8.9465 11.6321 8.99918 11.4995 8.99918H8.49951V11.9992C8.49951 12.1318 8.44683 12.259 8.35307 12.3527C8.2593 12.4465 8.13212 12.4992 7.99951 12.4992C7.8669 12.4992 7.73973 12.4465 7.64596 12.3527C7.55219 12.259 7.49951 12.1318 7.49951 11.9992V8.99918H4.49951C4.3669 8.99918 4.23973 8.9465 4.14596 8.85273C4.05219 8.75896 3.99951 8.63178 3.99951 8.49918C3.99951 8.36657 4.05219 8.23939 4.14596 8.14562C4.23973 8.05185 4.3669 7.99918 4.49951 7.99918H7.49951V4.99918C7.49951 4.86657 7.55219 4.73939 7.64596 4.64562C7.73973 4.55185 7.8669 4.49918 7.99951 4.49918Z" fill="white"/>
</g>
</g>
<defs>
<clipPath id="clip0_541_105157">
<rect width="16" height="16" fill="white" transform="translate(0 0.5)"/>
</clipPath>
<clipPath id="clip1_541_105157">
<rect width="16" height="16" fill="white" transform="translate(0 0.5)"/>
</clipPath>
</defs>
</svg>
