<svg width="22" height="22" viewBox="0 0 22 22" fill="none" xmlns="http://www.w3.org/2000/svg">
<path d="M14.2745 6.10571H7.72524C6.83209 6.10571 6.10547 6.83234 6.10547 7.72548V14.2747C6.10547 15.1678 6.83209 15.8944 7.72524 15.8944H14.2744C15.1676 15.8944 15.8942 15.1678 15.8942 14.2747V7.72544C15.8942 6.83229 15.1676 6.10571 14.2745 6.10571ZM14.5003 14.2747C14.5003 14.3992 14.399 14.5006 14.2744 14.5006H7.72524C7.60071 14.5006 7.49931 14.3992 7.49931 14.2747V7.72544C7.49931 7.60087 7.60067 7.49951 7.72524 7.49951H14.2744C14.3989 7.49951 14.5003 7.60087 14.5003 7.72544V14.2747Z" fill="#772F75"/>
<path d="M21.3031 9.49836C21.688 9.49836 22 9.18631 22 8.80144C22 8.41656 21.688 8.10452 21.3031 8.10452H19.0708V6.66934H21.3031C21.688 6.66934 22 6.3573 22 5.97242C22 5.58755 21.688 5.2755 21.3031 5.2755H19.0472C18.8897 4.06844 17.9315 3.11026 16.7245 2.95276V0.696919C16.7245 0.312046 16.4125 0 16.0275 0C15.6426 0 15.3306 0.312046 15.3306 0.696919V2.92924H13.8954V0.696919C13.8954 0.312046 13.5834 0 13.1985 0C12.8136 0 12.5016 0.312046 12.5016 0.696919V2.92924H9.49836V0.696919C9.49836 0.312046 9.18636 0 8.80144 0C8.41652 0 8.10452 0.312046 8.10452 0.696919V2.92924H6.66934V0.696919C6.66934 0.312046 6.35734 0 5.97242 0C5.58751 0 5.2755 0.312046 5.2755 0.696919V2.95276C4.06844 3.11026 3.11026 4.06844 2.95272 5.2755H0.696919C0.312002 5.2755 0 5.58755 0 5.97242C0 6.3573 0.312002 6.66934 0.696919 6.66934H2.9292V8.10452H0.696919C0.312002 8.10452 0 8.41656 0 8.80144C0 9.18631 0.312002 9.49836 0.696919 9.49836H2.9292V12.5016H0.696919C0.312002 12.5016 0 12.8137 0 13.1986C0 13.5834 0.312002 13.8955 0.696919 13.8955H2.9292V15.3307H0.696919C0.312002 15.3307 0 15.6427 0 16.0276C0 16.4124 0.312002 16.7245 0.696919 16.7245H2.95276C3.11031 17.9316 4.06848 18.8897 5.27555 19.0472V21.3031C5.27555 21.688 5.58755 22 5.97247 22C6.35739 22 6.66939 21.688 6.66939 21.3031V19.0708H8.10456V21.3031C8.10456 21.688 8.41656 22 8.80148 22C9.1864 22 9.4984 21.688 9.4984 21.3031V19.0708H12.5016V21.3031C12.5016 21.688 12.8136 22 13.1986 22C13.5835 22 13.8955 21.688 13.8955 21.3031V19.0708H15.3307V21.3031C15.3307 21.688 15.6427 22 16.0276 22C16.4125 22 16.7245 21.688 16.7245 21.3031V19.0472C17.9316 18.8897 18.8897 17.9315 19.0473 16.7245H21.3031C21.688 16.7245 22 16.4124 22 16.0276C22 15.6427 21.688 15.3307 21.3031 15.3307H19.0708V13.8955H21.3031C21.688 13.8955 22 13.5834 22 13.1986C22 12.8137 21.688 12.5016 21.3031 12.5016H19.0708V9.49836H21.3031ZM17.677 16.3738C17.677 17.0924 17.0924 17.6769 16.3738 17.6769H5.62619C4.90762 17.6769 4.32303 17.0923 4.32303 16.3738V5.62619C4.32303 4.90762 4.90762 4.32308 5.62619 4.32308H16.3738C17.0924 4.32308 17.677 4.90766 17.677 5.62619V16.3738Z" fill="#772F75"/>
</svg>
