<svg width="16" height="16" viewBox="0 0 16 16" fill="none" xmlns="http://www.w3.org/2000/svg">
<g clip-path="url(#clip0_2_1761)">
<rect width="16" height="16" fill="white" fill-opacity="0.01"/>
<g clip-path="url(#clip1_2_1761)">
<path d="M7.99963 -0.000854492C3.58135 -0.000854492 -0.000366211 3.58086 -0.000366211 7.99915C-0.000366211 12.4174 3.58135 15.9991 7.99963 15.9991C12.4179 15.9991 15.9996 12.4174 15.9996 7.99915C15.9949 3.58283 12.4159 0.00392676 7.99963 -0.000854492ZM10.6663 9.7238C10.9372 9.97315 10.9547 10.3949 10.7054 10.6658C10.456 10.9367 10.0343 10.9542 9.76335 10.7049C9.74979 10.6924 9.73679 10.6794 9.72429 10.6658L7.99963 8.9418L6.27563 10.6658C6.01079 10.9216 5.58876 10.9142 5.33298 10.6494C5.08348 10.3911 5.08348 9.98149 5.33298 9.72315L7.05698 7.99915L5.33298 6.27515C5.0772 6.0103 5.08454 5.58827 5.34938 5.33249C5.60773 5.08299 6.01729 5.08299 6.27563 5.33249L7.99963 7.05649L9.72429 5.33249C9.97363 5.06158 10.3954 5.04408 10.6663 5.29343C10.9372 5.54277 10.9547 5.96452 10.7054 6.23543C10.6929 6.24899 10.6799 6.26199 10.6663 6.27449L8.94229 7.99915L10.6663 9.7238Z" fill="#842029"/>
</g>
</g>
<defs>
<clipPath id="clip0_2_1761">
<rect width="16" height="16" fill="white"/>
</clipPath>
<clipPath id="clip1_2_1761">
<rect width="16" height="16" fill="white"/>
</clipPath>
</defs>
</svg>
