<svg width="10" height="12" viewBox="0 0 10 12" fill="none" xmlns="http://www.w3.org/2000/svg">
<path d="M9.75802 6.59163C9.68055 6.51352 9.58838 6.45152 9.48683 6.40922C9.38528 6.36691 9.27636 6.34513 9.16635 6.34513C9.05634 6.34513 8.94742 6.36691 8.84587 6.40922C8.74432 6.45152 8.65215 6.51352 8.57468 6.59163L5.83302 9.33329V0.999959C5.83302 0.778946 5.74522 0.566984 5.58894 0.410704C5.43266 0.254424 5.2207 0.166626 4.99968 0.166626C4.77867 0.166626 4.56671 0.254424 4.41043 0.410704C4.25415 0.566984 4.16635 0.778946 4.16635 0.999959V9.33329L1.42468 6.59163C1.34721 6.51352 1.25505 6.45152 1.1535 6.40922C1.05195 6.36691 0.943027 6.34513 0.833017 6.34513C0.723007 6.34513 0.614086 6.36691 0.512537 6.40922C0.410987 6.45152 0.31882 6.51352 0.24135 6.59163C0.0861414 6.74776 -0.000976562 6.95897 -0.000976562 7.17913C-0.000976562 7.39928 0.0861414 7.61049 0.24135 7.76663L3.82468 11.3416C4.13581 11.6546 4.55837 11.8314 4.99968 11.8333V11.8333C5.4381 11.8292 5.85727 11.6526 6.16635 11.3416L9.74968 7.76663C9.90601 7.61159 9.99463 7.401 9.99619 7.18085C9.99775 6.96069 9.91212 6.74886 9.75802 6.59163V6.59163Z" fill="#F27661"/>
</svg>
