<svg width="29" height="29" viewBox="0 0 29 29" fill="none" xmlns="http://www.w3.org/2000/svg">
<path d="M20.5417 22.9583C20.5417 24.293 21.6236 25.375 22.9583 25.375C24.293 25.375 25.375 24.293 25.375 22.9583C25.375 21.6236 24.293 20.5417 22.9583 20.5417M20.5417 22.9583C20.5417 21.6236 21.6236 20.5417 22.9583 20.5417M20.5417 22.9583H8.45833M22.9583 20.5417V8.45833M8.45833 22.9583C8.45833 24.293 7.37635 25.375 6.04167 25.375C4.70698 25.375 3.625 24.293 3.625 22.9583C3.625 21.6236 4.70698 20.5417 6.04167 20.5417M8.45833 22.9583C8.45833 21.6236 7.37635 20.5417 6.04167 20.5417M6.04167 20.5417V8.45833M6.04167 8.45833C4.70698 8.45833 3.625 7.37635 3.625 6.04167C3.625 4.70698 4.70698 3.625 6.04167 3.625C7.37635 3.625 8.45833 4.70698 8.45833 6.04167M6.04167 8.45833C7.37635 8.45833 8.45833 7.37635 8.45833 6.04167M8.45833 6.04167H20.5417M22.9583 8.45833C21.6236 8.45833 20.5417 7.37635 20.5417 6.04167M22.9583 8.45833C24.293 8.45833 25.375 7.37635 25.375 6.04167C25.375 4.70698 24.293 3.625 22.9583 3.625C21.6236 3.625 20.5417 4.70698 20.5417 6.04167M14.5 18.125V10.875M10.875 10.875H18.125" stroke="#4E5064" stroke-width="2" stroke-linecap="round" stroke-linejoin="round"/>
</svg>
