<svg width="458" height="578" viewBox="0 0 458 578" fill="none" xmlns="http://www.w3.org/2000/svg">
<path d="M328.217 578.001H75.0916C68.569 578.001 63.3008 572.733 63.3008 566.21C63.3008 559.688 68.569 554.419 75.0916 554.419H328.217C334.74 554.419 340.008 559.688 340.008 566.21C340.091 572.733 334.823 578.001 328.217 578.001Z" fill="#D7DDF2"/>
<path d="M130.786 222.27H4.43199C2.00694 222.27 0 220.263 0 217.838V120.251H135.218V217.838C135.218 220.263 133.294 222.27 130.786 222.27Z" fill="#DADEF2"/>
<path d="M125.101 128.279H7.94531V212.905H125.101V128.279Z" fill="white"/>
<path d="M130.786 106.62H4.43199C2.00694 106.62 0 108.627 0 111.052V120.334H135.218V111.052C135.218 108.543 133.294 106.62 130.786 106.62Z" fill="#0B2464"/>
<path d="M11.7919 113.477C11.7919 114.564 10.9557 115.4 9.86863 115.4C8.78154 115.4 7.94531 114.564 7.94531 113.477C7.94531 112.39 8.78154 111.553 9.86863 111.553C10.9557 111.553 11.7919 112.39 11.7919 113.477Z" fill="#FF1800"/>
<path d="M20.9892 113.477C20.9892 114.564 20.153 115.4 19.0659 115.4C17.9788 115.4 17.1426 114.564 17.1426 113.477C17.1426 112.39 17.9788 111.553 19.0659 111.553C20.153 111.553 20.9892 112.39 20.9892 113.477Z" fill="#FFC900"/>
<path d="M28.2651 115.4C29.3273 115.4 30.1884 114.539 30.1884 113.477C30.1884 112.415 29.3273 111.553 28.2651 111.553C27.2029 111.553 26.3418 112.415 26.3418 113.477C26.3418 114.539 27.2029 115.4 28.2651 115.4Z" fill="#00D694"/>
<path d="M17.1427 138.981H15.2194C14.8013 138.981 14.4668 138.646 14.4668 138.228V135.97C14.4668 135.552 14.8013 135.218 15.2194 135.218H17.1427C17.5608 135.218 17.8953 135.552 17.8953 135.97V138.228C17.9789 138.646 17.5608 138.981 17.1427 138.981Z" fill="#DADEF2"/>
<path d="M17.1427 146.506H15.2194C14.8013 146.506 14.4668 146.172 14.4668 145.753V143.496C14.4668 143.078 14.8013 142.743 15.2194 142.743H17.1427C17.5608 142.743 17.8953 143.078 17.8953 143.496V145.753C17.9789 146.172 17.5608 146.506 17.1427 146.506Z" fill="#DADEF2"/>
<path d="M33.6169 138.982H21.4917C20.4046 138.982 19.5684 138.146 19.5684 137.059C19.5684 135.972 20.4046 135.135 21.4917 135.135H33.6169C34.704 135.135 35.5403 135.972 35.5403 137.059C35.5403 138.146 34.6204 138.982 33.6169 138.982Z" fill="#DADEF2"/>
<path d="M35.7075 146.507H21.4917C20.4046 146.507 19.5684 145.671 19.5684 144.584C19.5684 143.497 20.4046 142.661 21.4917 142.661H35.7075C36.7946 142.661 37.6308 143.497 37.6308 144.584C37.6308 145.671 36.711 146.507 35.7075 146.507Z" fill="#DADEF2"/>
<path d="M78.811 203.518C95.1532 196.749 102.914 178.013 96.1442 161.671C89.3749 145.329 70.6394 137.568 54.2972 144.338C37.955 151.107 30.1946 169.843 36.9639 186.185C43.7332 202.527 62.4688 210.287 78.811 203.518Z" fill="#7499F7"/>
<path d="M66.5645 141.912V173.939H98.5919C98.5083 156.295 84.2088 141.912 66.5645 141.912Z" fill="#6956F2"/>
<path d="M80.4458 202.788C91.1495 197.604 98.5919 186.649 98.5919 173.939H66.5645L80.4458 202.788Z" fill="#56CBF2"/>
<path d="M66.5617 189.908C75.3828 189.908 82.5337 182.757 82.5337 173.936C82.5337 165.115 75.3828 157.964 66.5617 157.964C57.7407 157.964 50.5898 165.115 50.5898 173.936C50.5898 182.757 57.7407 189.908 66.5617 189.908Z" fill="white"/>
<path d="M111.134 137.812H90.0615C87.9709 137.812 86.2148 139.485 86.2148 141.659V152.781C86.2148 154.788 87.72 156.376 89.6434 156.544V160.808C89.6434 161.979 91.2322 162.481 91.9012 161.477L95.4133 156.544H111.134C113.225 156.544 114.981 154.871 114.981 152.697V141.575C114.981 139.568 113.225 137.812 111.134 137.812Z" fill="#FFC900"/>
<path d="M451.813 205.459H278.714C275.369 205.459 272.693 202.783 272.693 199.438V65.8933H457.834V199.438C457.834 202.783 455.158 205.459 451.813 205.459Z" fill="#DADEF2"/>
<path d="M451.813 47.162H278.714C275.369 47.162 272.693 49.8379 272.693 53.1828V65.8098H457.834V53.1828C457.834 49.9216 455.158 47.162 451.813 47.162Z" fill="#0B2464"/>
<path d="M288.916 56.6099C288.916 58.0315 287.746 59.2859 286.24 59.2859C284.819 59.2859 283.564 58.1151 283.564 56.6099C283.564 55.1047 284.735 53.934 286.24 53.934C287.746 53.934 288.916 55.1884 288.916 56.6099Z" fill="#FF1800"/>
<path d="M301.461 56.6099C301.461 58.0315 300.29 59.2859 298.785 59.2859C297.28 59.2859 296.109 58.1151 296.109 56.6099C296.109 55.1047 297.28 53.934 298.785 53.934C300.29 53.934 301.461 55.1884 301.461 56.6099Z" fill="#FFC900"/>
<path d="M311.412 59.2859C312.89 59.2859 314.088 58.0878 314.088 56.6099C314.088 55.1321 312.89 53.934 311.412 53.934C309.934 53.934 308.736 55.1321 308.736 56.6099C308.736 58.0878 309.934 59.2859 311.412 59.2859Z" fill="#00D694"/>
<path d="M394.281 75.6767H283.648V189.822H394.281V75.6767Z" fill="white"/>
<path d="M442.699 116.819H404.567C402.392 116.819 400.553 115.063 400.553 112.805V80.0252C400.553 77.851 402.309 76.0113 404.567 76.0113H442.699C444.873 76.0113 446.712 77.7674 446.712 80.0252V112.805C446.712 115.063 444.873 116.819 442.699 116.819Z" fill="#6956F2"/>
<path d="M446.712 122.005H400.553V189.823H446.712V122.005Z" fill="white"/>
<path d="M290.674 81.4489V178.786H386.672" stroke="#D6E2FF" stroke-width="1.80909" stroke-miterlimit="10"/>
<path d="M310.576 130.2H298.283C297.029 130.2 296.025 131.203 296.025 132.457V178.784H312.834V132.457C312.834 131.203 311.83 130.2 310.576 130.2Z" fill="#FFC900"/>
<path d="M333.656 150.019H321.363C320.109 150.019 319.105 151.022 319.105 152.277V178.785H335.914V152.277C335.914 151.022 334.91 150.019 333.656 150.019Z" fill="#6956F2"/>
<path d="M356.736 106.033H344.443C343.189 106.033 342.186 107.036 342.186 108.29V178.784H358.994V108.29C358.994 107.036 357.99 106.033 356.736 106.033Z" fill="#FF3700"/>
<path d="M379.812 84.376H367.52C366.265 84.376 365.262 85.3794 365.262 86.6338V178.869H382.07V86.5502C382.07 85.3794 381.066 84.376 379.812 84.376Z" fill="#56CBF2"/>
<path d="M302.463 89.5583H299.87C299.285 89.5583 298.783 89.0566 298.783 88.4712V85.3772C298.783 84.7918 299.285 84.2901 299.87 84.2901H302.463C303.048 84.2901 303.55 84.7918 303.55 85.3772V88.4712C303.466 89.0566 303.048 89.5583 302.463 89.5583Z" fill="#DADEF2"/>
<path d="M302.463 99.8418H299.87C299.285 99.8418 298.783 99.34 298.783 98.7547V95.6606C298.783 95.0753 299.285 94.5735 299.87 94.5735H302.463C303.048 94.5735 303.55 95.0753 303.55 95.6606V98.7547C303.466 99.4237 303.048 99.8418 302.463 99.8418Z" fill="#DADEF2"/>
<path d="M324.96 89.5608H308.319C306.897 89.5608 305.727 88.39 305.727 86.9685C305.727 85.5469 306.897 84.3762 308.319 84.3762H324.96C326.381 84.3762 327.552 85.5469 327.552 86.9685C327.552 88.39 326.381 89.5608 324.96 89.5608Z" fill="#DADEF2"/>
<path d="M333.824 99.8451H308.319C306.897 99.8451 305.727 98.6744 305.727 97.2528C305.727 95.8312 306.897 94.6605 308.319 94.6605H333.824C335.245 94.6605 336.416 95.8312 336.416 97.2528C336.416 98.6744 335.245 99.8451 333.824 99.8451Z" fill="#DADEF2"/>
<path d="M423.633 162.059C432.039 162.059 438.853 155.245 438.853 146.84C438.853 138.434 432.039 131.62 423.633 131.62C415.228 131.62 408.414 138.434 408.414 146.84C408.414 155.245 415.228 162.059 423.633 162.059Z" stroke="#EBEBEB" stroke-width="6.03044" stroke-miterlimit="10"/>
<path d="M433.333 135.133C436.678 137.892 438.852 142.157 438.852 146.84C438.852 152.108 436.176 156.707 432.162 159.467" stroke="#3D7FEB" stroke-width="6.03044" stroke-miterlimit="10" stroke-linecap="round"/>
<path d="M432.747 90.0597H408.999C407.577 90.0597 406.406 88.889 406.406 87.4674C406.406 86.0458 407.577 84.8751 408.999 84.8751H432.747C434.169 84.8751 435.34 86.0458 435.34 87.4674C435.34 88.889 434.169 90.0597 432.747 90.0597Z" fill="#DADEF2"/>
<path d="M423.716 100.43H408.999C407.577 100.43 406.406 99.2594 406.406 97.8378C406.406 96.4163 407.577 95.2455 408.999 95.2455H423.716C425.138 95.2455 426.308 96.4163 426.308 97.8378C426.308 99.2594 425.138 100.43 423.716 100.43Z" fill="#DADEF2"/>
<path d="M439.188 174.769H407.746C406.993 174.769 406.324 174.184 406.324 173.348C406.324 172.595 406.91 171.926 407.746 171.926H439.188C439.94 171.926 440.609 172.512 440.609 173.348C440.609 174.184 439.94 174.769 439.188 174.769Z" fill="#DADEF2"/>
<path d="M439.188 181.541H407.746C406.993 181.541 406.324 180.956 406.324 180.12C406.324 179.367 406.91 178.698 407.746 178.698H439.188C439.94 178.698 440.609 179.284 440.609 180.12C440.609 180.956 439.94 181.541 439.188 181.541Z" fill="#DADEF2"/>
<path d="M277.041 152.694C272.358 151.523 271.606 154.618 270.77 160.555C269.933 166.576 268.763 176.109 268.512 182.882C279.132 187.481 289.585 192.248 300.288 196.429C303.299 188.067 308.232 175.69 309.236 167.83C310.239 160.053 308.985 157.879 304.72 154.032C300.957 150.604 296.525 148.429 291.592 149.015C285.571 149.767 281.891 163.565 280.553 168.499C279.968 165.238 281.724 153.865 277.041 152.694Z" fill="#FF826E"/>
<path d="M280.551 168.751C286.404 171.761 290.669 176.528 288.328 183.385" stroke="#78284B" stroke-width="0.56094" stroke-miterlimit="10"/>
<path d="M304.803 153.864C302.88 159.718 300.957 165.572 299.033 171.425" stroke="#78284B" stroke-width="0.56094" stroke-miterlimit="10"/>
<path d="M289.836 167.747C292.261 161.727 294.77 155.706 297.195 149.685" stroke="#78284B" stroke-width="0.56094" stroke-miterlimit="10"/>
<path d="M219.257 190.324C230.546 183.969 242.253 194.589 249.194 203.787C250.95 206.129 255.131 211.481 257.305 214.156C260.483 203.285 263.912 192.331 267.591 181.544C282.058 188.066 296.692 194.003 311.242 200.442C304.887 216.916 298.03 238.323 293.179 253.961C288.246 269.682 280.051 284.148 263.243 279.382C246.434 274.616 219.341 236.567 210.644 224.609C201.947 212.651 206.379 209.892 209.055 202.031C211.731 194.171 213.069 193.836 219.257 190.324Z" fill="#00B5F2"/>
<path d="M308.314 207.968C293.68 202.365 279.046 196.595 264.412 190.992L308.314 207.968Z" fill="#0099F2"/>
<path d="M165.488 146.841C161.056 142.242 149.182 146.591 147.259 147.761C143.83 149.768 141.321 153.364 140.736 157.294C140.234 160.305 140.652 163.65 138.813 165.991C136.973 168.332 133.377 168.751 130.534 167.914C127.607 167.078 125.182 165.155 122.59 163.65C119.998 162.144 116.904 160.89 113.977 161.559C110.214 162.312 107.705 165.74 106.116 169.252C101.601 179.036 102.102 190.911 107.371 200.276C112.722 209.642 122.673 216.165 133.377 217.252C144.081 218.339 155.203 213.99 162.311 205.879C167.077 200.443 169.92 192.248 166.157 186.144C165.154 184.472 163.649 182.799 164.15 180.876C164.903 178.284 168.499 178.284 170.84 177.196C175.021 175.189 175.607 169.503 174.77 164.988C173.349 158.214 170.171 151.859 165.488 146.841Z" fill="#0B2464"/>
<path d="M258.394 513.108L279.049 542.878L302.38 556.174C304.888 557.596 306.393 560.272 306.393 563.115V564.285H269.014L241.084 538.697L234.144 564.285H230.297L234.812 513.025H258.394V513.108Z" fill="#0B2464"/>
<path d="M233.975 523.309L234.894 513.107H258.392L279.047 542.877L299.117 554.333H269.514L233.975 523.309Z" fill="#FF826E"/>
<path d="M149.099 513.108L128.444 542.878L105.113 556.174C102.605 557.596 101.1 560.272 101.1 563.115V564.285H138.479L166.409 538.697L173.349 564.285H177.196L172.681 513.025H149.099V513.108Z" fill="#0B2464"/>
<path d="M173.433 523.309L172.597 513.107H149.099L128.444 542.877L108.375 554.333H137.977L173.433 523.309Z" fill="#FF826E"/>
<path d="M242.674 320.523L271.273 527.07L230.549 526.736L193.922 316.927L242.674 320.523Z" fill="#0B2464"/>
<path d="M145.922 319.103L133.295 527.323L178.953 526.904C178.953 526.904 195.594 351.214 197.935 352.301C200.277 353.388 199.524 316.092 199.524 316.092L145.922 319.103Z" fill="#0B2464"/>
<path d="M238.576 372.287L151.357 371.869L159.971 335.911L238.241 339.173L238.576 372.287Z" fill="#332A75"/>
<path d="M207.463 184.472L173.094 185.559L177.86 178.116L202.696 178.284L207.463 184.472Z" fill="#0099F2"/>
<path d="M239.24 213.067C239.658 215.994 249.944 230.963 250.78 236.565C251.867 244.091 242.334 262.07 242.334 262.07L243.337 306.306L239.156 324.453L205.289 324.034H140.733L150.349 286.906L132.203 209.555C132.203 209.555 137.137 195.005 151.854 190.656C166.572 186.308 180.37 182.545 180.37 182.545L201.777 183.381C201.777 183.381 213.986 185.221 224.272 187.981C232.968 190.238 237.066 196.928 239.24 213.067Z" fill="#8A7BF5"/>
<path d="M211.394 184.97C211.394 184.97 209.973 194.67 191.994 195.673C174.015 196.677 168.496 188.231 166.238 184.97C172.259 183.799 180.12 182.545 180.12 182.545L202.363 183.13C202.363 183.13 206.126 183.799 211.394 184.97Z" fill="#FF826E"/>
<path d="M209.386 111.05C203.951 105.531 195.505 103.607 187.895 105.029C180.285 106.367 170.836 106.618 165.233 111.97C160.718 116.318 159.463 125.6 157.707 131.621C155.951 137.642 156.537 144.582 160.3 149.6C166.571 158.046 179.616 158.715 188.982 153.865C196.09 150.185 201.526 144.164 206.292 137.976C207.463 136.471 208.466 134.966 209.888 133.711C210.808 132.959 211.811 132.29 212.647 131.454C214.822 129.112 214.989 125.098 214.571 122.088C214.153 117.907 212.313 113.977 209.386 111.05Z" fill="#0B2464"/>
<path d="M177.943 162.31L200.856 172.512L200.354 186.728C197.595 186.31 194.835 188.986 192.076 188.735C187.393 188.317 182.71 185.139 178.027 185.139L177.943 162.31Z" fill="#FF826E"/>
<path d="M177.943 162.31L200.856 172.512L200.354 186.728C197.595 186.31 194.835 188.986 192.076 188.735C187.393 188.317 182.71 185.139 178.027 185.139L177.943 162.31Z" fill="#FF826E"/>
<path d="M200.856 172.512L200.521 182.798C199.518 183.049 198.431 183.132 197.344 183.132C188.814 183.132 181.874 178.115 178.111 163.23C178.027 162.979 177.943 162.478 177.943 162.31L200.856 172.512Z" fill="#E45341"/>
<path d="M211.479 121.501C214.154 124.846 215.743 128.943 215.994 133.292C216.329 139.312 216.579 148.176 215.576 155.786C213.987 168.413 201.862 174.517 197.263 174.685C191.325 174.852 179.953 171.423 176.023 157.626C172.427 144.915 169.5 134.044 169.5 134.044L169.834 132.037C171.256 122.922 178.531 115.814 187.646 114.644L192.831 113.975C199.939 113.055 207.047 115.898 211.479 121.501Z" fill="#FF826E"/>
<path d="M179.7 158.63C179.7 158.63 179.282 162.309 173.344 160.469C167.407 158.63 163.143 144.079 170.083 143.159C176.94 142.156 175.77 146.337 175.77 146.337L179.7 158.63Z" fill="#FF826E"/>
<path d="M201.025 144.747C200.857 147.507 202.195 150.016 204.369 151.604C204.704 151.855 205.122 152.19 205.457 152.691C207.714 155.618 203.115 159.548 199.938 156.287" stroke="#78284B" stroke-width="0.786972" stroke-miterlimit="10"/>
<path d="M202.027 164.231C202.027 164.231 195.086 165.987 190.654 159.297" stroke="#78284B" stroke-width="0.786972" stroke-miterlimit="10"/>
<path d="M189.315 149.514C190.053 149.514 190.652 148.316 190.652 146.838C190.652 145.36 190.053 144.162 189.315 144.162C188.576 144.162 187.977 145.36 187.977 146.838C187.977 148.316 188.576 149.514 189.315 149.514Z" fill="black"/>
<path d="M209.971 150.099C210.71 150.099 211.309 148.901 211.309 147.423C211.309 145.945 210.71 144.747 209.971 144.747C209.232 144.747 208.633 145.945 208.633 147.423C208.633 148.901 209.232 150.099 209.971 150.099Z" fill="black"/>
<path d="M213.317 141.069C213.317 141.069 211.812 136.972 207.213 138.644" stroke="#78284B" stroke-width="0.786972" stroke-miterlimit="10"/>
<path d="M191.991 138.227C191.991 138.227 188.228 136.053 185.803 140.234" stroke="#78284B" stroke-width="0.777857" stroke-miterlimit="10"/>
<path d="M178.95 145.672C177.863 148.264 176.107 151.191 173.347 151.191C171.758 151.191 170.253 150.104 169.417 148.766C168.581 147.428 168.163 145.839 167.912 144.25C166.574 137.226 166.49 129.7 169.501 123.177C170.922 120.083 173.096 117.407 175.772 115.317C178.114 113.561 181.626 111.554 184.636 111.972C185.891 112.139 186.894 112.892 187.061 114.146C187.312 115.986 186.643 118.16 186.309 119.999C185.64 124.097 184.72 128.194 183.633 132.208C182.462 136.222 181.124 140.236 179.619 144.166C179.368 144.668 179.117 145.17 178.95 145.672Z" fill="#0B2464"/>
<path d="M181.624 120.499C188.732 127.523 197.847 132.457 207.631 134.631C212.146 135.635 216.913 136.053 221.261 134.631C230.209 131.704 235.477 121.252 233.972 111.97C232.467 102.687 225.526 94.827 217.164 90.4786C210.307 86.9664 202.279 85.3776 194.753 87.3009C187.31 89.2243 180.621 94.9106 178.53 102.269C176.44 109.628 174.851 116.82 181.624 120.499Z" fill="#0B2464"/>
<path d="M188.399 259.479L184.72 374.041L120.832 370.529L146.504 280.301L129.529 208.887C129.529 208.887 136.386 197.682 140.734 194.42C145.083 191.075 167.493 185.473 169.333 185.473L188.399 259.479Z" fill="#00B5F2"/>
<path d="M178.114 178.029L173.264 188.65L188.4 259.478L161.724 222.182L171.341 211.395L155.369 203.367C155.369 203.283 159.132 182.963 178.114 178.029Z" fill="#79D3F2"/>
<path d="M208.803 258.725L214.155 372.368L258.558 366.766L244.175 306.306L243.255 261.819C243.255 261.819 251.367 243.673 251.952 236.565C252.537 229.457 240.161 213.067 240.161 213.067C240.161 213.067 239.743 198.099 232.05 190.573C226.782 185.388 213.569 185.555 213.569 185.555L208.803 258.725Z" fill="#00B5F2"/>
<path d="M200.689 178.282L207.463 184.47C207.463 184.47 211.226 228.79 208.801 258.643L221.261 218.504L214.153 211.396L227.616 195.843C227.7 195.843 212.898 177.362 200.689 178.282Z" fill="#79D3F2"/>
<path d="M257.972 366.515L259.142 366.348L244.759 306.307L243.839 261.987C244.592 260.231 251.951 243.59 252.536 236.649C253.205 229.374 241.08 213.402 240.578 212.733L239.658 213.486C239.742 213.653 251.951 229.709 251.365 236.566C250.78 243.506 242.752 261.485 242.669 261.653L242.585 261.736L243.505 306.391L257.972 366.515Z" fill="#0099F2"/>
<path d="M182.128 267.174C183.93 267.174 185.39 265.714 185.39 263.913C185.39 262.111 183.93 260.651 182.128 260.651C180.327 260.651 178.867 262.111 178.867 263.913C178.867 265.714 180.327 267.174 182.128 267.174Z" fill="#79D3F2"/>
<path d="M179.871 311.409C181.672 311.409 183.132 309.949 183.132 308.147C183.132 306.346 181.672 304.886 179.871 304.886C178.07 304.886 176.609 306.346 176.609 308.147C176.609 309.949 178.07 311.409 179.871 311.409Z" fill="#C2D1FC"/>
<path d="M177.615 357.236C179.416 357.236 180.876 355.776 180.876 353.975C180.876 352.174 179.416 350.714 177.615 350.714C175.814 350.714 174.354 352.174 174.354 353.975C174.354 355.776 175.814 357.236 177.615 357.236Z" fill="#79D3F2"/>
<path d="M220.565 240.987L246.488 240.987L246.488 236.22L220.565 236.22L220.565 240.987Z" fill="#79D3F2"/>
<path d="M219.628 334.553L245.551 334.553L245.551 329.787L219.628 329.787L219.628 334.553Z" fill="#79D3F2"/>
<path d="M158.381 206.63C167.579 228.456 151.106 237.236 139.399 250.114C132.123 258.058 127.357 260.818 120.5 267.758C106.702 265.417 103.775 257.807 90.1449 253.961C88.6397 253.626 82.7025 261.236 81.1973 260.901C83.7896 250.616 93.9915 235.815 103.859 224.442C114.312 212.317 134.883 198.603 138.813 197.348C151.858 192.916 155.287 199.272 158.381 206.63Z" fill="#00B5F2"/>
<path d="M146.003 371.533L94.4915 322.363C93.6553 321.527 93.6553 320.189 94.4079 319.353L159.383 251.284C160.219 250.448 161.557 250.448 162.393 251.2L213.905 300.37C214.741 301.207 214.741 302.545 213.988 303.381L149.013 371.45C148.261 372.369 146.923 372.369 146.003 371.533Z" fill="#356996"/>
<path d="M99.6718 320.806L147.4 366.358L208.771 302.054L161.042 256.503L99.6718 320.806Z" fill="white"/>
<path d="M190.323 282.723C195.404 282.723 199.522 278.605 199.522 273.525C199.522 268.445 195.404 264.326 190.323 264.326C185.243 264.326 181.125 268.445 181.125 273.525C181.125 278.605 185.243 282.723 190.323 282.723Z" fill="#244766"/>
<path d="M190.324 277.622C192.587 277.622 194.422 275.788 194.422 273.525C194.422 271.262 192.587 269.427 190.324 269.427C188.061 269.427 186.227 271.262 186.227 273.525C186.227 275.788 188.061 277.622 190.324 277.622Z" fill="#142738"/>
<path d="M191.746 294.265L169.586 273.109C167.495 271.186 166.826 268.091 167.914 265.499L170.255 259.311C170.924 257.555 173.182 257.053 174.52 258.391L206.296 288.663C207.634 289.917 207.216 292.175 205.544 292.927L199.523 295.603C196.847 296.774 193.753 296.272 191.746 294.265Z" fill="#244766"/>
<path d="M148.179 283.31C147.929 283.059 147.845 282.808 147.761 282.473L147.678 277.874C147.678 277.205 148.179 276.62 148.848 276.62C149.517 276.62 150.103 277.122 150.103 277.791L150.186 280.968L157.294 279.797C157.963 279.714 158.632 280.132 158.716 280.801C158.8 281.47 158.381 282.139 157.712 282.223L149.183 283.56C148.848 283.644 148.514 283.56 148.179 283.31C148.263 283.31 148.179 283.31 148.179 283.31Z" fill="#DADEF2"/>
<path d="M186.142 315.169L159.215 289.497C158.63 288.911 158.547 287.908 159.132 287.323C159.717 286.737 160.721 286.654 161.306 287.239L188.233 312.911C188.818 313.497 188.901 314.5 188.316 315.085C187.731 315.754 186.727 315.754 186.142 315.169Z" fill="#DADEF2"/>
<path d="M136.806 295.183C136.556 294.932 136.472 294.681 136.388 294.347L136.305 289.747C136.305 289.078 136.806 288.493 137.475 288.493C138.144 288.493 138.73 288.995 138.73 289.664L138.813 292.841L145.921 291.671C146.59 291.587 147.259 292.005 147.343 292.674C147.426 293.343 147.008 294.012 146.339 294.096L137.81 295.434C137.475 295.601 137.141 295.517 136.806 295.183C136.806 295.266 136.806 295.266 136.806 295.183Z" fill="#DADEF2"/>
<path d="M174.771 327.128L147.844 301.456C147.259 300.871 147.175 299.867 147.761 299.282C148.346 298.697 149.35 298.613 149.935 299.198L176.861 324.87C177.447 325.456 177.53 326.459 176.945 327.045C176.36 327.63 175.356 327.714 174.771 327.128Z" fill="#DADEF2"/>
<path d="M125.431 307.144C125.181 306.893 125.097 306.642 125.013 306.308L124.93 301.709C124.93 301.04 125.431 300.454 126.1 300.454C126.769 300.454 127.355 300.956 127.355 301.625L127.438 304.803L134.546 303.632C135.215 303.548 135.884 303.966 135.968 304.635C136.051 305.304 135.633 305.973 134.964 306.057L126.435 307.395C126.1 307.562 125.766 307.395 125.431 307.144Z" fill="#DADEF2"/>
<path d="M163.314 339.003L136.387 313.331C135.802 312.746 135.718 311.742 136.304 311.157C136.889 310.572 137.893 310.488 138.478 311.073L165.404 336.746C165.99 337.331 166.073 338.334 165.488 338.92C164.986 339.589 163.983 339.589 163.314 339.003Z" fill="#DADEF2"/>
<path d="M114.06 319.099C113.809 318.849 113.726 318.598 113.642 318.263L113.559 313.664C113.559 312.995 114.06 312.41 114.729 312.41C115.398 312.41 115.984 312.911 115.984 313.58L116.067 316.758L123.175 315.587C123.844 315.504 124.513 315.922 124.597 316.591C124.68 317.26 124.262 317.929 123.593 318.012L115.064 319.35C114.729 319.434 114.395 319.35 114.06 319.099Z" fill="#DADEF2"/>
<path d="M151.941 350.959L125.014 325.287C124.429 324.701 124.345 323.698 124.931 323.112C125.516 322.527 126.52 322.443 127.105 323.029L154.031 348.701C154.617 349.286 154.7 350.29 154.115 350.875C153.613 351.544 152.61 351.544 151.941 350.959Z" fill="#DADEF2"/>
<path d="M171.257 321.106C176.024 317.594 173.264 315.086 168.832 311.239C164.4 307.392 157.292 301.706 151.857 297.943C140.568 303.546 129.279 309.148 118.324 315.169C122.923 323.281 130.031 333.566 136.638 339.336C143.16 345.106 144.665 344.939 151.522 343.601C157.627 342.43 161.808 340.005 164.735 334.988C168.33 328.8 159.299 319.518 155.62 315.336C159.801 316.925 166.491 324.535 171.257 321.106Z" fill="#FF826E"/>
<path d="M151.86 343.937C148.181 338.92 144.501 333.986 140.738 329.052" stroke="#78284B" stroke-width="0.619141" stroke-miterlimit="10"/>
<path d="M150.102 323.284C153.697 328.719 157.293 334.155 160.638 339.758" stroke="#78284B" stroke-width="0.619141" stroke-miterlimit="10"/>
<path d="M127.19 258.141C138.646 272.441 142.326 282.392 152.862 297.444C138.646 305.221 125.267 314.335 111.553 322.781C102.438 305.471 97.6713 293.848 86.9676 277.374C83.9572 272.775 82.2011 268.594 81.2812 264.58C81.783 250.782 90.5634 246.518 92.0686 246.099C116.904 236.483 123.929 254.378 127.19 258.141Z" fill="#00B5F2"/>
<path d="M107.54 315.504C119.833 307.142 132.878 298.612 147.344 289.498L146.675 288.494C132.209 297.693 119.164 306.222 106.871 314.584L107.54 315.504Z" fill="#0099F2"/>
<path d="M143.108 240.247L169.031 240.247L169.031 235.481L143.108 235.481L143.108 240.247Z" fill="#79D3F2"/>
<path d="M300.621 306.562V373.209H367.268C367.185 336.415 337.415 306.562 300.621 306.562Z" fill="#7499F7"/>
<path d="M18.648 388.426C17.7281 415.101 31.7767 441.275 57.0307 454.488L90.3961 390.934L18.648 388.426Z" fill="#A5DFF2"/>
<path d="M391.353 288.496H338.922V340.927H391.353V288.496Z" fill="#D7DDF2"/>
<path d="M156.875 0H138.479V36.8775H156.875V0Z" fill="#A5DFF2"/>
<path d="M37.6311 527.324C51.8094 527.324 63.3032 515.83 63.3032 501.652C63.3032 487.474 51.8094 475.98 37.6311 475.98C23.4528 475.98 11.959 487.474 11.959 501.652C11.959 515.83 23.4528 527.324 37.6311 527.324Z" fill="#D7DDF2"/>
<path d="M112.138 69.4055C119.25 69.4055 125.016 63.6399 125.016 56.5276C125.016 49.4154 119.25 43.6498 112.138 43.6498C105.025 43.6498 99.2598 49.4154 99.2598 56.5276C99.2598 63.6399 105.025 69.4055 112.138 69.4055Z" fill="#D7DDF2"/>
<path d="M102.438 52.1783C96.2498 52.1783 91.1488 47.161 91.1488 40.8893C91.1488 34.6176 96.1661 29.6002 102.438 29.6002V18.3948C89.9781 18.3948 79.9434 28.4295 79.9434 40.8893C79.9434 53.349 89.9781 63.3837 102.438 63.3837C105.95 63.3837 109.211 62.5475 112.222 61.1259L107.288 51.0076C105.783 51.7602 104.194 52.1783 102.438 52.1783Z" fill="#7499F7"/>
<path d="M48.2508 395.034H64.2227C64.2227 377.39 49.9233 363.006 32.1953 363.006V378.978C41.0593 378.978 48.2508 386.17 48.2508 395.034Z" fill="#7499F7"/>
<path d="M332.235 268.263C332.318 268.096 332.486 268.012 332.569 267.845C332.987 267.343 333.406 266.841 333.824 266.34C333.824 266.256 333.907 266.256 333.907 266.172C334.242 265.671 334.576 265.169 334.911 264.667C334.994 264.5 335.078 264.333 335.162 264.249C335.496 263.747 335.747 263.246 336.081 262.744C336.081 262.66 336.165 262.66 336.165 262.577C336.5 261.991 336.75 261.406 337.085 260.821C337.169 260.653 337.252 260.486 337.336 260.319C337.587 259.817 337.754 259.315 338.005 258.814C338.088 258.646 338.088 258.563 338.172 258.396C338.423 257.81 338.59 257.141 338.841 256.472C338.925 256.305 338.925 256.138 339.008 256.054C339.175 255.552 339.259 254.967 339.426 254.465C339.426 254.298 339.51 254.131 339.51 253.964C339.677 253.295 339.761 252.626 339.844 251.957C339.844 251.873 339.844 251.706 339.928 251.622C340.012 251.037 340.095 250.451 340.095 249.866C340.095 249.699 340.095 249.532 340.179 249.281C340.263 248.612 340.263 247.859 340.263 247.19H324.291C324.291 253.545 320.611 258.981 315.176 261.573L322.116 276.04C322.702 275.789 323.287 275.455 323.873 275.12C324.04 275.036 324.207 274.953 324.374 274.869C324.876 274.618 325.378 274.284 325.796 273.949C325.879 273.866 325.963 273.866 326.047 273.782C326.548 273.448 327.134 273.03 327.636 272.611C327.803 272.528 327.886 272.444 328.054 272.277C328.472 271.942 328.89 271.608 329.308 271.273C329.392 271.19 329.559 271.106 329.642 270.939C330.144 270.521 330.562 270.019 331.064 269.601C331.148 269.517 331.231 269.434 331.315 269.35C331.482 269.099 331.817 268.681 332.235 268.263Z" fill="#A5DFF2"/>
<path d="M175.722 160.662L171.879 156.819L168.035 160.662L171.879 164.505L175.722 160.662Z" fill="#79D3F2"/>
</svg>
