<svg width="21" height="22" viewBox="0 0 21 22" fill="none" xmlns="http://www.w3.org/2000/svg">
<path d="M5.44838 17.5388H9.92992L12.8932 20.4987C13.0524 20.6589 13.2418 20.7859 13.4503 20.8727C13.6588 20.9594 13.8825 21.004 14.1083 21.004C14.2569 21.0038 14.4049 20.9848 14.5487 20.9476C14.8394 20.8742 15.1057 20.7255 15.3206 20.5165C15.5356 20.3074 15.6916 20.0454 15.7731 19.7569L20.9999 1.98146L5.44838 17.5388Z" fill="#F27661"/>
<path d="M4.24084 16.3599L19.8066 0.791626L2.04386 6.03019C1.75463 6.11244 1.49194 6.26888 1.28184 6.48399C1.07174 6.6991 0.921537 6.96541 0.846128 7.25649C0.770719 7.54757 0.772728 7.85331 0.851954 8.14338C0.93118 8.43345 1.08487 8.69776 1.29778 8.91009L4.24084 11.8506V16.3599Z" fill="#F27661"/>
</svg>
