<svg width="11" height="11" viewBox="0 0 11 11" fill="none" xmlns="http://www.w3.org/2000/svg">
<g clip-path="url(#clip0_244_188470)">
<path d="M0.537167 8.76275C0.193326 9.10648 0.000103835 9.57272 0 10.0589L0 10.9999H0.940958C1.42715 10.9998 1.89339 10.8065 2.23713 10.4627L8.35267 4.34717L6.65271 2.64722L0.537167 8.76275Z" fill="#FF7C52"/>
<path d="M10.6081 0.391978C10.4965 0.280253 10.364 0.19162 10.2181 0.131148C10.0722 0.0706765 9.91583 0.0395508 9.75791 0.0395508C9.59999 0.0395508 9.44361 0.0706765 9.29773 0.131148C9.15184 0.19162 9.01931 0.280253 8.9077 0.391978L7.30078 1.99935L9.00074 3.69931L10.6081 2.0924C10.7198 1.98079 10.8085 1.84825 10.8689 1.70237C10.9294 1.55648 10.9605 1.40011 10.9605 1.24219C10.9605 1.08427 10.9294 0.927892 10.8689 0.782008C10.8085 0.636123 10.7198 0.503587 10.6081 0.391978Z" fill="#FF7C52"/>
</g>
<defs>
<clipPath id="clip0_244_188470">
<rect width="11" height="11" fill="white"/>
</clipPath>
</defs>
</svg>
