<svg width="30" height="30" viewBox="0 0 30 30" fill="none" xmlns="http://www.w3.org/2000/svg">
<rect x="0.564516" y="0.564516" width="28.871" height="28.871" rx="3.04839" fill="#FF4B55"/>
<g clip-path="url(#clip0_244_187848)">
<rect width="18.0645" height="18.0645" transform="translate(5.96777 5.96777)" fill="white" fill-opacity="0.01"/>
<g clip-path="url(#clip1_244_187848)">
<path fill-rule="evenodd" clip-rule="evenodd" d="M21.7737 8.97755H19.4404C19.2657 8.12807 18.8035 7.3648 18.1317 6.81637C17.4598 6.26794 16.6195 5.96789 15.7522 5.9668H14.2468C13.3796 5.96789 12.5392 6.26794 11.8674 6.81637C11.1956 7.3648 10.7334 8.12807 10.5587 8.97755H8.22534C8.02572 8.97755 7.83427 9.05685 7.69311 9.19801C7.55196 9.33916 7.47266 9.53061 7.47266 9.73024C7.47266 9.92986 7.55196 10.1213 7.69311 10.2625C7.83427 10.4036 8.02572 10.4829 8.22534 10.4829H8.97803V20.2679C8.97923 21.2656 9.37612 22.2222 10.0816 22.9277C10.7872 23.6332 11.7437 24.0301 12.7415 24.0313H17.2576C18.2554 24.0301 19.2119 23.6332 19.9174 22.9277C20.623 22.2222 21.0198 21.2656 21.021 20.2679V10.4829H21.7737C21.9734 10.4829 22.1648 10.4036 22.306 10.2625C22.4471 10.1213 22.5264 9.92986 22.5264 9.73024C22.5264 9.53061 22.4471 9.33916 22.306 9.19801C22.1648 9.05685 21.9734 8.97755 21.7737 8.97755ZM14.2468 7.47217H15.7522C16.2191 7.47274 16.6744 7.61772 17.0556 7.88724C17.4368 8.15675 17.7253 8.5376 17.8816 8.97755H12.1175C12.2737 8.5376 12.5623 8.15675 12.9435 7.88724C13.3247 7.61772 13.78 7.47274 14.2468 7.47217ZM19.5157 20.2679C19.5157 20.8667 19.2778 21.4411 18.8543 21.8646C18.4308 22.288 17.8565 22.5259 17.2576 22.5259H12.7415C12.1426 22.5259 11.5682 22.288 11.1448 21.8646C10.7213 21.4411 10.4834 20.8667 10.4834 20.2679V10.4829H19.5157V20.2679ZM13.4945 19.5147C13.6942 19.5147 13.8856 19.4354 14.0268 19.2943C14.1679 19.1531 14.2472 18.9616 14.2472 18.762V14.2459C14.2472 14.0463 14.1679 13.8548 14.0268 13.7137C13.8856 13.5725 13.6942 13.4932 13.4945 13.4932C13.2949 13.4932 13.1035 13.5725 12.9623 13.7137C12.8211 13.8548 12.7418 14.0463 12.7418 14.2459V18.762C12.7418 18.9616 12.8211 19.1531 12.9623 19.2943C13.1035 19.4354 13.2949 19.5147 13.4945 19.5147ZM17.0379 19.2943C16.8967 19.4354 16.7053 19.5147 16.5057 19.5147C16.306 19.5147 16.1146 19.4354 15.9734 19.2943C15.8323 19.1531 15.753 18.9616 15.753 18.762V14.2459C15.753 14.0463 15.8323 13.8548 15.9734 13.7137C16.1146 13.5725 16.306 13.4932 16.5057 13.4932C16.7053 13.4932 16.8967 13.5725 17.0379 13.7137C17.179 13.8548 17.2583 14.0463 17.2583 14.2459V18.762C17.2583 18.9616 17.179 19.1531 17.0379 19.2943Z" fill="white"/>
</g>
</g>
<rect x="0.564516" y="0.564516" width="28.871" height="28.871" rx="3.04839" stroke="#FF4B55" stroke-width="1.12903"/>
<defs>
<clipPath id="clip0_244_187848">
<rect width="18.0645" height="18.0645" fill="white" transform="translate(5.96777 5.96777)"/>
</clipPath>
<clipPath id="clip1_244_187848">
<rect width="18.0645" height="18.0645" fill="white" transform="translate(5.96777 5.96777)"/>
</clipPath>
</defs>
</svg>
