<svg width="22" height="20" viewBox="0 0 22 20" fill="none" xmlns="http://www.w3.org/2000/svg">
<path d="M19.6903 13.6426C20.1911 13.6426 20.6569 13.7956 21.0435 14.057L18.3768 1.34629C18.2208 0.602582 17.4785 0 16.7185 0H4.56742C3.80775 0 3.06507 0.602852 2.90911 1.34629L0.242653 14.057C0.629253 13.7953 1.09503 13.6426 1.59582 13.6426H19.6903Z" fill="#00B38B"/>
<path d="M1.59599 20.0001H19.6905C20.5718 20.0001 21.2864 19.2855 21.2864 18.4042V16.0638C21.2864 15.7504 21.1948 15.4593 21.0387 15.2127C20.7559 14.7656 20.2584 14.4682 19.6905 14.4682H1.59599C1.02812 14.4682 0.530651 14.7659 0.24777 15.2127C0.0917633 15.4593 0.000137329 15.7507 0.000137329 16.0638V18.4042C0.000137329 19.2857 0.714712 20.0001 1.59599 20.0001ZM18.5308 17.0163H15.0548C14.8268 17.0163 14.6421 16.8318 14.6421 16.6036C14.6421 16.3756 14.8267 16.1909 15.0548 16.1909H18.5308C18.7589 16.1909 18.9435 16.3755 18.9435 16.6036C18.9435 16.8317 18.7586 17.0163 18.5308 17.0163Z" fill="#00B38B"/>
</svg>
