<svg width="20" height="20" viewBox="0 0 20 20" fill="none" xmlns="http://www.w3.org/2000/svg">
<g clip-path="url(#clip0_945_251136)">
<rect width="18.0645" height="18.0645" transform="translate(0.967773 0.967773)" fill="white" fill-opacity="0.01"/>
<g clip-path="url(#clip1_945_251136)">
<path fill-rule="evenodd" clip-rule="evenodd" d="M16.7737 3.97755H14.4404C14.2657 3.12807 13.8035 2.3648 13.1317 1.81637C12.4598 1.26794 11.6195 0.967892 10.7522 0.966797H9.24685C8.3796 0.967892 7.53924 1.26794 6.86741 1.81637C6.19559 2.3648 5.73337 3.12807 5.55868 3.97755H3.22534C3.02572 3.97755 2.83427 4.05685 2.69311 4.19801C2.55196 4.33916 2.47266 4.53061 2.47266 4.73024C2.47266 4.92986 2.55196 5.12131 2.69311 5.26247C2.83427 5.40362 3.02572 5.48293 3.22534 5.48293H3.97803V15.2679C3.97923 16.2656 4.37612 17.2222 5.08164 17.9277C5.78716 18.6332 6.74371 19.0301 7.74147 19.0313H12.2576C13.2554 19.0301 14.2119 18.6332 14.9174 17.9277C15.623 17.2222 16.0198 16.2656 16.021 15.2679V5.48293H16.7737C16.9734 5.48293 17.1648 5.40362 17.306 5.26247C17.4471 5.12131 17.5264 4.92986 17.5264 4.73024C17.5264 4.53061 17.4471 4.33916 17.306 4.19801C17.1648 4.05685 16.9734 3.97755 16.7737 3.97755ZM9.24685 2.47217H10.7522C11.2191 2.47274 11.6744 2.61772 12.0556 2.88724C12.4368 3.15675 12.7253 3.5376 12.8816 3.97755H7.11749C7.27374 3.5376 7.56226 3.15675 7.94348 2.88724C8.32471 2.61772 8.77998 2.47274 9.24685 2.47217ZM14.5157 15.2679C14.5157 15.8667 14.2778 16.4411 13.8543 16.8646C13.4308 17.288 12.8565 17.5259 12.2576 17.5259H7.74147C7.1426 17.5259 6.56825 17.288 6.14478 16.8646C5.72131 16.4411 5.48341 15.8667 5.48341 15.2679V5.48293H14.5157V15.2679ZM8.49453 14.5147C8.69415 14.5147 8.8856 14.4354 9.02676 14.2943C9.16791 14.1531 9.24721 13.9616 9.24721 13.762V9.2459C9.24721 9.04628 9.16791 8.85483 9.02676 8.71368C8.8856 8.57252 8.69415 8.49322 8.49453 8.49322C8.2949 8.49322 8.10345 8.57252 7.9623 8.71368C7.82114 8.85483 7.74184 9.04628 7.74184 9.2459V13.762C7.74184 13.9616 7.82114 14.1531 7.9623 14.2943C8.10345 14.4354 8.2949 14.5147 8.49453 14.5147ZM12.0379 14.2943C11.8967 14.4354 11.7053 14.5147 11.5057 14.5147C11.306 14.5147 11.1146 14.4354 10.9734 14.2943C10.8323 14.1531 10.753 13.9616 10.753 13.762V9.2459C10.753 9.04628 10.8323 8.85483 10.9734 8.71368C11.1146 8.57252 11.306 8.49322 11.5057 8.49322C11.7053 8.49322 11.8967 8.57252 12.0379 8.71368C12.179 8.85483 12.2583 9.04628 12.2583 9.2459V13.762C12.2583 13.9616 12.179 14.1531 12.0379 14.2943Z" fill="white"/>
</g>
</g>
<defs>
<clipPath id="clip0_945_251136">
<rect width="18.0645" height="18.0645" fill="white" transform="translate(0.967773 0.967773)"/>
</clipPath>
<clipPath id="clip1_945_251136">
<rect width="18.0645" height="18.0645" fill="white" transform="translate(0.967773 0.967773)"/>
</clipPath>
</defs>
</svg>
