<svg width="15" height="15" viewBox="0 0 15 15" fill="none" xmlns="http://www.w3.org/2000/svg">
<path d="M11.491 4.60806C11.3805 4.57455 11.2799 4.51439 11.198 4.43287C11.1162 4.35135 11.0556 4.25097 11.0217 4.14055C10.8303 3.49183 10.5092 2.88869 10.078 2.36761C9.6468 1.84654 9.11433 1.41838 8.51286 1.10903C7.91138 0.799682 7.25339 0.615584 6.57871 0.567875C5.90403 0.520166 5.22668 0.609838 4.58766 0.831465C3.94863 1.05309 3.36121 1.40207 2.86095 1.85727C2.36069 2.31247 1.95799 2.86444 1.67721 3.47978C1.39643 4.09511 1.24341 4.76101 1.22742 5.43719C1.21143 6.11337 1.33279 6.78576 1.58416 7.41368C1.6417 7.54602 1.65384 7.69368 1.61868 7.83364C1.58352 7.9736 1.50304 8.098 1.38979 8.18743C0.892117 8.5568 0.503565 9.05385 0.265257 9.62597C0.0269476 10.1981 -0.052253 10.824 0.0360372 11.4374C0.17382 12.2667 0.604365 13.0191 1.24953 13.5581C1.89469 14.0971 2.7117 14.3869 3.55229 14.3749H8.75041V9.63368L7.94229 10.4418C7.82441 10.5557 7.66653 10.6187 7.50266 10.6172C7.33879 10.6158 7.18203 10.5501 7.06615 10.4342C6.95027 10.3183 6.88454 10.1616 6.88312 9.99768C6.88169 9.83381 6.94469 9.67593 7.05854 9.55806L8.04979 8.5668C8.4014 8.2153 8.87823 8.01783 9.37541 8.01783C9.87259 8.01783 10.3494 8.2153 10.701 8.5668L11.6923 9.55806C11.752 9.61571 11.7996 9.68468 11.8324 9.76093C11.8651 9.83718 11.8823 9.91919 11.8831 10.0022C11.8838 10.0852 11.868 10.1675 11.8366 10.2443C11.8051 10.3211 11.7587 10.3909 11.7 10.4496C11.6414 10.5082 11.5716 10.5546 11.4948 10.5861C11.4179 10.6175 11.3356 10.6333 11.2527 10.6326C11.1697 10.6319 11.0877 10.6146 11.0114 10.5819C10.9352 10.5491 10.8662 10.5015 10.8085 10.4418L10.0004 9.63368V14.3668C11.2444 14.3419 12.4367 13.8643 13.3538 13.0233C14.2709 12.1824 14.8499 11.0359 14.9823 9.79868C15.0816 8.6647 14.7892 7.53094 14.1539 6.5864C13.5186 5.64186 12.5788 4.94361 11.491 4.60806Z" fill="#696C81"/>
</svg>
