<svg width="20" height="20" viewBox="0 0 20 20" fill="none" xmlns="http://www.w3.org/2000/svg">
<path d="M10.0005 7.49967H10.0088M12.5005 15.833L14.1672 17.4997L17.5005 14.1663M7.6429 12.4997C7.9861 11.5287 8.91213 10.833 10.0006 10.833C11.0892 10.833 12.0152 11.5287 12.3584 12.4997M16.6663 10.833V5.99967C16.6663 5.06625 16.6663 4.59954 16.4847 4.24302C16.3249 3.92942 16.0699 3.67445 15.7563 3.51466C15.3998 3.33301 14.9331 3.33301 13.9997 3.33301H5.99967C5.06625 3.33301 4.59954 3.33301 4.24302 3.51466C3.92942 3.67445 3.67445 3.92942 3.51466 4.24302C3.33301 4.59954 3.33301 5.06625 3.33301 5.99967V13.9997C3.33301 14.9331 3.33301 15.3998 3.51466 15.7563C3.67445 16.0699 3.92942 16.3249 4.24302 16.4847C4.59954 16.6663 5.06625 16.6663 5.99967 16.6663H9.16716M10.8338 7.49967C10.8338 7.95991 10.4607 8.33301 10.0005 8.33301C9.54025 8.33301 9.16716 7.95991 9.16716 7.49967C9.16716 7.03944 9.54025 6.66634 10.0005 6.66634C10.4607 6.66634 10.8338 7.03944 10.8338 7.49967Z"  stroke-width="1.5" stroke-linecap="round" stroke-linejoin="round"/>
</svg>
