<svg width="20" height="23" viewBox="0 0 20 23" fill="none" xmlns="http://www.w3.org/2000/svg">
<g clip-path="url(#clip0_9_109)">
<path d="M2.13796 13.5583C7.55226 14.5514 12.9667 14.518 18.381 13.5583V5.5978C18.381 5.50711 18.3532 5.41892 18.3018 5.34642L14.7362 0.318746C14.6993 0.266717 14.6515 0.224485 14.5965 0.195392C14.5415 0.166299 14.4808 0.151143 14.4193 0.151123H3.32648C3.01127 0.15115 2.70898 0.283583 2.4861 0.519295C2.26321 0.755008 2.13799 1.07469 2.13796 1.40804V11.0445C2.13796 11.6667 2 12.1941 2 12.6145C2 13.1957 2.13796 13.5583 2.13796 13.5583Z" fill="white"/>
<path d="M-0.285706 12.4302V21.5778C-0.28568 21.9149 -0.160634 22.2382 0.0619314 22.4765C0.284496 22.7148 0.586352 22.8488 0.901106 22.8488H19.0989C19.4137 22.8487 19.7155 22.7148 19.938 22.4764C20.1606 22.2381 20.2856 21.9149 20.2857 21.5778V14.7994C20.2857 14.4624 20.1607 14.1391 19.9381 13.9008C19.7155 13.6624 19.4137 13.5285 19.0989 13.5285H1.29674C0.792014 13.5285 -0.285706 12.4302 -0.285706 12.4302Z" fill="#1FB35B"/>
<path d="M1.04763 13.9186C0.641868 13.9186 0.345654 13.7349 0.127628 13.5087C-0.0774922 13.2958 -0.285706 12.9206 -0.285706 12.4303C-0.285706 12.1156 -0.145226 11.6569 0.104801 11.3778C0.354828 11.0987 0.694028 10.9419 1.04763 10.9419H2.38096V13.9186H1.04763Z" fill="#198043"/>
<path d="M5.80957 5.83896H10.762C10.9722 5.83896 11.1429 5.64842 11.1429 5.41368C11.1429 5.17895 10.9722 4.9884 10.762 4.9884H5.80957C5.59929 4.9884 5.42859 5.17895 5.42859 5.41368C5.42859 5.64842 5.59929 5.83896 5.80957 5.83896ZM5.80957 8.39043H14.5714C14.7817 8.39043 14.9524 8.19988 14.9524 7.96515C14.9524 7.73041 14.7817 7.53987 14.5714 7.53987H5.80957C5.59929 7.53987 5.42859 7.73041 5.42859 7.96515C5.42859 8.19988 5.59929 8.39043 5.80957 8.39043ZM5.80957 10.9419H14.5714C14.7817 10.9419 14.9524 10.7513 14.9524 10.5166C14.9524 10.2819 14.7817 10.0913 14.5714 10.0913H5.80957C5.59929 10.0913 5.42859 10.2819 5.42859 10.5166C5.42859 10.7513 5.59929 10.9419 5.80957 10.9419Z" fill="#1FB35B"/>
<path d="M12.1911 16.3319L13.7641 20.3626C13.7933 20.4375 13.8436 20.5017 13.9087 20.5469C13.9738 20.5921 14.0506 20.6163 14.1292 20.6163C14.2078 20.6163 14.2847 20.5921 14.3497 20.5469C14.4148 20.5017 14.4652 20.4375 14.4943 20.3626L16.0673 16.3319C16.106 16.2326 16.1047 16.1217 16.0636 16.0234C16.0225 15.9252 15.945 15.8477 15.8482 15.8079C15.7513 15.7683 15.6431 15.7697 15.5473 15.8118C15.4514 15.8539 15.3758 15.9333 15.337 16.0325L14.1292 19.1276L12.9213 16.0325C12.8407 15.8259 12.6117 15.7253 12.4102 15.8079C12.2087 15.8906 12.1105 16.1253 12.1911 16.3319ZM6.09578 15.7791H5.87107C4.78516 15.7791 3.90491 16.6814 3.90491 17.7945V18.6007C3.90491 19.7137 4.78516 20.616 5.87107 20.616H6.09578C6.43928 20.616 6.77556 20.5148 7.06456 20.3245C7.35357 20.1342 7.58315 19.8628 7.72596 19.5426C7.76664 19.4515 7.77466 19.4343 7.8008 19.3749C7.84401 19.282 7.85056 19.1756 7.81909 19.078C7.78761 18.9803 7.72053 18.8988 7.63187 18.8506C7.38535 18.7236 7.16168 18.8644 7.08552 19.0397C7.06239 19.0929 7.01068 19.2075 7.01068 19.2075C6.93051 19.3872 6.80166 19.5395 6.63947 19.6463C6.47727 19.7531 6.28856 19.8099 6.09578 19.8099H5.87107C5.21949 19.8099 4.69135 19.2684 4.69135 18.6007V17.7945C4.69135 17.1267 5.21949 16.5852 5.87107 16.5852H6.09578C6.28856 16.5852 6.47727 16.642 6.63947 16.7488C6.80166 16.8556 6.93051 17.0079 7.01068 17.1876C7.01068 17.1876 7.05862 17.2977 7.08552 17.3555C7.20368 17.6093 7.48303 17.6454 7.65971 17.5277C7.78381 17.4449 7.90103 17.245 7.8008 17.0203L7.72596 16.8525C7.58315 16.5323 7.35357 16.2609 7.06456 16.0706C6.77556 15.8803 6.43928 15.7791 6.09578 15.7791ZM8.42728 19.2078V19.4076C8.4273 19.728 8.55151 20.0354 8.77258 20.262C8.99365 20.4886 9.29349 20.616 9.60615 20.616H10.4925C10.6474 20.616 10.8007 20.5848 10.9437 20.524C11.0868 20.4633 11.2167 20.3743 11.3262 20.2621C11.4357 20.1499 11.5225 20.0166 11.5818 19.87C11.641 19.7234 11.6715 19.5663 11.6715 19.4076V19.2472C11.6715 18.7527 11.3778 18.3081 10.9299 18.1244L9.49997 17.5382C9.41547 17.5036 9.34304 17.4437 9.29201 17.3665C9.24099 17.2892 9.21372 17.1981 9.21372 17.1048V16.9883C9.21372 16.8814 9.25515 16.7789 9.32888 16.7033C9.40261 16.6277 9.50262 16.5853 9.6069 16.5852H10.4918C10.5434 16.5852 10.5946 16.5956 10.6423 16.6159C10.69 16.6361 10.7334 16.6658 10.7699 16.7032C10.8064 16.7407 10.8354 16.7851 10.8551 16.8341C10.8749 16.883 10.885 16.9354 10.885 16.9883V17.1874C10.885 17.3012 10.934 17.4041 10.9834 17.4564C11.0204 17.4991 11.0658 17.5334 11.1166 17.557C11.1674 17.5805 11.2225 17.5928 11.2782 17.593C11.4696 17.593 11.6715 17.4415 11.6715 17.1874V16.9883C11.6715 16.6676 11.5472 16.3601 11.3259 16.1333C11.1047 15.9066 10.8047 15.7791 10.4918 15.7791H9.607C9.29412 15.7791 8.99405 15.9065 8.77281 16.1333C8.55157 16.3601 8.42728 16.6676 8.42728 16.9883V17.1048C8.42728 17.6253 8.73646 18.0934 9.20787 18.2867L10.6378 18.873C10.7108 18.9029 10.7733 18.9545 10.8174 19.0212C10.8614 19.0879 10.885 19.1666 10.885 19.2472V19.4076C10.8849 19.5142 10.8436 19.6165 10.77 19.692C10.6964 19.7674 10.5966 19.8098 10.4925 19.8099H9.60615C9.55461 19.8099 9.50357 19.7995 9.45596 19.7793C9.40834 19.7591 9.36508 19.7295 9.32863 19.6921C9.29219 19.6548 9.26329 19.6104 9.24357 19.5616C9.22385 19.5128 9.21371 19.4605 9.21372 19.4077V19.2077C9.21372 18.9419 9.00232 18.802 8.82734 18.802C8.66143 18.802 8.42728 18.9338 8.42728 19.2053V19.2078Z" fill="white"/>
</g>
<defs>
<clipPath id="clip0_9_109">
<rect width="20" height="23" fill="white"/>
</clipPath>
</defs>
</svg>
