<svg width="20" height="20" viewBox="0 0 20 20" fill="none" xmlns="http://www.w3.org/2000/svg">
<path d="M3.33301 4.66683C3.33301 4.20012 3.33301 3.96676 3.42384 3.7885C3.50373 3.6317 3.63121 3.50422 3.78802 3.42432C3.96628 3.3335 4.19963 3.3335 4.66634 3.3335H6.99967C7.46638 3.3335 7.69974 3.3335 7.878 3.42432C8.0348 3.50422 8.16229 3.6317 8.24218 3.7885C8.33301 3.96676 8.33301 4.20012 8.33301 4.66683V8.66683C8.33301 9.13354 8.33301 9.36689 8.24218 9.54515C8.16229 9.70196 8.0348 9.82944 7.878 9.90933C7.69974 10.0002 7.46638 10.0002 6.99967 10.0002H4.66634C4.19963 10.0002 3.96628 10.0002 3.78802 9.90933C3.63121 9.82944 3.50373 9.70196 3.42384 9.54515C3.33301 9.36689 3.33301 9.13354 3.33301 8.66683V4.66683Z"  stroke-width="2" stroke-linecap="round" stroke-linejoin="round"/>
<path d="M11.6663 11.3335C11.6663 10.8668 11.6663 10.6334 11.7572 10.4552C11.8371 10.2984 11.9645 10.1709 12.1213 10.091C12.2996 10.0002 12.533 10.0002 12.9997 10.0002H15.333C15.7997 10.0002 16.0331 10.0002 16.2113 10.091C16.3681 10.1709 16.4956 10.2984 16.5755 10.4552C16.6663 10.6334 16.6663 10.8668 16.6663 11.3335V15.3335C16.6663 15.8002 16.6663 16.0336 16.5755 16.2118C16.4956 16.3686 16.3681 16.4961 16.2113 16.576C16.0331 16.6668 15.7997 16.6668 15.333 16.6668H12.9997C12.533 16.6668 12.2996 16.6668 12.1213 16.576C11.9645 16.4961 11.8371 16.3686 11.7572 16.2118C11.6663 16.0336 11.6663 15.8002 11.6663 15.3335V11.3335Z"  stroke-width="2" stroke-linecap="round" stroke-linejoin="round"/>
<path d="M3.33301 14.6668C3.33301 14.2001 3.33301 13.9668 3.42384 13.7885C3.50373 13.6317 3.63121 13.5042 3.78802 13.4243C3.96628 13.3335 4.19963 13.3335 4.66634 13.3335H6.99967C7.46638 13.3335 7.69974 13.3335 7.878 13.4243C8.0348 13.5042 8.16229 13.6317 8.24218 13.7885C8.33301 13.9668 8.33301 14.2001 8.33301 14.6668V15.3335C8.33301 15.8002 8.33301 16.0336 8.24218 16.2118C8.16229 16.3686 8.0348 16.4961 7.878 16.576C7.69974 16.6668 7.46638 16.6668 6.99967 16.6668H4.66634C4.19963 16.6668 3.96628 16.6668 3.78802 16.576C3.63121 16.4961 3.50373 16.3686 3.42384 16.2118C3.33301 16.0336 3.33301 15.8002 3.33301 15.3335V14.6668Z"  stroke-width="2" stroke-linecap="round" stroke-linejoin="round"/>
<path d="M11.6663 4.66683C11.6663 4.20012 11.6663 3.96676 11.7572 3.7885C11.8371 3.6317 11.9645 3.50422 12.1213 3.42432C12.2996 3.3335 12.533 3.3335 12.9997 3.3335H15.333C15.7997 3.3335 16.0331 3.3335 16.2113 3.42432C16.3681 3.50422 16.4956 3.6317 16.5755 3.7885C16.6663 3.96676 16.6663 4.20012 16.6663 4.66683V5.3335C16.6663 5.80021 16.6663 6.03356 16.5755 6.21182C16.4956 6.36862 16.3681 6.49611 16.2113 6.576C16.0331 6.66683 15.7997 6.66683 15.333 6.66683H12.9997C12.533 6.66683 12.2996 6.66683 12.1213 6.576C11.9645 6.49611 11.8371 6.36862 11.7572 6.21182C11.6663 6.03356 11.6663 5.80021 11.6663 5.3335V4.66683Z"  stroke-width="2" stroke-linecap="round" stroke-linejoin="round"/>
</svg>
