<svg width="27" height="27" viewBox="0 0 27 27" fill="none" xmlns="http://www.w3.org/2000/svg">
<path d="M21.8068 26.581H4.19341V1.4194C4.19341 1.3081 4.2375 1.2015 4.3162 1.1228C4.3948 1.0442 4.50151 1 4.61271 1H12.5807L13.4194 1.9136L14.2582 1H21.8068C21.918 1 22.0247 1.0442 22.1033 1.1228C22.182 1.2015 22.2262 1.3081 22.2262 1.4194V26.162C22.2262 26.273 22.182 26.38 22.1033 26.459C22.0247 26.537 21.918 26.581 21.8068 26.581Z" fill="#D82E3D"/>
<path d="M14.2576 24.904V1H13.4189L12.9995 26.162H5.87031C5.17551 26.162 4.61221 25.599 4.61221 24.904V1H4.19281C4.08161 1 3.97491 1.0442 3.89631 1.1228C3.81761 1.2015 3.77341 1.3081 3.77341 1.4194V26.581C3.77341 26.693 3.81761 26.799 3.89631 26.878C3.97491 26.957 4.08161 27.001 4.19281 27.001H12.5802L12.9982 26.664L13.4189 27.001H21.8062C21.9175 27.001 22.0241 26.957 22.1028 26.878C22.1814 26.799 22.2256 26.693 22.2256 26.581V26.162H15.5157C14.8209 26.162 14.2576 25.599 14.2576 24.904Z" fill="#C9C5C9"/>
<path d="M12.5801 1H13.4188V27.001H12.5801V1Z" fill="#B8B2B8"/>
<path d="M10.896 13.6692L8.2241 11.5911C7.9486 11.3768 7.5472 11.5731 7.5472 11.9221V12.7421H0.837299C0.726099 12.7421 0.619398 12.7863 0.540798 12.8649C0.462198 12.9436 0.417999 13.0503 0.417999 13.1615V14.8623H7.5472L8.386 16.2835L10.8959 14.3313C11.1118 14.1634 11.1118 13.8371 10.896 13.6692Z" fill="#9898A6"/>
<path d="M0.419399 15.2585H7.5486V16.0785C7.5486 16.4275 7.95 16.6238 8.2255 16.4096L8.3874 16.2837V15.2586C8.3874 14.7953 8.0118 14.4198 7.5486 14.4198H1.6775C1.2142 14.4198 0.838699 14.0443 0.838699 13.5811V12.7424H0.419399C0.308099 12.7424 0.201499 12.7866 0.122799 12.8652C0.0441989 12.9438 0 13.0505 0 13.1617V14.8392C0 14.8943 0.0107985 14.9488 0.0318985 14.9997C0.0529985 15.0506 0.0838989 15.0968 0.122799 15.1357C0.161799 15.1747 0.208 15.2055 0.2589 15.2266C0.3098 15.2477 0.364299 15.2585 0.419399 15.2585Z" fill="#9898A6"/>
<path d="M18.4536 12.7421V11.9221C18.4536 11.5731 18.0522 11.3768 17.7768 11.591L15.4766 13.3801L15.8241 14.2447L17.1697 14.839H25.5829C25.638 14.839 25.6925 14.8281 25.7434 14.807C25.7943 14.786 25.8405 14.7551 25.8795 14.7161C25.9184 14.6772 25.9493 14.631 25.9704 14.5801C25.9914 14.5292 26.0023 14.4747 26.0023 14.4196V13.1615C26.0023 13.1064 25.9914 13.0519 25.9704 13.001C25.9493 12.9501 25.9184 12.9039 25.8795 12.865C25.8405 12.826 25.7943 12.7951 25.7434 12.7741C25.6925 12.753 25.638 12.7421 25.5829 12.7421H18.4536Z" fill="#9898A6"/>
<path d="M16.2435 13.978L15.4749 13.3802L15.1033 13.6693C14.8874 13.8372 14.8874 14.1635 15.1033 14.3314L17.7752 16.4095C18.0506 16.6238 18.452 16.4274 18.452 16.0784V15.2585H25.5812C25.6925 15.2585 25.7991 15.2143 25.8778 15.1356C25.9564 15.057 26.0006 14.9503 26.0006 14.8391V14.4197H17.5308C17.0645 14.4197 16.6115 14.2643 16.2435 13.978Z" fill="#9898A6"/>
<path fill-rule="evenodd" clip-rule="evenodd" d="M9 5.6567L14.6569 -9.91821e-05L20.3137 5.6567L14.6569 11.3136L9 5.6567Z" fill="#171A1D"/>
</svg>
