<svg width="29" height="30" viewBox="0 0 29 30" fill="none" xmlns="http://www.w3.org/2000/svg">
<path d="M14.868 27.559C22.309 27.559 28.341 21.527 28.341 14.086C28.341 6.6449 22.309 0.612801 14.868 0.612801C7.42701 0.612801 1.39499 6.6449 1.39499 14.086C1.39499 21.527 7.42701 27.559 14.868 27.559Z" fill="#0EAA8E"/>
<path d="M18.175 29.412V27.773C24.35 26.282 28.95 20.711 28.95 14.0837C28.95 6.3176 22.633 0 14.867 0C12.925 0 11.045 0.387502 9.27899 1.1518C8.96899 1.286 8.82599 1.6454 8.95999 1.955C9.09499 2.2647 9.45401 2.4075 9.76401 2.2733C11.19 1.6563 12.699 1.3077 14.256 1.2362V3.5334C14.256 3.8711 14.529 4.1439 14.867 4.1439C15.204 4.1439 15.477 3.8711 15.477 3.5334V1.2384C18.565 1.3835 21.371 2.6219 23.516 4.5726L21.897 6.1921C21.658 6.4302 21.658 6.8178 21.897 7.0559C22.011 7.1707 22.167 7.2356 22.327 7.2356C22.49 7.2356 22.646 7.1707 22.758 7.0559L24.378 5.4365C26.331 7.582 27.567 10.388 27.712 13.4753H25.415C25.077 13.4753 24.804 13.7481 24.804 14.0859C24.804 14.4236 25.077 14.6964 25.415 14.6964H27.712C27.567 17.7838 26.329 20.5897 24.378 22.735L22.758 21.1158C22.52 20.8777 22.133 20.8777 21.894 21.1158C21.656 21.354 21.656 21.7415 21.894 21.9797L23.514 23.599C21.368 25.552 18.562 26.788 15.475 26.933V24.636C15.475 24.298 15.202 24.026 14.865 24.026C14.527 24.026 14.254 24.298 14.254 24.636V26.933C11.167 26.788 8.361 25.55 6.215 23.599L7.83499 21.9797C8.07299 21.7415 8.07299 21.354 7.83499 21.1158C7.59599 20.8777 7.20901 20.8777 6.97101 21.1158L5.35101 22.735C3.39801 20.5897 2.162 17.7838 2.017 14.6964H4.314C4.652 14.6964 4.92499 14.4236 4.92499 14.0859C4.92499 13.7481 4.652 13.4753 4.314 13.4753H2.021C2.162 10.4897 3.34001 7.6448 5.35101 5.4343L6.97501 7.0581C7.09401 7.1772 7.25001 7.2378 7.40601 7.2378C7.56201 7.2378 7.71801 7.1772 7.83701 7.0581C8.07501 6.8199 8.07501 6.4324 7.83701 6.1942L6.21301 4.5704C6.67201 4.1526 7.16101 3.7694 7.67401 3.4208C7.95401 3.2324 8.02699 2.8535 7.83899 2.5721C7.65099 2.2928 7.27199 2.2192 6.98999 2.4075C3.10599 5.0338 0.785004 9.3985 0.785004 14.0859C0.785004 17.9353 2.33801 21.4298 4.85101 23.974C4.86801 23.998 4.88799 24.021 4.91199 24.045C4.93299 24.067 4.957 24.086 4.983 24.106C6.776 25.875 9.03799 27.167 11.563 27.778V29.417" fill="#8F8F8F"/>
<path d="M15 20C18.3137 20 21 17.3137 21 14C21 10.6863 18.3137 8 15 8C11.6863 8 9 10.6863 9 14C9 17.3137 11.6863 20 15 20Z" fill="white"/>
<path d="M14.835 5.8477C13.212 5.8477 11.626 6.3288 10.277 7.2303C8.928 8.1318 7.876 9.4131 7.255 10.9122C6.634 12.4113 6.47199 14.0608 6.78899 15.6523C7.10499 17.2437 7.88599 18.7055 9.03399 19.8529C10.181 21.0003 11.643 21.7816 13.234 22.098C14.826 22.415 16.475 22.252 17.975 21.6313C19.474 21.0104 20.755 19.9588 21.656 18.6097C22.558 17.2605 23.039 15.6744 23.039 14.0517C23.04 12.9742 22.828 11.9071 22.416 10.9115C22.004 9.9158 21.399 9.0112 20.637 8.2493C19.875 7.4873 18.971 6.883 17.975 6.471C16.98 6.0589 15.912 5.8471 14.835 5.8477ZM14.089 9.5768C14.089 9.379 14.168 9.1893 14.308 9.0494C14.447 8.9095 14.637 8.831 14.835 8.831C15.033 8.831 15.222 8.9095 15.362 9.0494C15.502 9.1893 15.581 9.379 15.581 9.5768V12.5601C15.581 12.7579 15.502 12.9476 15.362 13.0875C15.222 13.2273 15.033 13.3059 14.835 13.3059C14.637 13.3059 14.447 13.2273 14.308 13.0875C14.168 12.9476 14.089 12.7579 14.089 12.5601V9.5768ZM18.527 17.7436C17.548 18.7227 16.22 19.2728 14.835 19.2728C13.45 19.2728 12.122 18.7227 11.143 17.7436C10.164 16.7644 9.61401 15.4364 9.61401 14.0517C9.61401 12.667 10.164 11.339 11.143 10.3599C11.283 10.221 11.472 10.143 11.669 10.143C11.866 10.143 12.055 10.221 12.195 10.3599C12.266 10.428 12.322 10.5096 12.36 10.6C12.399 10.6903 12.419 10.7875 12.419 10.8857C12.419 10.9839 12.399 11.0811 12.36 11.1715C12.322 11.2618 12.266 11.3435 12.195 11.4115C11.674 11.9334 11.32 12.5979 11.177 13.321C11.034 14.0441 11.108 14.7935 11.391 15.4743C11.673 16.1552 12.151 16.737 12.764 17.1464C13.377 17.5557 14.098 17.7742 14.835 17.7742C15.572 17.7742 16.293 17.5557 16.906 17.1464C17.519 16.737 17.997 16.1552 18.279 15.4743C18.562 14.7935 18.636 14.0441 18.493 13.321C18.35 12.5979 17.996 11.9334 17.475 11.4115C17.404 11.3435 17.348 11.2618 17.31 11.1715C17.271 11.0811 17.251 10.9839 17.251 10.8857C17.251 10.7875 17.271 10.6903 17.31 10.6C17.348 10.5096 17.404 10.428 17.475 10.3599C17.615 10.221 17.804 10.143 18.001 10.143C18.198 10.143 18.387 10.221 18.527 10.3599C19.012 10.8447 19.396 11.4203 19.659 12.0537C19.921 12.6872 20.056 13.3661 20.056 14.0517C20.056 14.7374 19.921 15.4163 19.659 16.0498C19.396 16.6832 19.012 17.2588 18.527 17.7436Z" fill="#8F8F8F"/>
</svg>
