<svg width="35" height="21" viewBox="0 0 35 21" fill="none" xmlns="http://www.w3.org/2000/svg">
<path d="M4.295 0.794899H6.60201V12.7719H4.295V0.794899Z" fill="#453E43"/>
<path d="M34.112 9.3383V12.8762C34.112 13.0593 34.039 13.235 33.91 13.3645C33.78 13.494 33.605 13.5668 33.421 13.5668H30.755C30.664 13.5669 30.574 13.549 30.491 13.5144C30.407 13.4797 30.331 13.4288 30.267 13.3647C30.202 13.3005 30.152 13.2244 30.117 13.1406C30.082 13.0567 30.064 12.9669 30.064 12.8762V9.3383H34.112Z" fill="#DBD8DB"/>
<path d="M30.064 4.2285H34.112V9.3382H30.064V4.2285Z" fill="#8F8F8F"/>
<path d="M34.112 0.690598V4.2285H30.064V0.690598C30.064 0.599898 30.082 0.510001 30.117 0.426201C30.152 0.342401 30.202 0.266203 30.267 0.202103C30.331 0.137903 30.407 0.0870991 30.491 0.0523991C30.574 0.0176991 30.664 -9.9581e-05 30.755 4.19047e-07H33.421C33.605 4.19047e-07 33.78 0.0728014 33.91 0.202301C34.039 0.331801 34.112 0.507398 34.112 0.690598Z" fill="#DBD8DB"/>
<path d="M27.758 0.794899H30.064V12.7719H27.758V0.794899Z" fill="#453E43"/>
<path d="M27.76 1.9375V11.6286H18.23V10.2005L16.09 8.0886L16.672 10.4691L16.08 11.6286H6.629V1.9375H27.76Z" fill="#D82E3D"/>
<path d="M19.577 16.89C20.569 18.582 19.167 20.71 17.193 20.71C15.666 20.71 14.482 19.438 14.482 18.074C14.483 17.654 14.596 17.242 14.809 16.881L17.193 13.5681L19.577 16.89Z" fill="#D82E3D"/>
<path d="M4.321 12.7718V12.8761C4.321 12.9668 4.303 13.0567 4.269 13.1405C4.234 13.2243 4.183 13.3005 4.119 13.3646C4.055 13.4288 3.979 13.4796 3.895 13.5143C3.811 13.549 3.721 13.5668 3.63 13.5667H0.964005C0.781005 13.5667 0.604998 13.494 0.475998 13.3644C0.345998 13.2349 0.272995 13.0593 0.272995 12.8761V9.3382H4.321V12.7718Z" fill="#DBD8DB"/>
<path d="M0.272995 4.2285H4.321V9.3382H0.272995V4.2285Z" fill="#8F8F8F"/>
<path d="M4.321 0.794899V4.2285H0.272995V0.690598C0.272995 0.507398 0.345998 0.331801 0.475998 0.202301C0.604998 0.0728014 0.781005 4.19047e-07 0.964005 4.19047e-07H3.63C3.721 -9.9581e-05 3.811 0.0176991 3.895 0.0523991C3.979 0.0870991 4.055 0.137903 4.119 0.202103C4.183 0.266203 4.234 0.342401 4.269 0.426201C4.303 0.510001 4.321 0.599898 4.321 0.690598V0.794899Z" fill="#DBD8DB"/>
<path d="M32.136 12.8762V9.3383H30.064V12.8762C30.064 12.9669 30.082 13.0567 30.117 13.1406C30.152 13.2244 30.202 13.3005 30.267 13.3647C30.331 13.4288 30.407 13.4797 30.491 13.5144C30.574 13.549 30.664 13.5669 30.755 13.5668H32.827C32.736 13.5669 32.646 13.549 32.562 13.5144C32.479 13.4797 32.402 13.4288 32.338 13.3647C32.274 13.3005 32.223 13.2244 32.189 13.1406C32.154 13.0567 32.136 12.9669 32.136 12.8762Z" fill="#DBD8DB"/>
<path d="M30.064 4.2285H32.136V9.3382H30.064V4.2285Z" fill="#8F8F8F"/>
<path d="M32.137 0.794899V0.690598C32.137 0.599898 32.155 0.510001 32.189 0.426201C32.224 0.342401 32.275 0.266203 32.339 0.202103C32.403 0.137903 32.479 0.0870991 32.563 0.0523991C32.647 0.0176991 32.737 -9.9581e-05 32.827 4.19047e-07H30.756C30.665 -9.9581e-05 30.575 0.0176991 30.491 0.0523991C30.407 0.0870991 30.331 0.137903 30.267 0.202103C30.203 0.266203 30.152 0.342401 30.117 0.426201C30.083 0.510001 30.065 0.599898 30.065 0.690598V4.2285H32.137V0.794899ZM2.345 12.8762V9.3382H0.272995V12.8762C0.272995 13.0593 0.345998 13.235 0.475998 13.3645C0.604998 13.494 0.781005 13.5667 0.964005 13.5667H3.036C2.853 13.5667 2.677 13.494 2.547 13.3645C2.418 13.235 2.345 13.0593 2.345 12.8762Z" fill="#DBD8DB"/>
<path d="M0.272995 4.2285H2.345V9.3382H0.272995V4.2285Z" fill="#8F8F8F"/>
<path d="M2.345 0.690598C2.345 0.507398 2.418 0.331801 2.547 0.202301C2.677 0.072801 2.853 0 3.036 0H0.964005C0.781005 0 0.604998 0.072801 0.475998 0.202301C0.345998 0.331801 0.272995 0.507398 0.272995 0.690598V4.2285H2.345V0.690598Z" fill="#DBD8DB"/>
<path d="M18.514 17.436C18.46 17.425 18.405 17.425 18.352 17.435C18.299 17.445 18.248 17.466 18.202 17.496C18.157 17.526 18.118 17.565 18.088 17.61C18.057 17.656 18.036 17.706 18.025 17.76C17.93 18.206 17.702 18.614 17.372 18.93C17.332 18.968 17.3 19.013 17.278 19.063C17.256 19.113 17.244 19.167 17.242 19.222C17.241 19.276 17.251 19.331 17.271 19.382C17.291 19.433 17.32 19.479 17.358 19.519C17.397 19.558 17.442 19.59 17.492 19.611C17.543 19.633 17.597 19.645 17.651 19.645C17.706 19.646 17.761 19.636 17.811 19.615C17.862 19.595 17.909 19.564 17.948 19.526C18.398 19.093 18.708 18.535 18.837 17.924C18.859 17.816 18.837 17.704 18.777 17.613C18.716 17.521 18.621 17.457 18.514 17.436Z" fill="white"/>
</svg>
