<svg width="20" height="20" viewBox="0 0 20 20" fill="none" xmlns="http://www.w3.org/2000/svg">
<path d="M9.16634 6.66634L13.333 6.66679M9.16634 9.99967L13.333 10.0001M9.16634 13.333L13.333 13.3334M6.66634 13.333H6.67467M6.66634 9.99967H6.67467M6.66634 6.66634H6.67467M5.99967 3.33301H13.9997C14.9331 3.33301 15.3998 3.33301 15.7563 3.51466C16.0699 3.67445 16.3249 3.92942 16.4847 4.24302C16.6663 4.59954 16.6663 5.06625 16.6663 5.99967V13.9997C16.6663 14.9331 16.6663 15.3998 16.4847 15.7563C16.3249 16.0699 16.0699 16.3249 15.7563 16.4847C15.3998 16.6663 14.9331 16.6663 13.9997 16.6663H5.99967C5.06625 16.6663 4.59954 16.6663 4.24302 16.4847C3.92942 16.3249 3.67445 16.0699 3.51466 15.7563C3.33301 15.3998 3.33301 14.9331 3.33301 13.9997V5.99967C3.33301 5.06625 3.33301 4.59954 3.51466 4.24302C3.67445 3.92942 3.92942 3.67445 4.24302 3.51466C4.59954 3.33301 5.06625 3.33301 5.99967 3.33301Z"  stroke-width="1.5" stroke-linecap="round" stroke-linejoin="round"/>
</svg>
