<svg width="24" height="29" viewBox="0 0 24 29" fill="none" xmlns="http://www.w3.org/2000/svg">
<path d="M15.051 3.14981C14.065 0.746507 11.437 -0.520496 8.93599 0.202404C8.05799 0.455904 7.183 0.743905 6.336 1.0577C5.488 1.3715 4.637 1.72281 3.806 2.10241C1.437 3.18301 0.267995 5.85651 1.08599 8.32141C2.32999 12.0699 3.722 15.8275 5.223 19.4904C6.208 21.8932 8.83599 23.16 11.337 22.438C12.188 22.1923 13.031 21.9161 13.862 21.6098L12.702 18.4776C11.947 18.7555 11.183 19.0061 10.41 19.229C9.551 19.4768 8.65 19.0447 8.314 18.2241C6.837 14.6194 5.48399 10.9656 4.25599 7.2689C3.97699 6.4267 4.379 5.5125 5.192 5.1412C5.95 4.796 6.725 4.47541 7.496 4.18991C7.769 4.08881 8.043 3.9914 8.319 3.8975C8.83 3.7233 9.345 3.56111 9.863 3.41121C10.722 3.16341 11.623 3.5949 11.96 4.4161C12.564 5.8907 13.147 7.3737 13.709 8.8647L16.841 7.7047C16.266 6.1781 15.669 4.65961 15.051 3.14981Z" fill="#D82E3D"/>
<path d="M15.289 8.2796L13.709 8.8647C13.147 7.3737 12.563 5.8907 11.959 4.416C11.623 3.5949 10.722 3.1634 9.863 3.4112C9.345 3.5611 8.83 3.7232 8.319 3.8975C8.571 3.7966 8.82299 3.698 9.07599 3.6046C9.84699 3.3191 10.643 3.0575 11.443 2.8259C12.302 2.5783 13.203 3.0099 13.539 3.831C14.143 5.3056 14.726 6.7886 15.289 8.2796ZM12.917 21.8527C10.416 22.5751 7.787 21.3079 6.803 18.9052C5.297 15.2302 3.918 11.505 2.666 7.7362C1.848 5.2714 3.017 2.598 5.385 1.5174C5.96 1.2555 6.54199 1.0081 7.12899 0.775398C6.86399 0.866498 6.599 0.960601 6.336 1.0577C5.48 1.3751 4.636 1.7236 3.806 2.1025C1.437 3.183 0.267995 5.8565 1.08599 8.3212C2.33799 12.0901 3.718 15.8153 5.223 19.4902C6.208 21.8931 8.83599 23.16 11.337 22.4377C12.214 22.1845 13.081 21.8992 13.937 21.5825C14.2 21.4846 14.462 21.3837 14.723 21.2798C14.126 21.4859 13.523 21.6769 12.917 21.8527Z" fill="#453E43"/>
<path d="M9.796 28.878C7.586 28.878 5.357 28.814 3.131 28.687C1.532 28.595 0.253005 27.323 0.151005 25.724C-0.0479952 22.5808 -0.0479952 19.4285 0.151005 16.2856C0.252005 14.6867 1.531 13.4142 3.13 13.3229C5.354 13.1958 7.586 13.1317 9.796 13.1317C12.007 13.1317 14.239 13.1958 16.463 13.3229C18.062 13.4142 19.341 14.6867 19.442 16.2856C19.641 19.4285 19.641 22.5808 19.441 25.724C19.34 27.323 18.061 28.595 16.462 28.687C14.242 28.814 12.02 28.877 9.796 28.878Z" fill="#D82E3D"/>
<path d="M3.889 28.726C3.636 28.715 3.383 28.701 3.131 28.686C1.532 28.595 0.252005 27.323 0.151005 25.724C-0.0479952 22.5806 -0.0479952 19.4281 0.151005 16.2851C0.252005 14.6868 1.531 13.4142 3.13 13.3223C3.383 13.3081 3.635 13.294 3.888 13.2822C2.949 13.8333 2.301 14.8262 2.228 15.9794C2.016 19.326 2.017 22.6826 2.229 26.029C2.302 27.182 2.95 28.175 3.889 28.726Z" fill="#DBD8DB"/>
<path d="M12.521 23.857L11.185 21.5425C12.065 21.0334 12.639 20.0557 12.566 18.9501C12.472 17.5353 11.294 16.4052 9.876 16.3658C8.308 16.3223 7.022 17.5809 7.022 19.1396C7.022 20.1667 7.581 21.0627 8.41 21.5425L7.07399 23.857C6.61499 24.652 7.188 25.645 8.106 25.645H11.489C12.406 25.645 12.98 24.652 12.521 23.857Z" fill="#453E43"/>
<path d="M11.488 26.081H8.10501C7.51601 26.081 6.989 25.777 6.695 25.267C6.401 24.757 6.401 24.149 6.695 23.639L7.82901 21.6757C7.05301 21.0721 6.586 20.1349 6.586 19.1395C6.586 18.265 6.931 17.4476 7.558 16.8378C8.185 16.2282 9.014 15.9059 9.887 15.9301C11.524 15.9755 12.891 17.2893 13 18.9211C13.072 20.006 12.606 21.0264 11.764 21.6765L12.898 23.639C13.192 24.149 13.192 24.758 12.898 25.267C12.603 25.777 12.076 26.081 11.488 26.081ZM9.796 16.8003C9.183 16.8003 8.606 17.034 8.166 17.4625C7.709 17.9068 7.457 18.5024 7.457 19.1395C7.457 19.9713 7.906 20.7475 8.627 21.1651C8.727 21.223 8.8 21.3182 8.83 21.4297C8.86 21.5413 8.84401 21.6602 8.78701 21.7602L7.45 24.075C7.313 24.312 7.313 24.595 7.45 24.831C7.587 25.068 7.83201 25.209 8.10501 25.209H11.488C11.761 25.209 12.006 25.068 12.143 24.831C12.28 24.595 12.28 24.312 12.143 24.075L10.806 21.7602C10.749 21.6602 10.733 21.5413 10.763 21.4298C10.793 21.3182 10.866 21.223 10.966 21.1652C11.744 20.7149 12.19 19.8772 12.13 18.9789C12.051 17.7909 11.056 16.8345 9.863 16.8014C9.841 16.8006 9.819 16.8003 9.796 16.8003Z" fill="#DBD8DB"/>
<path d="M18.426 8.7576C18.34 8.7576 18.256 8.732 18.184 8.6841C18.112 8.6363 18.056 8.5682 18.023 8.4886C17.99 8.4089 17.982 8.3213 17.999 8.2368C18.015 8.1523 18.057 8.0746 18.118 8.0137L19.627 6.5042C19.668 6.4634 19.716 6.431 19.769 6.4088C19.822 6.3866 19.879 6.3751 19.936 6.375C19.993 6.3749 20.05 6.3861 20.103 6.408C20.156 6.4299 20.205 6.462 20.245 6.5026C20.286 6.5432 20.318 6.5914 20.34 6.6445C20.362 6.6976 20.373 6.7544 20.373 6.8119C20.373 6.8693 20.361 6.9261 20.339 6.979C20.317 7.032 20.284 7.0801 20.244 7.1205L18.734 8.63C18.694 8.6705 18.646 8.7026 18.593 8.7245C18.54 8.7464 18.483 8.7577 18.426 8.7576ZM19.936 13.9692C19.878 13.9693 19.822 13.9581 19.769 13.9362C19.716 13.9142 19.668 13.8821 19.627 13.8416L18.118 12.3321C18.037 12.2502 17.991 12.1396 17.992 12.0244C17.992 11.9091 18.038 11.7987 18.119 11.7172C18.201 11.6358 18.311 11.5899 18.426 11.5896C18.542 11.5893 18.652 11.6347 18.734 11.7158L20.244 13.2253C20.305 13.2862 20.346 13.3639 20.363 13.4484C20.38 13.5329 20.371 13.6206 20.338 13.7002C20.305 13.7798 20.249 13.8479 20.178 13.8958C20.106 13.9436 20.022 13.9692 19.936 13.9692ZM22.838 10.6087H19.007C18.891 10.6087 18.78 10.5628 18.698 10.481C18.617 10.3993 18.571 10.2885 18.571 10.1729C18.571 10.0573 18.617 9.9465 18.698 9.8648C18.78 9.783 18.891 9.7371 19.007 9.7371H22.838C23.079 9.7371 23.274 9.9322 23.274 10.1729C23.274 10.4136 23.079 10.6087 22.838 10.6087Z" fill="#D82E3D"/>
</svg>
