<svg width="20" height="20" viewBox="0 0 20 20" fill="none" xmlns="http://www.w3.org/2000/svg">
<path d="M10 8.66634V16.6663M10 8.66634C10 6.7995 10 5.86608 9.63669 5.15304C9.31711 4.52583 8.80717 4.0159 8.17997 3.69632C7.46693 3.33301 6.53351 3.33301 4.66667 3.33301H3.83333C3.36662 3.33301 3.13327 3.33301 2.95501 3.42384C2.79821 3.50373 2.67072 3.63121 2.59083 3.78802C2.5 3.96628 2.5 4.19963 2.5 4.66634V13.6663C2.5 14.1331 2.5 14.3664 2.59083 14.5447C2.67072 14.7015 2.79821 14.829 2.95501 14.9088C3.13327 14.9997 3.36662 14.9997 3.83333 14.9997H6.2889C6.73906 14.9997 6.96414 14.9997 7.18178 15.0385C7.37496 15.0729 7.56342 15.13 7.74326 15.2085C7.94587 15.2969 8.13314 15.4218 8.5077 15.6715L10 16.6663M10 8.66634C10 6.7995 10 5.86608 10.3633 5.15304C10.6829 4.52583 11.1928 4.0159 11.82 3.69632C12.5331 3.33301 13.4665 3.33301 15.3333 3.33301H16.1667C16.6334 3.33301 16.8667 3.33301 17.045 3.42384C17.2018 3.50373 17.3293 3.63121 17.4092 3.78802C17.5 3.96628 17.5 4.19963 17.5 4.66634V13.6663C17.5 14.1331 17.5 14.3664 17.4092 14.5447C17.3293 14.7015 17.2018 14.829 17.045 14.9088C16.8667 14.9997 16.6334 14.9997 16.1667 14.9997H13.7111C13.2609 14.9997 13.0359 14.9997 12.8182 15.0385C12.625 15.0729 12.4366 15.13 12.2567 15.2085C12.0541 15.2969 11.8669 15.4218 11.4923 15.6715L10 16.6663"  stroke-width="1.5" stroke-linecap="round" stroke-linejoin="round"/>
</svg>
