<svg width="45" height="23" viewBox="0 0 45 23" fill="none" xmlns="http://www.w3.org/2000/svg">
<path d="M31.76 12.6121H13.133C12.993 12.6121 12.858 12.5563 12.759 12.4569C12.659 12.3576 12.604 12.2228 12.604 12.0822V8.8497C12.604 8.7092 12.659 8.5744 12.759 8.475C12.858 8.3757 12.993 8.3198 13.133 8.3198H31.76C31.901 8.3198 32.035 8.3757 32.135 8.475C32.234 8.5744 32.29 8.7092 32.29 8.8497V12.0822C32.29 12.2228 32.234 12.3576 32.135 12.4569C32.035 12.5563 31.901 12.6121 31.76 12.6121Z" fill="#453E43"/>
<path d="M12.604 10.095V8.8497C12.604 8.7092 12.659 8.5744 12.759 8.475C12.858 8.3757 12.993 8.3198 13.133 8.3198H31.76C31.901 8.3198 32.035 8.3757 32.135 8.475C32.234 8.5744 32.29 8.7092 32.29 8.8497V10.095H12.604Z" fill="#DBD8DB"/>
<path d="M28.98 12.6121H15.891V8.3198H28.98V12.6121ZM16.95 12.1882H27.867V8.7438H16.977L16.95 12.1882Z" fill="#8F8F8F"/>
<path d="M25.375 12.612H19.52V8.3197H25.375V12.612ZM20.579 12.188H24.315V8.7436H20.579V12.188Z" fill="#8F8F8F"/>
<path d="M15.916 10.0949V8.3197H28.978V10.0949H27.919V8.7701H16.976V10.0949H15.916Z" fill="#DBD8DB"/>
<path d="M19.52 10.0949V8.3197H25.375V10.0949H24.315V8.7701H20.579V10.0949H19.52Z" fill="#DBD8DB"/>
<path d="M32.582 9.3795H12.313C12.173 9.3795 12.038 9.3237 11.938 9.2243C11.839 9.1249 11.783 8.9901 11.783 8.8496V6.5444C11.783 6.4039 11.839 6.2691 11.938 6.1697C12.038 6.0704 12.173 6.0145 12.313 6.0145H32.582C32.723 6.0145 32.858 6.0704 32.957 6.1697C33.056 6.2691 33.112 6.4039 33.112 6.5444V8.8496C33.112 8.9901 33.056 9.1249 32.957 9.2243C32.858 9.3237 32.723 9.3795 32.582 9.3795Z" fill="#8F8F8F"/>
<path d="M11.758 7.7634V6.5446C11.758 6.404 11.814 6.2692 11.913 6.1699C12.012 6.0705 12.147 6.0146 12.288 6.0146H32.584C32.724 6.0146 32.859 6.0705 32.958 6.1699C33.058 6.2692 33.113 6.404 33.113 6.5446V7.7634H11.784H11.758Z" fill="#8F8F8F"/>
<path d="M25.534 22.522H19.334C17.003 22.515 14.769 21.585 13.121 19.937C11.473 18.289 10.544 16.0558 10.537 13.7249V12.0822C10.537 11.9416 10.593 11.8068 10.692 11.7075C10.792 11.6081 10.926 11.5522 11.067 11.5522H33.827C33.967 11.5522 34.102 11.6081 34.202 11.7075C34.301 11.8068 34.357 11.9416 34.357 12.0822V13.7249C34.357 18.574 30.382 22.522 25.534 22.522Z" fill="#D82E3D"/>
<path d="M10.829 15.9505C10.737 15.6019 10.666 15.2479 10.617 14.8906H34.278C34.229 15.2479 34.158 15.6019 34.066 15.9505H10.829Z" fill="#453E43"/>
<path d="M44.214 6.4914H44.161L38.968 5.9085C38.827 5.891 38.699 5.8183 38.612 5.7065C38.525 5.5947 38.486 5.4529 38.504 5.3124C38.521 5.1718 38.594 5.044 38.706 4.9571C38.818 4.8701 38.96 4.8311 39.1 4.8487L44.293 5.4316C44.434 5.4421 44.564 5.5081 44.656 5.6149C44.748 5.7217 44.794 5.8607 44.783 6.0013C44.773 6.1418 44.707 6.27241 44.6 6.36431C44.493 6.45621 44.354 6.502 44.214 6.4914ZM40.239 13.3803C40.157 13.3803 40.076 13.3612 40.002 13.3244C39.929 13.2876 39.865 13.2342 39.815 13.1684L36.715 9.0085C36.674 8.9529 36.643 8.8895 36.626 8.8221C36.609 8.7547 36.605 8.6845 36.615 8.6156C36.625 8.5467 36.648 8.4805 36.683 8.4206C36.719 8.3607 36.766 8.3084 36.821 8.2666C36.877 8.2249 36.94 8.1945 37.008 8.1772C37.075 8.16 37.145 8.1561 37.214 8.166C37.283 8.1758 37.349 8.1991 37.409 8.2346C37.469 8.2701 37.522 8.317 37.563 8.3726L40.663 12.559C40.722 12.6377 40.758 12.7313 40.767 12.8293C40.776 12.9273 40.757 13.0259 40.713 13.1139C40.669 13.2019 40.602 13.276 40.518 13.3277C40.434 13.3794 40.338 13.3803 40.239 13.3803ZM42.227 9.9359C42.133 9.9333 42.041 9.9059 41.962 9.8564L37.828 7.4718C37.705 7.4015 37.615 7.2853 37.578 7.1486C37.541 7.012 37.559 6.86611 37.63 6.74311C37.7 6.62021 37.816 6.5301 37.953 6.4929C38.089 6.4556 38.235 6.47411 38.358 6.54441L42.492 8.929C42.603 8.9822 42.692 9.0725 42.744 9.1844C42.796 9.2963 42.807 9.4228 42.776 9.5421C42.744 9.6614 42.672 9.766 42.572 9.8379C42.472 9.9097 42.35 9.9444 42.227 9.9359ZM0.655 6.4914C0.514 6.4949 0.378002 6.4425 0.276002 6.3456C0.174002 6.2487 0.114993 6.1153 0.110993 5.9748C0.107993 5.8342 0.160005 5.698 0.257005 5.5962C0.354005 5.4943 0.488007 5.4351 0.628007 5.4316L5.795 4.8487C5.935 4.8346 6.076 4.877 6.185 4.9664C6.294 5.0559 6.36401 5.1851 6.37801 5.3256C6.39201 5.4662 6.349 5.6065 6.26 5.7158C6.171 5.8252 6.041 5.8945 5.901 5.9085L0.707993 6.4914H0.655ZM4.65601 13.3803C4.55701 13.3803 4.461 13.3529 4.377 13.3012C4.293 13.2495 4.22601 13.1754 4.18201 13.0874C4.13801 12.9994 4.11901 12.9008 4.12801 12.8028C4.13701 12.7048 4.173 12.6112 4.232 12.5325L7.332 8.3461C7.416 8.2337 7.541 8.15941 7.681 8.13951C7.82 8.11961 7.961 8.1558 8.073 8.2402C8.186 8.3245 8.26 8.45001 8.28 8.58911C8.3 8.72831 8.264 8.8696 8.179 8.982L5.079 13.1684C5.03 13.2342 4.96601 13.2876 4.89301 13.3244C4.81901 13.3612 4.73801 13.3803 4.65601 13.3803ZM2.668 9.9359C2.554 9.9329 2.444 9.8932 2.355 9.8226C2.265 9.7521 2.20001 9.65451 2.17101 9.54441C2.14101 9.43431 2.147 9.31751 2.189 9.21141C2.231 9.10531 2.306 9.0156 2.403 8.9555L6.537 6.5709C6.596 6.5214 6.665 6.4853 6.739 6.4652C6.814 6.4451 6.891 6.4415 6.967 6.4545C7.043 6.4676 7.115 6.4971 7.179 6.5408C7.242 6.5846 7.295 6.6417 7.334 6.7081C7.373 6.7745 7.397 6.8486 7.405 6.9253C7.412 7.0019 7.40301 7.0793 7.37801 7.152C7.35201 7.2247 7.311 7.291 7.257 7.3462C7.204 7.4014 7.139 7.4443 7.067 7.4718L2.907 9.8564C2.827 9.9059 2.736 9.9333 2.642 9.9359H2.668Z" fill="#D82E3D"/>
<path d="M35.523 7.0744H9.371C9.173 7.0781 8.977 7.0414 8.793 6.9665C8.61 6.8916 8.443 6.78 8.304 6.6387C8.166 6.4973 8.057 6.3291 7.985 6.1443C7.914 5.9596 7.88 5.7622 7.888 5.5641V1.4573C7.888 0.662398 8.577 0 9.371 0H35.549C36.344 0 37.033 0.662398 37.033 1.4573V5.5906C37.033 6.3855 36.371 7.0744 35.549 7.0744H35.523Z" fill="#DBD8DB"/>
<path d="M10.113 0H11.173V2.994H18.433V0H19.493V3.5239C19.493 3.6645 19.437 3.7993 19.338 3.8987C19.238 3.998 19.103 4.0539 18.963 4.0539H10.643C10.503 4.0539 10.368 3.998 10.268 3.8987C10.169 3.7993 10.113 3.6645 10.113 3.5239V0Z" fill="#D82E3D"/>
<path d="M12.684 0H13.743V2.994H15.863V0H16.923V3.5239C16.923 3.6645 16.867 3.7993 16.768 3.8987C16.668 3.998 16.534 4.0539 16.393 4.0539H13.214C13.073 4.0539 12.938 3.998 12.839 3.8987C12.739 3.7993 12.684 3.6645 12.684 3.5239V0ZM25.402 0H26.461V2.994H33.721V0H34.781V3.5239C34.781 3.6645 34.725 3.7993 34.626 3.8987C34.527 3.998 34.392 4.0539 34.251 4.0539H25.931C25.791 4.0539 25.656 3.998 25.557 3.8987C25.457 3.7993 25.402 3.6645 25.402 3.5239V0Z" fill="#D82E3D"/>
<path d="M27.973 0H29.033V2.994H31.153V0H32.213V3.5239C32.213 3.6645 32.157 3.7993 32.057 3.8987C31.958 3.998 31.823 4.0539 31.683 4.0539H28.503C28.363 4.0539 28.228 3.998 28.128 3.8987C28.029 3.7993 27.973 3.6645 27.973 3.5239V0ZM22.436 5.5111C22.172 5.5146 21.911 5.4658 21.667 5.3675C21.423 5.2692 21.201 5.1234 21.013 4.9385C20.826 4.7537 20.677 4.5334 20.576 4.2906C20.474 4.0477 20.422 3.7871 20.422 3.5239C20.422 2.4641 21.323 1.5897 22.436 1.5897C23.548 1.5897 24.476 2.4376 24.476 3.5239C24.476 3.7871 24.423 4.0477 24.322 4.2906C24.22 4.5334 24.072 4.7537 23.884 4.9385C23.697 5.1234 23.475 5.2692 23.231 5.3675C22.986 5.4658 22.699 5.5146 22.436 5.5111Z" fill="#D82E3D"/>
</svg>
