<svg width="83" height="77" viewBox="0 0 83 77" fill="none" xmlns="http://www.w3.org/2000/svg">
<path d="M60.4239 0C61.6284 0.197259 62.8509 0.319372 64.0312 0.601172C72.4401 2.60758 78.1853 7.45829 80.8912 15.1458C83.262 21.8808 82.2141 28.3358 77.8601 34.1916C76.758 35.672 75.3127 36.9345 73.9758 38.2533C73.6024 38.6215 73.3876 38.9409 73.3936 39.4688C73.4238 41.9918 73.3977 44.5168 73.4117 47.0398C73.4157 47.7913 73.2612 48.4488 72.4562 48.7794C71.6191 49.1251 70.9687 48.7832 70.3806 48.2309C68.6281 46.5833 66.8616 44.9507 65.1172 43.2975C64.8041 43.0007 64.531 42.9349 64.0734 43.0138C58.8461 43.9081 53.6049 44.0377 48.4419 42.7508C42.7931 41.3437 38.3909 38.2195 35.1971 33.6543C32.2463 29.4349 31.0198 24.7701 31.5497 19.7466C32.1981 13.5978 35.157 8.57609 40.2959 4.71732C43.9052 2.00641 48.0584 0.492209 52.6734 0.105205C52.8019 0.0939331 52.9243 0.0375732 53.0488 0.00187866C55.5058 0.00187866 57.9649 0.00187866 60.4219 0.00187866L60.4239 0ZM70.0132 43.6864C70.0754 43.6657 70.1377 43.6451 70.1999 43.6244C70.1999 42.0839 70.2722 40.5396 70.1778 39.0029C70.1035 37.8099 70.5291 36.9927 71.5348 36.2525C74.4375 34.1184 76.5131 31.3643 77.6854 28.1048C79.7852 22.2659 79.1408 16.6525 75.5074 11.4805C72.3157 6.93602 67.777 4.18002 62.0198 3.29141C58.7859 2.79357 55.5159 2.84241 52.278 3.17682C47.5466 3.66339 43.4635 5.56084 40.2317 8.82971C35.1048 14.0111 33.3825 20.1186 35.4461 26.925C37.4615 33.5754 42.2009 37.9828 49.299 39.8445C54.2211 41.1352 59.2837 40.9755 64.2701 39.8671C65.2457 39.651 65.9703 39.8145 66.6468 40.4833C67.7489 41.5691 68.8891 42.6212 70.0152 43.6864H70.0132Z" fill="#00323C"/>
<path d="M0 35.3989C0.564075 33.9599 0.91336 32.4025 1.73438 31.1062C3.7237 27.9707 6.81908 26.2386 10.7094 26.1465C16.2076 26.0169 21.7139 26.0996 27.2161 26.1071C28.2941 26.1071 29.0328 26.7853 28.9967 27.6495C28.9605 28.5174 28.2319 29.0942 27.1117 29.096C21.9829 29.1035 16.854 29.0979 11.7271 29.0998C6.63441 29.0998 3.2078 32.3217 3.20579 37.1048C3.20579 44.4785 3.20579 51.8541 3.20579 59.2279C3.20579 63.9922 6.64846 67.1972 11.7633 67.199C14.8888 67.199 18.0143 67.2122 21.1378 67.1897C21.9768 67.184 22.553 67.4545 23.1291 68.0595C24.2813 69.2656 25.5721 70.3552 26.9291 71.6064C26.9291 70.7121 26.925 69.9287 26.9291 69.1472C26.9371 67.7251 27.4951 67.2009 29.0187 67.199C34.4949 67.1953 39.971 67.2009 45.4452 67.1972C50.3813 67.1934 53.8481 63.9414 53.8521 59.3105C53.8561 56.1863 53.8521 53.0602 53.8521 49.936C53.8521 49.6862 53.8421 49.4325 53.8822 49.1883C54.0107 48.4068 54.6852 47.8526 55.468 47.8601C56.2549 47.8676 56.9093 48.4275 57.0318 49.2146C57.0619 49.4119 57.0559 49.6129 57.0559 49.8139C57.0559 53.0396 57.0679 56.2634 57.0559 59.489C57.0278 65.6116 52.1378 70.1786 45.5817 70.1974C40.7479 70.2105 35.9121 70.1993 31.0783 70.1993C30.7913 70.1993 30.5042 70.1993 30.1308 70.1993C30.1308 71.9089 30.1328 73.5527 30.1308 75.1946C30.1308 75.8503 29.8398 76.3594 29.1914 76.6431C28.535 76.9286 27.9408 76.7708 27.4088 76.35C27.2262 76.2053 27.0575 76.0419 26.8889 75.8841C25.0361 74.1538 23.2013 72.4067 21.3184 70.7046C21.0153 70.4322 20.5054 70.2274 20.0879 70.2218C17.2575 70.1805 14.4251 70.203 11.5947 70.1993C5.61265 70.1899 1.17031 66.6843 0.132487 61.1648C0.114421 61.0727 0.0481772 60.9882 0.00401477 60.9018C0.00401477 52.4027 0.00401477 43.9018 0.00401477 35.4027L0 35.3989Z" fill="#00323C"/>
<path d="M27.2304 46.5004C32.5982 46.5004 37.9679 46.5004 43.3357 46.5004C43.6027 46.5004 43.8717 46.4892 44.1366 46.5155C45.0259 46.6057 45.6542 47.22 45.6643 47.9846C45.6743 48.7454 45.048 49.3786 44.1667 49.48C43.9299 49.5082 43.687 49.4969 43.4461 49.4969C32.6022 49.4969 21.7583 49.4969 10.9144 49.4969C9.45907 49.4969 8.6782 48.9803 8.66615 48.0128C8.65411 47.0396 9.44502 46.4986 10.8843 46.4986C16.3324 46.4986 21.7824 46.4986 27.2304 46.4986V46.5004Z" fill="#00323C"/>
<path d="M23.9602 57.9005C19.6082 57.9005 15.2562 57.9005 10.9062 57.9005C10.6392 57.9005 10.3682 57.9117 10.1072 57.876C9.27015 57.7614 8.67195 57.1415 8.66994 56.4069C8.66593 55.6761 9.26212 55.0505 10.0972 54.9284C10.306 54.8984 10.5228 54.9021 10.7355 54.9021C19.5981 54.9021 28.4628 54.9021 37.3254 54.8965C38.1584 54.8965 38.8871 55.0618 39.2344 55.8471C39.68 56.854 38.9152 57.8535 37.6566 57.8911C36.4823 57.9249 35.3079 57.9005 34.1336 57.9005C30.7431 57.9005 27.3527 57.9005 23.9622 57.9005H23.9602Z" fill="#00323C"/>
<path d="M21.8785 41.0991C18.2191 41.0991 14.5596 41.0991 10.9021 41.0991C10.6352 41.0991 10.3642 41.1085 10.1032 41.0728C9.26612 40.9563 8.66992 40.3326 8.66992 39.5999C8.66992 38.8672 9.26612 38.2435 10.1032 38.127C10.3662 38.0913 10.6352 38.1007 10.9021 38.1007C18.2733 38.1007 25.6444 38.1007 33.0155 38.1007C33.0697 38.1007 33.1219 38.1007 33.1761 38.1007C34.4749 38.1082 35.2477 38.6662 35.2477 39.5999C35.2477 40.5336 34.4748 41.0972 33.1741 41.0991C29.4082 41.1009 25.6424 41.0991 21.8765 41.0991H21.8785Z" fill="#00323C"/>
<path d="M44.0682 57.886C43.2371 57.8803 42.4823 57.1664 42.4863 56.3906C42.4924 55.6128 43.2552 54.9064 44.0842 54.9102C44.9153 54.9158 45.6701 55.6297 45.666 56.4056C45.66 57.1833 44.8972 57.8897 44.0682 57.886Z" fill="#00323C"/>
<path d="M55.6031 24.5487C55.6031 23.9738 55.5851 23.3989 55.6072 22.8241C55.6533 21.5842 56.3941 20.6542 57.6527 20.2296C57.8775 20.1545 58.1104 20.0925 58.3352 20.0192C60.0194 19.465 61.005 17.9189 60.7119 16.2976C60.4229 14.6989 58.8772 13.4928 57.1488 13.5172C55.3502 13.5416 53.9069 14.7533 53.662 16.4423C53.6299 16.6639 53.5917 16.8875 53.5436 17.1073C53.3569 17.9414 52.6965 18.3998 51.8132 18.3153C51.0123 18.2401 50.4502 17.6371 50.4241 16.8293C50.3438 14.248 52.4516 11.5427 55.1033 10.8232C59.7645 9.55697 64.0743 12.6718 63.9418 17.2106C63.8716 19.6303 62.0469 21.9824 59.5537 22.7733C58.9776 22.9556 58.7467 23.181 58.7869 23.7615C58.8451 24.5825 58.815 25.411 58.7969 26.2338C58.7728 27.3235 58.1184 28.0205 57.1669 28.0073C56.2134 27.9942 55.6112 27.3028 55.5991 26.1963C55.5931 25.6458 55.5991 25.0973 55.5991 24.5468C55.6011 24.5468 55.6031 24.5468 55.6052 24.5468L55.6031 24.5487Z" fill="#E41E0A"/>
<path d="M57.1573 33.9217C56.2841 33.9066 55.5955 33.2378 55.6116 32.4206C55.6297 31.609 56.3583 30.9515 57.2215 30.9722C58.0706 30.9909 58.8074 31.7011 58.7853 32.4807C58.7632 33.2716 58.0144 33.9367 57.1573 33.9217Z" fill="#E41E0A"/>
</svg>
