<svg width="107" height="77" viewBox="0 0 107 77" fill="none" xmlns="http://www.w3.org/2000/svg">
<path d="M53.2673 0C67.7825 0 82.2946 0 96.8099 0C102.685 0 106.327 3.62651 106.327 9.48637C106.327 28.8166 106.327 48.1468 106.327 67.4739C106.327 73.3277 102.664 77 96.8282 77C67.6878 77 38.5443 77 9.40388 77C3.70595 77 0.00305519 73.3063 0.00305519 67.6144C0 48.2109 0 28.8043 0 9.39777C0.00305519 3.70289 3.69678 0.00305519 9.38555 0C24.0108 0 38.639 0 53.2673 0ZM102.661 56.7899V55.5801C102.661 40.2247 102.661 24.8693 102.661 9.51387C102.661 5.67044 100.647 3.66623 96.7915 3.66623C67.6908 3.66623 38.5901 3.66623 9.48637 3.66623C5.68877 3.66623 3.66623 5.67044 3.66623 9.43749C3.66623 24.7929 3.66623 40.1483 3.66623 55.5037C3.66623 55.9131 3.66623 56.3225 3.66623 56.7899H102.661ZM3.66623 60.56C3.66623 62.8911 3.66623 65.1031 3.66623 67.315C3.66623 71.4243 5.58795 73.3552 9.67885 73.3552C38.6696 73.3552 67.6603 73.3552 96.651 73.3552C96.9962 73.3552 97.3384 73.3613 97.6837 73.349C100.168 73.2604 102.379 71.5007 102.569 69.0351C102.783 66.2396 102.618 63.4166 102.618 60.56H3.66623Z" fill="#00323C"/>
<path d="M40.3387 30.2491C40.3387 26.204 40.3325 22.1589 40.3387 18.1139C40.3417 15.9569 41.6982 15.1778 43.5863 16.2655C50.5888 20.2983 57.5852 24.3373 64.5785 28.3854C66.5186 29.5097 66.5064 31.0404 64.5419 32.1739C57.5791 36.2006 50.6163 40.2212 43.6474 44.2327C41.6371 45.3906 40.3417 44.6115 40.3387 42.2682C40.3356 38.2598 40.3387 34.2544 40.3387 30.246V30.2491ZM44.0507 39.7752C49.5989 36.5764 54.9608 33.4815 60.509 30.2796C54.9303 27.0564 49.547 23.9432 44.0507 20.7688V39.7752Z" fill="#E41E0A"/>
<path d="M44.0507 39.7752C49.5989 36.5764 54.9608 33.4815 60.509 30.2796C54.9303 27.0564 49.547 23.9432 44.0507 20.7688V39.7752Z" fill="#E41E0A"/>
<path d="M51.2577 68.7667H50.0356C42.3243 68.7667 34.6099 68.7667 26.8986 68.7667C26.5931 68.7667 26.2876 68.7789 25.9821 68.7606C24.8272 68.6934 24.0543 67.9357 24.0726 66.9C24.0909 65.907 24.8364 65.1799 25.9301 65.1066C26.2357 65.0852 26.5412 65.1005 26.8467 65.1005C34.558 65.1005 42.2724 65.1005 49.9837 65.1005H51.2057C51.5449 62.8977 52.0337 62.2439 53.2527 62.2958C54.4137 62.3416 54.8903 63.0474 55.0797 65.1005H56.2957C64.007 65.1005 71.7214 65.1005 79.4327 65.1005C79.7382 65.1005 80.0437 65.0882 80.3492 65.1066C81.5071 65.1707 82.2801 65.9254 82.2648 66.9611C82.2495 67.9937 81.4705 68.7117 80.2973 68.7667C79.9918 68.782 79.6862 68.7697 79.3807 68.7697C71.7061 68.7697 64.0314 68.7697 56.3599 68.7697H55.1317C54.817 70.7251 54.267 71.4339 53.1397 71.4155C52.0031 71.3972 51.4471 70.6426 51.2577 68.7697V68.7667Z" fill="#00323C"/>
<path d="M10.4215 68.7595C9.43158 68.7595 8.62195 67.9315 8.62501 66.9264C8.62501 65.9182 9.43769 65.1024 10.4306 65.1055C11.4236 65.1055 12.2301 65.9304 12.2271 66.9355C12.2271 67.9407 11.4113 68.7625 10.4215 68.7595Z" fill="#00323C"/>
<path d="M19.563 66.9203C19.5692 67.9254 18.7626 68.7534 17.7727 68.7595C16.7828 68.7656 15.9671 67.9499 15.961 66.9417C15.9549 65.9335 16.7584 65.1116 17.7513 65.1055C18.7443 65.0994 19.5569 65.9121 19.563 66.9203Z" fill="#00323C"/>
<path d="M86.7776 66.8411C86.8234 65.839 87.6789 65.0599 88.6718 65.1118C89.6648 65.1638 90.4255 66.0162 90.3797 67.0274C90.3339 68.0265 89.4753 68.8117 88.4855 68.7597C87.4925 68.7078 86.7287 67.8493 86.7776 66.8441V66.8411Z" fill="#00323C"/>
<path d="M95.8836 68.7597C94.8906 68.7414 94.0963 67.9103 94.1115 66.9021C94.1268 65.8939 94.9456 65.0904 95.9416 65.1057C96.9376 65.124 97.7289 65.952 97.7136 66.9602C97.6983 67.9653 96.8734 68.775 95.8836 68.7566V68.7597Z" fill="#00323C"/>
</svg>
