<svg xmlns="http://www.w3.org/2000/svg" viewBox="0 0 351.16 70.61"><defs><style>.cls-1</style></defs><g id="Layer_2" data-name="Layer 2"><g id="Layer_2-2" data-name="Layer 2"><path class="cls-1" d="M151.07,28.7h-6.82V26.23H160.7V28.7h-6.82V46.12h-2.81Z"/><path class="cls-1" d="M178.24,43.64v2.48H163.8V26.23h14V28.7h-11.2v6.11h10v2.41h-10v6.42Z"/><path class="cls-1" d="M181.14,36.17c0-5.88,4.49-10.17,10.54-10.17a9.82,9.82,0,0,1,7.56,3.1l-1.85,1.79a7.38,7.38,0,0,0-5.6-2.36,7.64,7.64,0,1,0,0,15.28,7.4,7.4,0,0,0,5.6-2.38l1.85,1.79a9.89,9.89,0,0,1-7.59,3.12C185.63,46.34,181.14,42.05,181.14,36.17Z"/><path class="cls-1" d="M220.41,26.23V46.12h-2.84V37.25H206.14v8.87H203.3V26.23h2.84v8.55h11.43V26.23Z"/><path class="cls-1" d="M243.48,26.23V46.12h-2.33L229.22,31.28V46.12h-2.84V26.23h2.33l11.93,14.83V26.23Z"/><path class="cls-1" d="M247.83,36.17c0-5.82,4.49-10.17,10.6-10.17S269,30.32,269,36.17s-4.49,10.17-10.54,10.17S247.83,42,247.83,36.17Zm18.3,0a7.73,7.73,0,1,0-7.7,7.64A7.47,7.47,0,0,0,266.13,36.17Z"/><path class="cls-1" d="M273.32,26.23h2.84V43.64h10.77v2.48H273.32Z"/><path class="cls-1" d="M288.21,36.17c0-5.82,4.49-10.17,10.6-10.17s10.54,4.32,10.54,10.17-4.49,10.17-10.54,10.17S288.21,42,288.21,36.17Zm18.3,0a7.73,7.73,0,1,0-7.7,7.64A7.46,7.46,0,0,0,306.51,36.17Z"/><path class="cls-1" d="M327.49,36.06h2.72v7.75a11.73,11.73,0,0,1-7.53,2.53c-6.1,0-10.59-4.29-10.59-10.17S316.58,26,322.74,26a10,10,0,0,1,7.64,3.07l-1.76,1.76a7.89,7.89,0,0,0-5.77-2.3c-4.6,0-7.92,3.21-7.92,7.64a7.54,7.54,0,0,0,7.9,7.64,8.52,8.52,0,0,0,4.66-1.27Z"/><path class="cls-1" d="M343.26,39.24v6.88h-2.81V39.18l-7.9-12.95h3L342,36.71l6.39-10.48h2.82Z"/><path class="cls-1" d="M97.66,6.33A24,24,0,0,0,78.32,16.1,23.92,23.92,0,0,0,59,6.33H47.16l0,9.36H59a14.65,14.65,0,0,1,13.88,9.94c0,.12.08.23.11.34s.14.46.19.69.12.48.17.72c.09.47.17.95.22,1.45s.07,1,.08,1.45v.08c0,.5,0,1-.08,1.47s-.13,1-.22,1.45c0,.24-.11.48-.17.71s-.12.46-.19.69-.07.23-.11.34A14.66,14.66,0,0,1,59,45a15,15,0,0,1-13.38-8.68c-.09-.19-.2-.4-.3-.6s-.12-.24-.19-.36L45,35A24,24,0,1,0,24,70.6H33.2V61.26H24a14.65,14.65,0,0,1-13.88-9.94L10,51c-.07-.23-.14-.45-.19-.68s-.12-.48-.17-.72c-.09-.47-.17-1-.22-1.45a14.76,14.76,0,0,1-.08-1.5c0-.13,0-.25,0-.38h0c0-.13,0-.25,0-.37h0l0-.37h0c0-.12,0-.24,0-.37h0c.05-.49.13-1,.22-1.45h0c0-.12,0-.24.08-.36h0L9.81,43h0c0-.24.12-.46.19-.69h0c0-.11.08-.22.11-.33A14.65,14.65,0,0,1,34.47,36.4a3.68,3.68,0,0,1,1,2.55V70.6h9.36V49.67A23.9,23.9,0,0,0,78.32,44.5a24,24,0,0,0,19.34,9.8H110V45L97.66,45A14.66,14.66,0,0,1,83.79,35c0-.11-.08-.23-.11-.34s-.14-.46-.2-.69-.12-.48-.16-.71c-.1-.48-.17-1-.23-1.45s-.07-1-.07-1.51V30h0c0-.12,0-.25,0-.37h0c0-.13,0-.25,0-.37h0l0-.36h0c.06-.49.13-1,.23-1.45h0c0-.12.05-.24.07-.35h0l.09-.34h0c.06-.23.12-.46.2-.69h0c0-.11.07-.22.11-.33a14.65,14.65,0,0,1,27.75,0c0,.12.08.23.11.34s.14.46.19.69.12.47.17.71c.09.48.17,1,.22,1.45a14.76,14.76,0,0,1,.08,1.5h0c0,.51,0,1.12,0,1.62V54.3h9.35v-24A24,24,0,0,0,97.66,6.33Z"/><rect class="cls-1" x="35.51" width="9.36" height="22.97"/></g></g></svg>