<svg width="45" height="46" viewBox="0 0 45 46" fill="none" xmlns="http://www.w3.org/2000/svg">
<g clip-path="url(#clip0_1_4)">
<path fill-rule="evenodd" clip-rule="evenodd" d="M17.5999 0.453125C23.3907 0.453125 28.0988 5.16355 28.0988 10.952C28.0988 16.7405 23.3883 21.4533 17.5999 21.4533C11.8114 21.4533 7.09861 16.7428 7.09861 10.952C7.09861 5.16116 11.809 0.453125 17.5999 0.453125ZM13.9651 23.3565C6.61445 23.3565 0.632812 29.3358 0.632812 36.6888V37.7311C0.632812 40.1805 2.62431 42.172 5.07373 42.172H25.1175C23.7676 40.3021 22.971 38.0053 22.971 35.5273C22.971 31.3082 25.2797 27.6186 28.6998 25.6557C26.5032 24.1674 23.8916 23.3565 21.2347 23.3565H13.9651ZM34.3475 25.5078C39.8712 25.5078 44.367 30.0036 44.367 35.5273C44.367 41.051 39.8712 45.5468 34.3475 45.5468C28.8238 45.5468 24.328 41.051 24.328 35.5273C24.328 30.0036 28.8238 25.5078 34.3475 25.5078ZM35.1203 36.2953C35.1203 36.3573 35.1203 36.4026 35.1203 36.4503C35.1203 36.8915 35.1227 38.7495 35.1203 39.1907C35.1179 39.4769 35.0106 39.713 34.7482 39.849C34.4787 39.9897 34.2044 39.9849 33.9445 39.8251C33.7131 39.6844 33.6153 39.465 33.6129 39.2026C33.6082 38.7566 33.6129 36.8963 33.6129 36.4503C33.6129 36.405 33.6129 36.3573 33.6129 36.2953C33.5581 36.2953 33.5175 36.2953 33.477 36.2953C33.0048 36.2953 31.1158 36.2953 30.6412 36.2953C30.2524 36.2953 29.9782 36.0449 29.9161 35.6489C29.8613 35.296 30.0712 34.9454 30.4098 34.838C30.5172 34.8046 30.6317 34.7903 30.7438 34.7879C31.1778 34.7832 33.0262 34.7879 33.4603 34.7856C33.5056 34.7856 33.5533 34.7808 33.6106 34.7784C33.6106 34.7259 33.6106 34.6854 33.6106 34.6425C33.6106 34.1893 33.6106 32.3194 33.6106 31.8663C33.6129 31.4871 33.8705 31.1866 34.245 31.1174C34.586 31.0554 34.939 31.2581 35.0654 31.5992C35.1012 31.697 35.1155 31.8043 35.1155 31.9092C35.1203 32.3505 35.1227 34.2084 35.1155 34.6496C35.1155 34.7617 35.1513 34.7856 35.2562 34.7856C35.707 34.7808 37.5697 34.7808 38.0205 34.7856C38.3758 34.7879 38.6191 34.9501 38.736 35.2554C38.9101 35.7181 38.6477 36.2929 38.0443 36.2953C37.5912 36.2977 35.7213 36.2953 35.2681 36.2953C35.2252 36.2953 35.1823 36.2953 35.1179 36.2953H35.1203Z"/>
</g>
<defs>
<linearGradient id="paint0_linear_1_4" x1="12.0452" y1="46.8824" x2="34.2402" y2="8.43819" gradientUnits="userSpaceOnUse">
<stop stop-color="#0091AE"/>
<stop offset="1" stop-color="#00BBE0"/>
</linearGradient>
<clipPath id="clip0_1_4">
<rect width="45" height="46" fill="white"/>
</clipPath>
</defs>
</svg>
