<svg width="23" height="22" viewBox="0 0 23 22" fill="none" xmlns="http://www.w3.org/2000/svg">
<path d="M20.4085 1.51855L18.4085 3.51855M18.4085 3.51855L21.4085 6.51855L17.9085 10.0186L14.9085 7.01855M18.4085 3.51855L14.9085 7.01855M10.7985 11.1286C11.3148 11.638 11.7253 12.2446 12.0062 12.9133C12.2872 13.5821 12.4331 14.2998 12.4355 15.0252C12.4379 15.7506 12.2969 16.4692 12.0204 17.1399C11.7439 17.8105 11.3375 18.4198 10.8246 18.9327C10.3117 19.4456 9.7024 19.852 9.03178 20.1285C8.36116 20.4049 7.64248 20.546 6.91711 20.5436C6.19174 20.5412 5.47402 20.3953 4.80527 20.1143C4.13652 19.8334 3.52994 19.4229 3.02048 18.9066C2.01861 17.8692 1.46424 16.4799 1.47677 15.0378C1.4893 13.5958 2.06773 12.2163 3.08748 11.1966C4.10722 10.1768 5.48669 9.59838 6.92877 9.58585C8.37085 9.57332 9.76017 10.1277 10.7975 11.1296L10.7985 11.1286ZM10.7985 11.1286L14.9085 7.01855"  stroke-width="2" stroke-linecap="round" stroke-linejoin="round"/>
</svg>