<svg width="123" height="16" viewBox="0 0 123 16" fill="none" xmlns="http://www.w3.org/2000/svg">
<path d="M14.5975 7.91395C14.5975 3.6377 11.5298 0.589844 6.23648 0.589844H0.520508V15.4065H6.15062C11.4869 15.4065 14.5975 12.2298 14.5975 7.95688V7.91395ZM10.3839 8.01962C10.3839 10.4137 8.7527 11.7675 6.29922 11.7675H4.62835V4.23208H6.29922C8.756 4.23208 10.3839 5.60907 10.3839 7.97999V8.02292V8.01962Z" fill="white"/>
<path d="M29.4102 4.18585H33.8548V15.4065H37.9627V4.18585H42.4073V0.589844H29.4102V4.18585Z" fill="white"/>
<path d="M73.4578 5.98498L70.41 0.589314H66.0512H65.7309H61.798L59.2158 9.16162L56.3561 0.546387H52.8229L49.9632 9.16162L47.381 0.589314H43.042L47.9952 15.5116H51.5714L54.5367 6.98222L57.5218 15.5116H61.098L65.9389 0.929433L71.3643 9.85837V15.4059H75.4919V9.79563L81.1221 0.589314H76.5288L73.4578 5.98498Z" fill="white"/>
<path d="M86.3295 0.589844H82.2217V15.4065H93.505V11.8072H86.3295V0.589844Z" fill="white"/>
<path d="M99.1548 9.56501H106.268V6.32563H99.1548V4.08019H107.011V0.589844H95.0898V15.4065H107.113V11.9128H99.1548V9.56501Z" fill="white"/>
<path d="M119.139 10.2419C120.981 9.45934 122.187 7.95688 122.187 5.69162V5.64869C122.187 4.18585 121.741 3.04332 120.873 2.19798C119.879 1.18092 118.31 0.589844 116.048 0.589844H109.041V15.4065H113.149V10.9189H114.949L117.934 15.4065H122.675L119.142 10.2419H119.139ZM118.059 5.94589C118.059 7.02568 117.253 7.70261 115.857 7.70261H113.149V4.14623H115.837C117.214 4.14623 118.059 4.74061 118.059 5.90296V5.94589Z" fill="white"/>
<path d="M24.5668 0.480957H20.6076L19.0391 4.19254H26.132L24.5668 0.480957Z" fill="white"/>
<path d="M22.6546 5.60547L24.2065 9.56471H20.8813L22.4531 5.60547H18.441L14.2969 15.4062H18.6161L19.676 12.7612H25.392L26.4718 15.4062H30.8735L26.7294 5.60547H22.6546Z" fill="white"/>
</svg>
