<svg width="216" height="27" viewBox="0 0 216 27" fill="none" xmlns="http://www.w3.org/2000/svg">
<path d="M24.8147 13.1032C24.8147 5.56512 19.4071 0.192383 10.0761 0.192383H0V26.311H9.92472C19.3314 26.311 24.8147 20.7112 24.8147 13.1789V13.1032ZM17.3872 13.2895C17.3872 17.5097 14.5116 19.8963 10.1867 19.8963H7.24126V6.61289H10.1867C14.5174 6.61289 17.3872 9.04023 17.3872 13.2197V13.2953V13.2895Z" fill="#EE3124"/>
<path d="M50.9277 6.5314H58.7627V26.311H66.004V6.5314H73.839V0.192383H50.9277V6.5314Z" fill="#EE3124"/>
<path d="M128.573 9.70234L123.2 0.190906H115.516H114.952H108.019L103.467 15.3021L98.4261 0.115234H92.1977L87.1568 15.3021L82.6048 0.190906H74.9561L83.6875 26.4958H89.9916L95.2188 11.4603L100.481 26.4958H106.785L115.319 0.790465L124.882 16.5303V26.3095H132.159V16.4197L142.083 0.190906H133.986L128.573 9.70234Z" fill="#EE3124"/>
<path d="M151.263 0.192383H144.021V26.311H163.912V19.9662H151.263V0.192383Z" fill="#EE3124"/>
<path d="M173.87 16.0137H186.408V10.3034H173.87V6.34513H187.718V0.192383H166.704V26.311H187.898V20.1524H173.87V16.0137Z" fill="#EE3124"/>
<path d="M209.101 17.207C212.349 15.8275 214.474 13.1789 214.474 9.18575V9.11008C214.474 6.5314 213.688 4.51735 212.157 3.02719C210.405 1.23433 207.64 0.192383 203.653 0.192383H191.301V26.311H198.542V18.4003H201.714L206.977 26.311H215.335L209.107 17.207H209.101ZM207.198 9.63396C207.198 11.5374 205.777 12.7307 203.315 12.7307H198.542V6.46155H203.28C205.708 6.46155 207.198 7.50932 207.198 9.55829V9.63396Z" fill="#EE3124"/>
<path d="M42.3869 0H35.4075L32.6426 6.54275H45.146L42.3869 0Z" fill="#EE3124"/>
<path d="M39.016 9.03418L41.7519 16.0135H35.8902L38.661 9.03418H31.5885L24.2832 26.3108H31.897L33.7655 21.6482H43.8416L45.7451 26.3108H53.5044L46.1991 9.03418H39.016Z" fill="#EE3124"/>
</svg>
