<svg width="162" height="30" viewBox="0 0 162 30" fill="none" xmlns="http://www.w3.org/2000/svg">
<path d="M31 15.003L20 26.0029L20.9994 27.0023L31.9993 16.0023L31 15.003Z" fill="white"/>
<path d="M17.9994 5.99673L17 6.99609L27.0006 16.9967L28 15.9973L17.9994 5.99673Z" fill="white"/>
<path d="M15.9969 7.99768L14.998 8.99756L22.0019 15.9941L23.0007 14.9942L15.9969 7.99768Z" fill="white"/>
<path d="M14.0015 1.99707L9 6.99854L9.99936 7.9979L15.0008 2.99643L14.0015 1.99707Z" fill="white"/>
<path d="M0.99936 15.0002L0 15.9995L14.0004 29.9999L14.9997 29.0005L0.99936 15.0002Z" fill="white"/>
<path d="M14.0012 6.00176L7.00098 13.002L8.00034 14.0013L15.0005 7.00112L14.0012 6.00176Z" fill="white"/>
<path d="M22.0012 19.9998L15.001 27L16.0003 27.9994L23.0005 20.9992L22.0012 19.9998Z" fill="white"/>
<path d="M16.0003 0.000152132L15.001 0.999512L26.0009 11.9995L27.0003 11.0001L16.0003 0.000152132Z" fill="white"/>
<path d="M2.99821 12.9995L1.99902 13.999L4.99996 16.9989L5.99915 15.9994L2.99821 12.9995Z" fill="white"/>
<path d="M53.5975 14.9139C53.5975 10.6377 50.5298 7.58984 45.2365 7.58984H39.5205V22.4065H45.1506C50.4869 22.4065 53.5975 19.2298 53.5975 14.9569V14.9139ZM49.3839 15.0196C49.3839 17.4137 47.7527 18.7675 45.2992 18.7675H43.6283V11.2321H45.2992C47.756 11.2321 49.3839 12.6091 49.3839 14.98V15.0229V15.0196Z" fill="white"/>
<path d="M68.4102 11.1859H72.8548V22.4065H76.9627V11.1859H81.4073V7.58984H68.4102V11.1859Z" fill="white"/>
<path d="M112.458 12.985L109.41 7.58931H105.051H104.731H100.798L98.2158 16.1616L95.3561 7.54639H91.8229L88.9632 16.1616L86.381 7.58931H82.042L86.9952 22.5116H90.5714L93.5367 13.9822L96.5218 22.5116H100.098L104.939 7.92943L110.364 16.8584V22.4059H114.492V16.7956L120.122 7.58931H115.529L112.458 12.985Z" fill="white"/>
<path d="M125.33 7.58984H121.222V22.4065H132.505V18.8072H125.33V7.58984Z" fill="white"/>
<path d="M138.155 16.565H145.268V13.3256H138.155V11.0802H146.011V7.58984H134.09V22.4065H146.113V18.9128H138.155V16.565Z" fill="white"/>
<path d="M158.139 17.2419C159.981 16.4593 161.187 14.9569 161.187 12.6916V12.6487C161.187 11.1859 160.741 10.0433 159.873 9.19798C158.879 8.18092 157.31 7.58984 155.048 7.58984H148.041V22.4065H152.149V17.9189H153.949L156.934 22.4065H161.675L158.142 17.2419H158.139ZM157.059 12.9459C157.059 14.0257 156.253 14.7026 154.857 14.7026H152.149V11.1462H154.837C156.214 11.1462 157.059 11.7406 157.059 12.903V12.9459Z" fill="white"/>
<path d="M63.5668 7.48096H59.6076L58.0391 11.1925H65.132L63.5668 7.48096Z" fill="white"/>
<path d="M61.6546 12.6055L63.2065 16.5647H59.8813L61.4531 12.6055H57.441L53.2969 22.4062H57.6161L58.676 19.7612H64.392L65.4718 22.4062H69.8735L65.7294 12.6055H61.6546Z" fill="white"/>
</svg>
