<svg width="24" height="25" viewBox="0 0 24 25" fill="none" xmlns="http://www.w3.org/2000/svg">
<path d="M18.2275 11.3683C16.8415 11.3741 15.7201 12.4993 15.7201 13.8863C14.3293 13.8863 13.2021 15.0135 13.2021 16.4043V24.0424H23.2746V16.4043C23.2746 15.0135 22.1474 13.8863 20.7566 13.8863C20.7566 12.4955 19.6294 11.3683 18.2386 11.3683V9.90298V9.381C18.2386 7.77781 16.9392 6.47842 15.336 6.47842H10.4887L7.91603 6.47648C7.90684 5.71939 7.29052 5.1084 6.5315 5.1084C5.77247 5.1084 5.14648 5.72858 5.14648 6.49341C5.14648 7.25824 5.76667 7.87843 6.5315 7.87843C7.29633 7.87843 7.91652 7.25824 7.91652 6.49341" stroke-width="1.45129" stroke-linecap="round" stroke-linejoin="round"/>
<path d="M5.07946 12.1531C2.57598 11.5087 0.725586 9.23596 0.725586 6.53075C0.725586 3.32485 3.32485 0.725586 6.53075 0.725586C9.73665 0.725586 12.3359 3.32485 12.3359 6.53075C12.3359 9.23596 10.486 11.5087 7.98204 12.1531V22.5917L6.53075 24.043L5.07946 22.5917V12.1531Z" stroke-width="1.45129" stroke-linecap="round" stroke-linejoin="round"/>
</svg>