<svg width="45" height="46" viewBox="0 0 45 46" fill="none" xmlns="http://www.w3.org/2000/svg">
<path fill-rule="evenodd" clip-rule="evenodd" d="M17.5999 0.453125C23.3907 0.453125 28.0988 5.16355 28.0988 10.952C28.0988 16.7405 23.3883 21.4533 17.5999 21.4533C11.8114 21.4533 7.09862 16.7428 7.09862 10.952C7.09862 5.16116 11.809 0.453125 17.5999 0.453125ZM13.9651 23.3565C6.61446 23.3565 0.632812 29.3358 0.632812 36.6888V37.7311C0.632812 40.1805 2.62431 42.172 5.07373 42.172H25.1175C23.7676 40.3021 22.971 38.0053 22.971 35.5273C22.971 31.3082 25.2797 27.6186 28.6998 25.6557C26.5032 24.1674 23.8916 23.3565 21.2347 23.3565H13.9651ZM34.3475 25.5078C39.8712 25.5078 44.367 30.0036 44.367 35.5273C44.367 41.051 39.8712 45.5468 34.3475 45.5468C28.8238 45.5468 24.328 41.051 24.328 35.5273C24.328 30.0036 28.8238 25.5078 34.3475 25.5078ZM31.3686 32.6677H30.708C29.9543 32.6677 29.339 33.2806 29.339 34.0367V39.1955C29.339 39.9491 29.9543 40.5645 30.708 40.5645H37.9871C38.7407 40.5645 39.3561 39.9515 39.3561 39.1955V34.0367C39.3561 33.283 38.7407 32.6677 37.9871 32.6677H37.3264V31.8257C37.3264 30.1825 35.9908 28.8469 34.3475 28.8469C32.7042 28.8469 31.3686 30.1825 31.3686 31.8257V32.6677ZM30.6961 34.0367C30.6961 34.0367 30.7032 34.0224 30.7104 34.0224H37.9895C37.9895 34.0224 38.0038 34.0295 38.0038 34.0367V39.1955C38.0038 39.1955 37.9966 39.2098 37.9895 39.2098H30.7104C30.7104 39.2098 30.6961 39.2026 30.6961 39.1955V34.0367ZM33.4317 36.8033C33.4531 36.8343 33.4794 36.8629 33.508 36.8915L33.5152 36.8987V37.5379C33.5152 38.0006 33.8896 38.3726 34.3499 38.3726C34.8102 38.3726 35.1871 37.9982 35.1871 37.5379V36.8987L35.1942 36.8915C35.4089 36.6769 35.5424 36.3788 35.5424 36.0496C35.5424 35.7205 35.4089 35.4224 35.1942 35.2077C34.9772 34.9931 34.679 34.8595 34.3523 34.8595C34.0256 34.8595 33.7322 34.9931 33.5152 35.2077L33.5104 35.2125C33.2957 35.4295 33.1622 35.7253 33.1622 36.052C33.1622 36.3382 33.2647 36.6006 33.4364 36.8081L33.4317 36.8033ZM32.7257 32.6653H35.9741V31.8234C35.9741 30.9266 35.2443 30.1992 34.3499 30.1992C33.4555 30.1992 32.7257 30.929 32.7257 31.8234V32.6653Z" />
</svg>
