<svg width="52" height="57" viewBox="0 0 52 57" fill="none" xmlns="http://www.w3.org/2000/svg">
<path d="M25.5356 56.1041C23.787 56.1041 22.0471 55.6559 20.4918 54.7509L5.04385 45.7879C1.93318 43.9865 0 40.621 0 37.0095V19.0924C0 15.4809 1.93318 12.1154 5.04385 10.314L20.4918 1.35103C23.6024 -0.450344 27.4688 -0.450344 30.5882 1.35103L46.0361 10.314C49.1468 12.1154 51.08 15.4809 51.08 19.0924V37.0095C51.08 40.621 49.1468 43.9865 46.0361 45.7879L30.5882 54.7509C29.0329 55.6559 27.2843 56.1041 25.5444 56.1041H25.5356ZM25.5356 5.59525C24.7535 5.59525 23.9715 5.79736 23.2773 6.20157L7.82061 15.1645C6.42344 15.9729 5.5623 17.4755 5.5623 19.0924V37.0095C5.5623 38.6263 6.43223 40.129 7.82061 40.9374L23.2773 49.9003C24.6745 50.7087 26.4055 50.7087 27.7939 49.9003L43.2506 40.9374C44.6478 40.129 45.5089 38.6263 45.5089 37.0095V19.0924C45.5089 17.4755 44.639 15.9729 43.2506 15.1645L27.7939 6.20157C27.0997 5.79736 26.3177 5.59525 25.5356 5.59525V5.59525Z" fill="#3C56A0"/>
<path d="M25.1314 38.3273C30.7852 38.3273 35.3685 33.7243 35.3685 28.0463C35.3685 22.3682 30.7852 17.7653 25.1314 17.7653C19.4776 17.7653 14.8943 22.3682 14.8943 28.0463C14.8943 33.7243 19.4776 38.3273 25.1314 38.3273Z" fill="#0B2464"/>
</svg>
