<svg width="52" height="56" viewBox="0 0 52 56" fill="none" xmlns="http://www.w3.org/2000/svg">
<path d="M25.6007 56C23.8511 56 22.1015 55.5483 20.5439 54.6501L5.05681 45.7099C1.93654 43.9083 0 40.5492 0 36.9461V19.0552C0 15.4521 1.93654 12.093 5.05681 10.2914L20.5439 1.35116C23.6642 -0.450388 27.5425 -0.450388 30.6627 1.35116L46.1499 10.2914C49.2701 12.093 51.2067 15.4521 51.2067 19.0552V36.9409C51.2067 40.544 49.2701 43.9031 46.1499 45.7047L30.6627 54.6501C29.1052 55.5483 27.3556 56 25.6059 56H25.6007ZM25.6007 5.58767C24.8168 5.58767 24.0328 5.79015 23.3371 6.19511L7.8448 15.1354C6.44821 15.9401 5.58118 17.4457 5.58118 19.0552V36.9409C5.58118 38.5556 6.44821 40.056 7.8448 40.8607L23.3371 49.8062C24.7337 50.6109 26.4678 50.6109 27.8644 49.8062L43.3567 40.8607C44.7533 40.056 45.6203 38.5504 45.6203 36.9409V19.0552C45.6203 17.4405 44.7533 15.9401 43.3567 15.1354L27.8696 6.18992C27.1687 5.78496 26.3899 5.58248 25.6059 5.58248L25.6007 5.58767Z" fill="#4326BF"/>
<path d="M36.1921 20.6647H15.0095C13.6597 20.6647 12.5642 21.7601 12.5642 23.11V32.8862C12.5642 34.236 13.6597 35.3315 15.0095 35.3315H36.1869C37.5367 35.3315 38.6322 34.236 38.6322 32.8862V23.11C38.6322 21.7601 37.5367 20.6647 36.1869 20.6647H36.1921ZM15.4924 24.6624C15.3107 24.2522 15.4924 23.7694 15.9077 23.5877C16.3179 23.4059 16.8007 23.5877 16.9824 24.003L17.865 25.9966L18.7476 24.003C18.9293 23.5928 19.4122 23.4059 19.8223 23.5877C20.2325 23.7694 20.4194 24.2522 20.2377 24.6624L18.758 27.9955L20.2377 31.3286C20.4765 31.8686 20.0767 32.476 19.4953 32.476C19.1837 32.476 18.8878 32.2943 18.7528 31.9932L17.8702 30.0047L16.9876 31.9932C16.8526 32.2943 16.5567 32.476 16.2452 32.476C15.6637 32.476 15.2588 31.8738 15.5028 31.3286L16.9824 27.9955L15.5028 24.6624H15.4924ZM25.606 28.8106H25.201C24.7494 28.8106 24.3859 28.4472 24.3859 27.9955C24.3859 27.5438 24.7494 27.1804 25.201 27.1804H25.606C25.8292 27.1804 26.011 26.9987 26.011 26.7754V25.5553C26.011 25.3321 25.8292 25.1504 25.606 25.1504H23.9758C23.5241 25.1504 23.1607 24.787 23.1607 24.3353C23.1607 23.8836 23.5241 23.5202 23.9758 23.5202H25.606C26.7274 23.5202 27.6412 24.4339 27.6412 25.5553C27.6412 26.7443 27.7398 27.3257 27.231 28.0007C27.4854 28.3433 27.6412 28.7639 27.6412 29.2207V30.4408C27.6412 31.5623 26.7274 32.476 25.606 32.476H23.9758C23.5241 32.476 23.1607 32.1126 23.1607 31.6609C23.1607 31.2092 23.5241 30.8458 23.9758 30.8458H25.606C25.8292 30.8458 26.011 30.6641 26.011 30.4408V29.2207C26.011 28.9975 25.8292 28.8158 25.606 28.8158V28.8106ZM22.3456 28.8106H21.1255C20.6738 28.8106 20.3104 28.4472 20.3104 27.9955C20.3104 27.5438 20.6738 27.1804 21.1255 27.1804H22.3456C22.7972 27.1804 23.1607 27.5438 23.1607 27.9955C23.1607 28.4472 22.7972 28.8106 22.3456 28.8106ZM32.5267 30.8458C32.9783 30.8458 33.3418 31.2092 33.3418 31.6609C33.3418 32.1126 32.9783 32.476 32.5267 32.476H29.2662C28.6172 32.476 28.2279 31.7492 28.5861 31.2092L31.1664 27.3361C31.5194 26.8066 31.7064 26.1887 31.7064 25.5502C31.7064 25.3269 31.5246 25.1452 31.3014 25.1452H30.4863C30.263 25.1452 30.0813 25.3269 30.0813 25.5502C30.0813 26.0018 29.7179 26.3653 29.2662 26.3653C28.8145 26.3653 28.4511 26.0018 28.4511 25.5502C28.4511 24.4287 29.3649 23.515 30.4863 23.515H31.3014C32.4228 23.515 33.3366 24.4287 33.3366 25.5502C33.3366 26.5106 33.0562 27.44 32.5215 28.2395L30.7874 30.8458H32.5215H32.5267ZM35.7871 31.6609C35.7871 32.1126 35.4237 32.476 34.972 32.476C34.5203 32.476 34.1569 32.1126 34.1569 31.6609V24.3301C34.1569 23.8784 34.5203 23.515 34.972 23.515C35.4237 23.515 35.7871 23.8784 35.7871 24.3301V31.6609Z" fill="#0B2463"/>
</svg>
