<svg width="52" height="56" viewBox="0 0 52 56" fill="none" xmlns="http://www.w3.org/2000/svg">
<path d="M25.5379 55.8625C23.7925 55.8625 22.0472 55.4119 20.4935 54.516L5.04439 45.5976C1.93178 43.8005 0 40.4497 0 36.8554V19.0084C0 15.4141 1.93178 12.0633 5.04439 10.2662L20.4883 1.34785C23.6009 -0.449282 27.4697 -0.449282 30.5823 1.34785L46.0314 10.2662C49.144 12.0633 51.0758 15.4141 51.0758 19.0084V36.8502C51.0758 40.4445 49.144 43.7953 46.0314 45.5925L30.5823 54.516C29.0286 55.4119 27.2832 55.8625 25.5379 55.8625ZM25.5379 5.57395C24.7558 5.57395 23.9738 5.77593 23.2798 6.1799L7.82554 15.0982C6.43238 15.901 5.56748 17.4029 5.56748 19.0084V36.8502C5.56748 38.4609 6.43238 39.9576 7.82554 40.7604L23.2798 49.6839C24.673 50.4867 26.4028 50.4867 27.7959 49.6839L43.2502 40.7604C44.6434 39.9576 45.5083 38.4557 45.5083 36.8502V19.0084C45.5083 17.3977 44.6434 15.901 43.2502 15.0982L27.7959 6.1799C27.0968 5.77593 26.3199 5.57395 25.5379 5.57395V5.57395Z" fill="#6682AA"/>
<path d="M16.5314 20.8884C17.667 20.8884 18.5875 19.9679 18.5875 18.8323C18.5875 17.6968 17.667 16.7762 16.5314 16.7762C15.3959 16.7762 14.4753 17.6968 14.4753 18.8323C14.4753 19.9679 15.3959 20.8884 16.5314 20.8884Z" fill="#0B2463"/>
<path d="M28.7333 29.2371C29.5743 29.2371 30.256 28.5553 30.256 27.7144C30.256 26.8735 29.5743 26.1918 28.7333 26.1918C27.8924 26.1918 27.2107 26.8735 27.2107 27.7144C27.2107 28.5553 27.8924 29.2371 28.7333 29.2371Z" fill="#0B2463"/>
<path d="M35.1087 28.3981C35.9891 27.326 36.4656 25.9898 36.4656 24.5708C36.4656 21.2665 33.8191 18.5734 30.5615 18.5734C29.2201 18.5734 27.915 19.0447 26.874 19.8889C26.0971 18.8531 24.8749 18.2161 23.5646 18.2161C21.3738 18.2161 19.5715 19.9459 19.4213 22.1314C19.4058 22.1314 19.3851 22.1314 19.3695 22.1314C16.6713 22.1314 14.4753 24.3429 14.4753 27.0619C14.4753 28.0614 14.7757 29.0247 15.3506 29.8534C15.7701 30.4645 16.3139 30.9669 16.9457 31.3294C16.7282 31.8939 16.6195 32.4999 16.6195 33.111C16.6195 35.83 18.7947 38.0415 21.4722 38.0415C22.9845 38.0415 24.3777 37.3319 25.284 36.1615C26.4234 37.9897 28.4173 39.1498 30.5615 39.1498C32.2343 39.1498 33.8139 38.4817 35.0103 37.2646C36.2014 36.0527 36.8592 34.4472 36.8592 32.7537C36.8592 31.0601 36.2273 29.5789 35.1087 28.3877V28.3981ZM25.1753 29.6721C25.0976 29.7602 25.0199 29.8482 24.9318 29.9207C24.4916 30.3143 23.9271 30.5215 23.3004 30.5215C21.7364 30.5215 20.4675 29.2526 20.4675 27.6885C20.4675 26.1245 21.7364 24.8556 23.3004 24.8556C23.8701 24.8556 24.4139 25.0213 24.8852 25.3424C25.1856 25.5444 25.2633 25.9536 25.0613 26.2539C24.8593 26.5543 24.4502 26.632 24.1498 26.43C23.896 26.2591 23.606 26.1711 23.3004 26.1711C22.4614 26.1711 21.7778 26.8547 21.7778 27.6937C21.7778 28.5327 22.4614 29.2164 23.3004 29.2164C23.606 29.2164 23.8598 29.1283 24.0618 28.9522C24.098 28.916 24.1394 28.8797 24.1705 28.8383C24.4036 28.5586 24.8179 28.5224 25.0924 28.7554C25.3721 28.9885 25.4083 29.4028 25.1753 29.6773V29.6721ZM25.9055 27.7144C25.9055 26.1504 27.1744 24.8815 28.7384 24.8815C30.3025 24.8815 31.5714 26.1504 31.5714 27.7144C31.5714 29.2785 30.3025 30.5474 28.7384 30.5474C27.1744 30.5474 25.9055 29.2785 25.9055 27.7144ZM32.6745 35.2292C32.1773 35.2344 31.8148 35.2396 31.5507 35.2396C30.8722 35.2396 30.8152 35.2189 30.7272 35.193C30.52 35.1257 30.3595 34.9599 30.2922 34.7528C30.1834 34.4058 30.3595 34.1779 30.5822 33.8879C30.7531 33.6652 31.0742 33.2457 31.6076 32.4792C31.7682 32.2513 31.8355 32.0959 31.8614 31.9975V31.9613C31.851 31.8577 31.763 31.7748 31.6542 31.7748C31.5403 31.7748 31.4626 31.8629 31.4419 31.9457C31.3746 32.3031 31.0276 32.531 30.6702 32.4636C30.3129 32.3963 30.085 32.0493 30.1523 31.6919C30.2922 30.9772 30.924 30.4593 31.6491 30.4593C32.4881 30.4593 33.1769 31.143 33.1769 31.9872C33.1769 32.013 33.1769 32.0441 33.1717 32.07L33.1562 32.1995C33.1562 32.1995 33.151 32.2409 33.1458 32.2668C33.0733 32.5724 32.9231 32.8883 32.6849 33.2301C32.4932 33.4994 32.3327 33.7273 32.1929 33.9241C32.3482 33.9241 32.5088 33.9241 32.6642 33.9241H32.6745C33.0319 33.9241 33.3271 34.2141 33.3323 34.5715C33.3323 34.934 33.0474 35.2292 32.6849 35.2344L32.6745 35.2292Z" fill="#0B2463"/>
</svg>
