<svg width="52" height="56" viewBox="0 0 52 56" fill="none" xmlns="http://www.w3.org/2000/svg">
<path d="M25.5379 55.8625C23.7925 55.8625 22.0472 55.4119 20.4935 54.516L5.04439 45.5976C1.93178 43.8005 0 40.4497 0 36.8554V19.0084C0 15.4141 1.93178 12.0633 5.04439 10.2662L20.4883 1.34785C23.6009 -0.449282 27.4697 -0.449282 30.5823 1.34785L46.0314 10.2662C49.144 12.0633 51.0758 15.4141 51.0758 19.0084V36.8502C51.0758 40.4445 49.144 43.7953 46.0314 45.5925L30.5823 54.516C29.0286 55.4119 27.2832 55.8625 25.5379 55.8625ZM25.5379 5.57395C24.7558 5.57395 23.9738 5.77593 23.2798 6.1799L7.82554 15.1034C6.43238 15.9062 5.56748 17.4081 5.56748 19.0136V36.8554C5.56748 38.4661 6.43238 39.9628 7.82554 40.7656L23.2798 49.6891C24.673 50.4918 26.4028 50.4918 27.7959 49.6891L43.2502 40.7656C44.6434 39.9628 45.5083 38.4609 45.5083 36.8554V19.0084C45.5083 17.3977 44.6434 15.901 43.2502 15.0982L27.8011 6.17472C27.102 5.77075 26.3251 5.56877 25.5431 5.56877L25.5379 5.57395Z" fill="#F4CF14"/>
<path d="M34.0264 24.3273H28.5263L31.0019 16.3257H23.4249L20.4263 30.6665H24.093L23.1608 41.2783L34.0213 24.3273H34.0264Z" fill="#0B2463"/>
</svg>
