<svg width="52" height="56" viewBox="0 0 52 56" fill="none" xmlns="http://www.w3.org/2000/svg">
<path d="M25.5379 56C23.7925 56 22.0472 55.5494 20.4935 54.6534L5.04439 45.7351C1.93178 43.938 0 40.5871 0 36.9929V19.1459C0 15.5516 1.93178 12.2007 5.04439 10.4036L20.4883 1.4853C23.6009 -0.311831 27.4697 -0.311831 30.5823 1.4853L46.0314 10.4036C49.144 12.2007 51.0758 15.5516 51.0758 19.1459V36.9877C51.0758 40.5819 49.144 43.9328 46.0314 45.7299L30.5823 54.6534C29.0286 55.5494 27.2832 56 25.5379 56V56ZM25.5379 5.7114C24.7558 5.7114 23.9738 5.91338 23.2798 6.31735L7.82554 15.2408C6.43238 16.0436 5.56748 17.5455 5.56748 19.151V36.9929C5.56748 38.6035 6.43238 40.1003 7.82554 40.903L23.2798 49.8265C24.673 50.6293 26.4028 50.6293 27.7959 49.8265L43.2502 40.903C44.6434 40.1003 45.5083 38.5984 45.5083 36.9929V19.1459C45.5083 17.5352 44.6434 16.0384 43.2502 15.2357L27.8011 6.31217C27.102 5.90821 26.3251 5.70622 25.5431 5.70622L25.5379 5.7114Z" fill="#15B5AC"/>
<path d="M32.8405 18.8662L26.7085 23.3202L36.9785 30.7832C37.1857 29.9131 37.2945 29.0068 37.2945 28.0746C37.2945 24.3456 35.5491 21.0207 32.8405 18.8662Z" fill="#0B2463"/>
<path d="M31.644 18.0324C29.8624 16.9448 27.7701 16.3181 25.5327 16.3181C23.1296 16.3181 20.8923 17.0432 19.0278 18.2862L21.3688 25.4954L31.6388 18.0324H31.644Z" fill="#0B2463"/>
<path d="M17.873 19.1614C15.3663 21.321 13.7764 24.5113 13.7764 28.0745C13.7764 29.1673 13.9266 30.229 14.2062 31.2337H21.7935L17.873 19.1666V19.1614Z" fill="#0B2463"/>
<path d="M14.688 32.6115C16.4074 36.7081 20.3746 39.6291 25.0409 39.8259L27.387 32.6115H14.6932H14.688Z" fill="#0B2463"/>
<path d="M26.4961 39.7947C31.121 39.4166 34.995 36.3558 36.5539 32.1763L30.4167 27.7172L26.491 39.7947H26.4961Z" fill="#0B2463"/>
</svg>
