<svg width="52" height="56" viewBox="0 0 52 56" fill="none" xmlns="http://www.w3.org/2000/svg">
<path d="M25.5379 56C23.7925 56 22.0472 55.5494 20.4935 54.6534L5.04439 45.7351C1.93178 43.938 0 40.5871 0 36.9929V19.1459C0 15.5516 1.93178 12.2007 5.04439 10.4036L20.4935 1.4853C23.6061 -0.311831 27.4748 -0.311831 30.5875 1.4853L46.0366 10.4036C49.1492 12.2007 51.0809 15.5516 51.0809 19.1459V36.9877C51.0809 40.5819 49.1492 43.9328 46.0366 45.7299L30.5875 54.6534C29.0337 55.5494 27.2884 56 25.5431 56H25.5379ZM25.5379 5.7114C24.7558 5.7114 23.9738 5.91338 23.2798 6.31735L7.82554 15.2357C6.43238 16.0384 5.56748 17.5403 5.56748 19.1459V36.9877C5.56748 38.5984 6.43238 40.0951 7.82554 40.8979L23.2798 49.8214C24.673 50.6241 26.4028 50.6241 27.7959 49.8214L43.2502 40.8979C44.6434 40.0951 45.5083 38.5932 45.5083 36.9877V19.1459C45.5083 17.5352 44.6434 16.0384 43.2502 15.2357L27.7959 6.31735C27.0968 5.91338 26.3199 5.7114 25.5379 5.7114V5.7114Z" fill="#17AF75"/>
<path d="M32.3586 18.5244C30.6599 17.3125 28.6194 16.5356 26.3924 16.3699C23.9945 16.1938 21.7157 16.7583 19.7632 17.8614L21.5759 25.2209L32.3586 18.5244Z" fill="#0B2463"/>
<path d="M18.5357 18.6591C15.8789 20.6323 14.0662 23.6983 13.8073 27.2511C13.7296 28.3439 13.8021 29.4108 14.0092 30.431L21.5758 30.98L18.5409 18.6591H18.5357Z" fill="#0B2463"/>
<path d="M14.3872 31.8397C15.8063 36.0451 19.5507 39.2509 24.1911 39.7844L27.05 32.7616L14.3872 31.8397Z" fill="#0B2463"/>
<path d="M25.6465 39.862C30.2869 39.8206 34.3732 37.0498 36.2325 32.9946L30.4371 28.1056L25.6465 39.8672V39.862Z" fill="#0B2463"/>
<path d="M37.5689 18.5347C36.8179 18.5347 36.2068 19.1406 36.2068 19.8916C36.2068 20.2438 36.3414 20.5856 36.59 20.8393L34.1041 25.8112C34.0471 25.8009 33.9953 25.7957 33.9384 25.7957C33.7623 25.7957 33.5862 25.8319 33.4256 25.8993L31.4938 23.7293C31.6078 23.5324 31.6648 23.3046 31.6699 23.0767C31.6699 22.3257 31.0588 21.7146 30.3078 21.7146C29.5569 21.7146 28.9458 22.3257 28.9458 23.0767C28.9458 23.403 29.0649 23.7137 29.2772 23.9623L26.9156 28.0952C26.8379 28.0797 26.755 28.0693 26.6721 28.0693C25.9212 28.0693 25.3101 28.6804 25.3101 29.4314C25.3101 30.1823 25.9212 30.7935 26.6721 30.7935C27.4231 30.7935 28.0342 30.1823 28.0342 29.4314C28.0342 29.1051 27.9151 28.7944 27.7028 28.5458L30.0644 24.4129C30.3182 24.4647 30.5823 24.4336 30.8206 24.3352L32.7523 26.5052C32.6384 26.7072 32.5814 26.9299 32.5814 27.1578C32.5814 27.9087 33.1874 28.5199 33.9384 28.5251C34.6893 28.5251 35.3004 27.9191 35.3056 27.1681C35.3056 26.816 35.171 26.4741 34.9224 26.2152L37.4083 21.2433C37.4653 21.2537 37.5171 21.2588 37.574 21.2588C38.325 21.2588 38.9361 20.6477 38.9361 19.8968C38.9361 19.1458 38.325 18.5347 37.574 18.5347H37.5689ZM26.6773 29.882C26.4287 29.882 26.2216 29.68 26.2216 29.4262C26.2216 29.1724 26.4236 28.9704 26.6773 28.9704C26.9311 28.9704 27.1331 29.1724 27.1331 29.4262C27.1331 29.68 26.9311 29.882 26.6773 29.882ZM30.3078 23.5273C30.0592 23.5273 29.8521 23.3253 29.8521 23.0715C29.8521 22.8177 30.0541 22.6158 30.3078 22.6158C30.5616 22.6158 30.7636 22.8177 30.7636 23.0715C30.7636 23.3253 30.5616 23.5273 30.3078 23.5273ZM33.9384 27.6135C33.6898 27.6135 33.4826 27.4116 33.4826 27.1578C33.4826 26.904 33.6846 26.702 33.9384 26.702C34.1921 26.702 34.3941 26.904 34.3941 27.1578C34.3941 27.4064 34.1921 27.6135 33.9384 27.6135ZM37.5689 20.3525C37.3203 20.3525 37.1131 20.1505 37.1131 19.8968C37.1131 19.643 37.3151 19.441 37.5689 19.441C37.8226 19.441 38.0246 19.643 38.0246 19.8968C38.0246 20.1505 37.8226 20.3525 37.5689 20.3525Z" fill="#0B2463"/>
</svg>
