<svg width="52" height="56" viewBox="0 0 52 56" fill="none" xmlns="http://www.w3.org/2000/svg">
<path d="M25.5379 55.8625C23.7925 55.8625 22.0472 55.4119 20.4935 54.516L5.04439 45.5976C1.93179 43.8005 0 40.4497 0 36.8554V19.0084C0 15.4141 1.93179 12.0633 5.04439 10.2662L20.4935 1.34785C23.6061 -0.449282 27.4748 -0.449282 30.5875 1.34785L46.0366 10.2662C49.1492 12.0633 51.0809 15.4141 51.0809 19.0084V36.8502C51.0809 40.4445 49.1492 43.7953 46.0366 45.5925L30.5875 54.516C29.0337 55.4119 27.2884 55.8625 25.5431 55.8625H25.5379ZM25.5379 5.57395C24.7558 5.57395 23.9738 5.77593 23.2798 6.1799L7.82554 15.0982C6.43238 15.901 5.56748 17.4029 5.56748 19.0084V36.8502C5.56748 38.4609 6.43238 39.9576 7.82554 40.7604L23.2798 49.6839C24.673 50.4867 26.4028 50.4867 27.7959 49.6839L43.2502 40.7604C44.6434 39.9576 45.5083 38.4557 45.5083 36.8502V19.0084C45.5083 17.3977 44.6434 15.901 43.2502 15.0982L27.7959 6.1799C27.0968 5.77593 26.3199 5.57395 25.5379 5.57395V5.57395Z" fill="#00607B"/>
<path d="M23.1814 16.4188H24.528V18.3351H23.1814V16.4188Z" fill="#0B2463"/>
<path d="M18.9036 17.926L20.0689 17.2527L21.027 18.91L19.8617 19.5833L18.9036 17.926Z" fill="#0B2463"/>
<path d="M15.9514 21.37L16.6247 20.2047L18.282 21.1628L17.6087 22.3281L15.9514 21.37V21.37Z" fill="#0B2463"/>
<path d="M15.1177 24.4774H17.0339V25.824H15.1177V24.4774Z" fill="#0B2463"/>
<path d="M15.9463 28.9366L17.6036 27.9785L18.2769 29.1438L16.6196 30.1019L15.9463 28.9366V28.9366Z" fill="#0B2463"/>
<path d="M29.4221 21.1628L31.0794 20.2047L31.7527 21.37L30.0954 22.3281L29.4221 21.1628Z" fill="#0B2463"/>
<path d="M26.6824 18.91L27.6405 17.2527L28.8058 17.926L27.8477 19.5833L26.6824 18.91Z" fill="#0B2463"/>
<path d="M24.1344 26.8184C24.2225 26.8184 24.3053 26.8184 24.3934 26.8235C24.8232 25.9897 25.4499 25.275 26.2319 24.7364C27.1279 24.1201 28.1689 23.7783 29.2565 23.7472C28.982 22.701 28.4123 21.7533 27.5992 21.0127C26.5737 20.0856 25.2427 19.5729 23.8547 19.5729C20.7784 19.5729 18.2717 22.0795 18.2717 25.1559C18.2717 26.6682 18.8725 28.0872 19.9394 29.1334C20.825 27.7195 22.3943 26.8184 24.1396 26.8184H24.1344Z" fill="#0B2463"/>
<path d="M22.6377 38.87L23.8755 39.4034L25.0201 36.7362H23.5544L22.6377 38.87Z" fill="#00607B"/>
<path d="M25.9834 38.87L27.2212 39.4034L28.3658 36.7362H26.9001L25.9834 38.87Z" fill="#00607B"/>
<path d="M29.3291 38.87L30.5669 39.4034L31.7115 36.7362H30.2458L29.3291 38.87Z" fill="#00607B"/>
<path d="M36.8179 32.536C36.8179 31.1066 35.751 29.8844 34.3319 29.7031L33.7881 29.6306L33.7467 29.0816C33.669 27.9992 33.1822 26.9893 32.3846 26.2435C31.5818 25.4925 30.5357 25.0834 29.4377 25.0834C27.6665 25.0834 26.092 26.1451 25.4291 27.792L25.2271 28.2892L24.6989 28.2063C24.5124 28.1753 24.3208 28.1597 24.1344 28.1597C22.4719 28.1597 21.0269 29.2836 20.6281 30.8994L20.5039 31.4018L19.9859 31.4122C18.9087 31.4329 18.0334 32.3237 18.0334 33.4009C18.0334 34.4782 18.9242 35.3897 20.0222 35.3897H33.959C35.5334 35.3897 36.8127 34.1105 36.8127 32.536H36.8179Z" fill="#00607B"/>
</svg>
