<svg width="52" height="56" viewBox="0 0 52 56" fill="none" xmlns="http://www.w3.org/2000/svg">
<path d="M25.6107 56C23.8625 56 22.1143 55.5511 20.5509 54.6479L5.05982 45.7061C1.93837 43.905 0 40.5459 0 36.9438V19.0549C0 15.4528 1.93837 12.0937 5.05982 10.2926L20.5509 1.35078C23.6723 -0.450261 27.5491 -0.450261 30.6705 1.35078L46.1616 10.2926C49.2831 12.0937 51.2214 15.4528 51.2214 19.0549V36.9438C51.2214 40.5459 49.2831 43.905 46.1616 45.7061L30.6705 54.6479C29.1124 55.5511 27.3589 56 25.6107 56V56ZM25.6107 5.58666C24.829 5.58666 24.0473 5.78737 23.3449 6.19405L7.85381 15.1359C6.45946 15.944 5.58798 17.444 5.58798 19.0602V36.9491C5.58798 38.56 6.45417 40.0653 7.85381 40.8734L23.3449 49.8152C24.7445 50.6233 26.4769 50.6233 27.8713 49.8152L43.3623 40.8734C44.7567 40.0653 45.6282 38.5653 45.6282 36.9491V19.0549C45.6282 17.444 44.762 15.9387 43.3623 15.1306L27.8713 6.18877C27.1741 5.78737 26.3871 5.58138 25.6054 5.58138L25.6107 5.58666Z" fill="#5B93FF"/>
<path d="M21.5913 21.4264H14.6512C14.2866 21.4264 13.991 21.722 13.991 22.0866V33.9122C13.991 34.2768 14.2866 34.5724 14.6512 34.5724H21.5913C21.9559 34.5724 22.2515 34.2768 22.2515 33.9122V22.0866C22.2515 21.722 21.9559 21.4264 21.5913 21.4264Z" fill="#0B2463"/>
<path d="M32.9046 34.5355C36.5159 34.5355 39.4433 31.608 39.4433 27.9968C39.4433 24.3856 36.5159 21.4581 32.9046 21.4581C29.2934 21.4581 26.366 24.3856 26.366 27.9968C26.366 31.608 29.2934 34.5355 32.9046 34.5355Z" fill="#0B2463"/>
</svg>
