<svg width="52" height="56" viewBox="0 0 52 56" fill="none" xmlns="http://www.w3.org/2000/svg">
<path d="M25.5402 55.8676C23.7947 55.8676 22.0492 55.417 20.4954 54.5209L5.04485 45.6018C1.93196 43.8045 0 40.4533 0 36.8588V19.0101C0 15.4155 1.93196 12.0644 5.04485 10.2671L20.4954 1.34797C23.6083 -0.449323 27.4773 -0.449323 30.5902 1.34797L46.0407 10.2671C49.1536 12.0644 51.0856 15.4155 51.0856 19.0101V36.8536C51.0856 40.4482 49.1536 43.7993 46.0407 45.5966L30.5902 54.5209C29.0364 55.417 27.2909 55.8676 25.5454 55.8676H25.5402ZM25.5402 5.57446C24.7581 5.57446 23.976 5.77646 23.2819 6.18046L7.83143 15.0996C6.43814 15.9024 5.57316 17.4045 5.57316 19.0101V36.8536C5.57316 38.4644 6.43814 39.9613 7.83143 40.7641L23.2871 49.6884C24.6804 50.4912 26.4104 50.4912 27.8037 49.6884L43.2593 40.7641C44.6526 39.9613 45.5176 38.4592 45.5176 36.8536V19.0101C45.5176 17.3993 44.6526 15.9024 43.2593 15.0996L27.8037 6.18046C27.1044 5.77646 26.3275 5.57446 25.5454 5.57446H25.5402Z" fill="#F29222"/>
<path d="M19.5889 19.4297C17.9004 19.4297 16.5278 20.8023 16.5278 22.4908V25.5674H22.6448V22.4908C22.6448 20.8023 21.2723 19.4297 19.5837 19.4297H19.5889Z" fill="#F29222"/>
<path d="M19.5683 18.8133C19.7392 18.8133 19.8739 18.6786 19.8739 18.5077V17.2853C19.8739 17.1144 19.7392 16.9797 19.5683 16.9797C19.3974 16.9797 19.2627 17.1144 19.2627 17.2853V18.5077C19.2627 18.6786 19.3974 18.8133 19.5683 18.8133Z" fill="#F29222"/>
<path d="M17.1598 19.2483C17.2426 19.3933 17.4343 19.4451 17.5793 19.3623C17.7243 19.2794 17.7761 19.0929 17.6933 18.9427L17.0821 17.8809C16.9992 17.7359 16.8127 17.6841 16.6625 17.767C16.5175 17.8498 16.4657 18.0363 16.5486 18.1865L17.1598 19.2483Z" fill="#F29222"/>
<path d="M16.1291 20.8281C16.212 20.6831 16.1654 20.4966 16.0152 20.4086L14.9534 19.7974C14.8083 19.7145 14.6219 19.7611 14.5338 19.9113C14.451 20.0564 14.4976 20.2428 14.6478 20.3309L15.7096 20.9421C15.8546 21.0249 16.0411 20.9783 16.1291 20.8281Z" fill="#F29222"/>
<path d="M21.5987 19.3623C21.7437 19.4452 21.9302 19.3985 22.0183 19.2483L22.6294 18.1865C22.7123 18.0415 22.6657 17.855 22.5155 17.767C22.3705 17.6841 22.184 17.7307 22.0959 17.8809L21.4848 18.9427C21.4019 19.0878 21.4485 19.2742 21.5987 19.3623Z" fill="#F29222"/>
<path d="M24.639 19.9113C24.5561 19.7663 24.3697 19.7145 24.2195 19.7974L23.1577 20.4085C23.0126 20.4914 22.9608 20.6779 23.0437 20.8281C23.1266 20.9731 23.3182 21.0249 23.4632 20.942L24.525 20.3309C24.6701 20.248 24.7219 20.0615 24.639 19.9113Z" fill="#F29222"/>
<path d="M22.4949 30.8401H17.1859C16.8647 30.8401 16.6006 31.1042 16.6006 31.4254V33.7665H22.4949V30.8401Z" fill="#0B2463"/>
<path d="M17.191 37.8636H18.9883V34.9371H16.6057V37.2783C16.6057 37.5994 16.8699 37.8636 17.191 37.8636Z" fill="#0B2463"/>
<path d="M20.1538 34.9371H26.0067V37.8636H20.1538V34.9371Z" fill="#0B2463"/>
<path d="M27.1824 34.9371H33.0352V37.8636H27.1824V34.9371Z" fill="#0B2463"/>
<path d="M34.2058 37.8636H36.0031C36.3242 37.8636 36.5884 37.5994 36.5884 37.2783V34.9371H34.2058V37.8636Z" fill="#0B2463"/>
<path d="M16.4089 27.3283V29.6695H22.8885V26.743H17.3671C16.8388 26.743 16.4089 27.0072 16.4089 27.3283Z" fill="#F29222"/>
<path d="M23.738 26.743H33.0353V29.6695H23.738V26.743Z" fill="#0B2463"/>
<path d="M34.2058 26.743H36.5884V29.6695H34.2058V26.743Z" fill="#0B2463"/>
<path d="M33.0352 18.5077H27.7677C27.4465 18.5077 27.1824 18.7718 27.1824 19.093V21.4756H33.0352V18.5077Z" fill="#0B2463"/>
<path d="M36.0031 18.5077H34.2058V21.4756H36.5884V19.093C36.5884 18.7718 36.3242 18.5077 36.0031 18.5077Z" fill="#0B2463"/>
<path d="M23.6707 30.8401H29.5235V33.7665H23.6707V30.8401Z" fill="#0B2463"/>
<path d="M30.6941 30.8401H36.5884V33.7665H30.6941V30.8401Z" fill="#0B2463"/>
<path d="M23.6707 23.2262V25.5673H29.5235V22.6409H24.2559C23.9348 22.6409 23.6707 22.905 23.6707 23.2262Z" fill="#0B2463"/>
<path d="M30.6941 22.6409H36.5884V25.5673H30.6941V22.6409Z" fill="#0B2463"/>
</svg>
