<svg width="135" height="42" viewBox="0 0 135 42" fill="none" xmlns="http://www.w3.org/2000/svg">
<path d="M49.1066 16.9697H45.1509V28.2857H49.1066C52.7219 28.2857 55.0726 26.0647 55.0726 22.6439C55.0726 19.2069 52.7219 16.9697 49.1066 16.9697ZM47.4205 26.3565V18.8827H49.0255C51.4087 18.8827 52.7543 20.2932 52.7543 22.6439C52.7543 24.9947 51.4087 26.3565 49.0255 26.3565H47.4205ZM56.7716 28.2857H59.0413V16.9697H56.7716V28.2857ZM66.5041 16.8238C63.2292 16.8238 60.7326 19.2232 60.7326 22.6115C60.7326 25.9998 63.2292 28.383 66.5203 28.383C69.5357 28.383 71.5946 26.2754 72.0486 23.9733V21.9954H65.9204V23.7301H69.8113C69.4709 25.3351 68.3522 26.3403 66.6013 26.3403C64.4938 26.3403 63.0671 24.9136 63.0671 22.6115C63.0671 20.358 64.4775 18.9151 66.5041 18.9151C67.7037 18.9151 68.644 19.4177 69.1628 20.3742H71.773C71.0434 18.1045 69.0331 16.8238 66.5041 16.8238ZM73.7278 28.2857H75.9975V16.9697H73.7278V28.2857Z" fill="#0B2464"/>
<path d="M82.103 28.2857H84.3727V23.5031H87.988V21.7036H84.3727V18.8016H89.0904V16.9697H82.103V28.2857ZM101.74 22.5953C101.74 19.2069 99.1787 16.8076 95.9525 16.8076C92.7587 16.8076 90.1486 19.2069 90.1486 22.5953C90.1486 25.9998 92.7587 28.3992 95.9525 28.3992C99.1625 28.3992 101.74 25.9998 101.74 22.5953ZM92.4831 22.5953C92.4831 20.2932 93.8936 18.8503 95.9525 18.8503C97.9952 18.8503 99.4057 20.2932 99.4057 22.5953C99.4057 24.8974 97.9952 26.3727 95.9525 26.3727C93.8936 26.3727 92.4831 24.8974 92.4831 22.5953ZM109.427 20.4877C109.427 21.5091 108.86 22.1738 107.595 22.1738H105.698V18.8503H107.595C108.86 18.8503 109.427 19.4826 109.427 20.4877ZM103.429 16.9697V28.2857H105.698V23.876H106.768L109.265 28.2857H111.892L109.184 23.6977C111 23.2113 111.762 21.8171 111.762 20.4391C111.762 18.5423 110.4 16.9697 107.676 16.9697H103.429ZM119.035 16.8238C115.76 16.8238 113.263 19.2232 113.263 22.6115C113.263 25.9998 115.76 28.383 119.051 28.383C122.067 28.383 124.126 26.2754 124.579 23.9733V21.9954H118.451V23.7301H122.342C122.002 25.3351 120.883 26.3403 119.132 26.3403C117.025 26.3403 115.598 24.9136 115.598 22.6115C115.598 20.358 117.008 18.9151 119.035 18.9151C120.235 18.9151 121.175 19.4177 121.694 20.3742H124.304C123.574 18.1045 121.564 16.8238 119.035 16.8238ZM132.825 16.9535H126.259V28.2857H132.825V26.4375H128.528V23.4383H132.338V21.6388H128.528V18.8016H132.825V16.9535Z" fill="#3C56A0"/>
<path d="M18.8931 41.8312C17.5993 41.8312 16.3121 41.4996 15.1613 40.83L3.73181 34.1985C1.43031 32.8658 0 30.3757 0 27.7036V14.4472C0 11.7752 1.43031 9.28512 3.73181 7.95233L15.1613 1.32088C17.4628 -0.0119085 20.3234 -0.0119085 22.6314 1.32088L34.0609 7.95233C36.3624 9.28512 37.7927 11.7752 37.7927 14.4472V27.7036C37.7927 30.3757 36.3624 32.8658 34.0609 34.1985L22.6314 40.83C21.4807 41.4996 20.1869 41.8312 18.8996 41.8312H18.8931ZM18.8931 4.46107C18.3145 4.46107 17.7359 4.6106 17.2223 4.90966L5.78626 11.5411C4.75254 12.1392 4.1154 13.251 4.1154 14.4472V27.7036C4.1154 28.8999 4.75904 30.0116 5.78626 30.6098L17.2223 37.2412C18.256 37.8393 19.5368 37.8393 20.564 37.2412L32 30.6098C33.0337 30.0116 33.6708 28.8999 33.6708 27.7036V14.4472C33.6708 13.251 33.0272 12.1392 32 11.5411L20.564 4.90966C20.0504 4.6106 19.4717 4.46107 18.8931 4.46107Z" fill="#3C56A0"/>
<path d="M18.5937 28.6789C22.7768 28.6789 26.1678 25.2732 26.1678 21.0722C26.1678 16.8712 22.7768 13.4655 18.5937 13.4655C14.4106 13.4655 11.0195 16.8712 11.0195 21.0722C11.0195 25.2732 14.4106 28.6789 18.5937 28.6789Z" fill="#0B2464"/>
</svg>
