<svg width="321" height="345" viewBox="0 0 321 345" fill="none" xmlns="http://www.w3.org/2000/svg">
<path d="M160.13 320.26C248.567 320.26 320.26 248.567 320.26 160.13C320.26 71.6926 248.567 0 160.13 0C71.6926 0 0 71.6926 0 160.13C0 248.567 71.6926 320.26 160.13 320.26Z" fill="#F4F4F4"/>
<path d="M30.1786 130.699L29.1812 130.771L30.5096 149.213L31.5071 149.141L30.1786 130.699Z" fill="#006BA9"/>
<path d="M32.1847 158.672L31.1873 158.744L31.6874 165.686L32.6848 165.614L32.1847 158.672Z" fill="#006BA9"/>
<path d="M263.77 243.5H49.61C47.2261 243.457 44.9425 242.533 43.1994 240.906C41.4563 239.28 40.3771 237.065 40.17 234.69L29.65 88.56C29.5521 87.433 29.6914 86.298 30.0589 85.2282C30.4264 84.1583 31.0139 83.1772 31.7835 82.3482C32.5532 81.5192 33.488 80.8606 34.5276 80.4148C35.5673 79.969 36.6889 79.746 37.82 79.76H251.98C254.362 79.8026 256.645 80.7251 258.387 82.3498C260.13 83.9745 261.21 86.1865 261.42 88.56L271.94 234.69C272.038 235.817 271.898 236.953 271.531 238.023C271.164 239.094 270.576 240.075 269.807 240.905C269.037 241.735 268.103 242.394 267.063 242.841C266.023 243.288 264.902 243.513 263.77 243.5V243.5Z" fill="#006BA9"/>
<path d="M264.59 243.5H50.43C48.0461 243.457 45.7625 242.533 44.0194 240.906C42.2763 239.28 41.1971 237.065 40.99 234.69L30.47 88.56C30.3721 87.433 30.5114 86.298 30.8789 85.2282C31.2464 84.1583 31.8339 83.1772 32.6035 82.3482C33.3732 81.5192 34.308 80.8606 35.3477 80.4148C36.3873 79.969 37.5089 79.746 38.64 79.76H252.8C255.182 79.8026 257.465 80.7251 259.207 82.3498C260.95 83.9745 262.03 86.1865 262.24 88.56L272.76 234.69C272.859 235.818 272.721 236.954 272.354 238.025C271.988 239.096 271.4 240.078 270.63 240.908C269.861 241.739 268.925 242.398 267.885 242.844C266.844 243.291 265.722 243.514 264.59 243.5V243.5Z" fill="#006BA9"/>
<path opacity="0.5" d="M264.59 243.5H50.43C48.0461 243.457 45.7625 242.533 44.0194 240.906C42.2763 239.28 41.1971 237.065 40.99 234.69L30.47 88.56C30.3721 87.433 30.5114 86.298 30.8789 85.2282C31.2464 84.1583 31.8339 83.1772 32.6035 82.3482C33.3732 81.5192 34.308 80.8606 35.3477 80.4148C36.3873 79.969 37.5089 79.746 38.64 79.76H252.8C255.182 79.8026 257.465 80.7251 259.207 82.3498C260.95 83.9745 262.03 86.1865 262.24 88.56L272.76 234.69C272.859 235.818 272.721 236.954 272.354 238.025C271.988 239.096 271.4 240.078 270.63 240.908C269.861 241.739 268.925 242.398 267.885 242.844C266.844 243.291 265.722 243.514 264.59 243.5V243.5Z" fill="white"/>
<path d="M253.12 84.16H38.96H38.24C32.77 84.61 33.89 92.94 39.41 92.94H253.93C259.46 92.94 259.38 84.61 253.84 84.16H253.12Z" fill="#3C56A0"/>
<path d="M44.54 88.56C44.561 88.8178 44.5278 89.0771 44.4423 89.3213C44.3569 89.5654 44.2212 89.789 44.0441 89.9774C43.8669 90.1659 43.6522 90.3151 43.4138 90.4155C43.1754 90.5158 42.9186 90.565 42.66 90.56C42.1165 90.5524 41.5951 90.3438 41.1962 89.9745C40.7974 89.6052 40.5494 89.1013 40.5 88.56C40.4791 88.303 40.5121 88.0446 40.5969 87.8011C40.6817 87.5577 40.8165 87.3346 40.9926 87.1463C41.1686 86.958 41.3821 86.8086 41.6193 86.7076C41.8565 86.6066 42.1122 86.5564 42.37 86.56C42.9152 86.5652 43.4391 86.7726 43.8401 87.1422C44.241 87.5117 44.4905 88.017 44.54 88.56Z" fill="#FAFAFA"/>
<path d="M51.41 88.56C51.431 88.8178 51.3977 89.0771 51.3123 89.3213C51.2269 89.5654 51.0912 89.789 50.9141 89.9774C50.7369 90.1659 50.5222 90.3151 50.2838 90.4155C50.0454 90.5158 49.7886 90.565 49.53 90.56C48.9865 90.5524 48.4651 90.3438 48.0662 89.9745C47.6674 89.6052 47.4194 89.1013 47.37 88.56C47.3491 88.303 47.3821 88.0446 47.4669 87.8011C47.5517 87.5577 47.6865 87.3346 47.8626 87.1463C48.0386 86.958 48.2521 86.8086 48.4893 86.7076C48.7265 86.6066 48.9822 86.5564 49.24 86.56C49.7852 86.5652 50.3091 86.7726 50.7101 87.1422C51.111 87.5117 51.3605 88.017 51.41 88.56Z" fill="#FAFAFA"/>
<path d="M58.27 88.56C58.2909 88.817 58.2579 89.0754 58.1731 89.3189C58.0883 89.5623 57.9535 89.7854 57.7774 89.9737C57.6013 90.162 57.3879 90.3114 57.1506 90.4124C56.9134 90.5134 56.6578 90.5636 56.4 90.56C55.8558 90.5546 55.3331 90.3468 54.9338 89.977C54.5345 89.6073 54.2872 89.1022 54.24 88.56C54.2175 88.3027 54.2494 88.0436 54.3336 87.7994C54.4179 87.5553 54.5526 87.3316 54.729 87.143C54.9053 86.9543 55.1195 86.8049 55.3574 86.7045C55.5953 86.604 55.8518 86.5548 56.11 86.56C56.6535 86.5676 57.1749 86.7762 57.5738 87.1455C57.9726 87.5148 58.2206 88.0187 58.27 88.56V88.56Z" fill="#FAFAFA"/>
<path d="M258.91 228.92H54.06C53.1946 228.906 52.3655 228.57 51.7335 227.979C51.1015 227.388 50.7118 226.583 50.64 225.72L41.99 105.55C41.9515 105.138 42.0012 104.722 42.1357 104.33C42.2702 103.938 42.4865 103.58 42.7702 103.278C43.054 102.976 43.3986 102.739 43.7813 102.58C44.164 102.422 44.5761 102.347 44.99 102.36H249.89C250.754 102.372 251.584 102.705 252.216 103.295C252.848 103.885 253.238 104.688 253.31 105.55L261.97 225.72C262.008 226.138 261.955 226.559 261.817 226.954C261.678 227.35 261.456 227.712 261.167 228.015C260.877 228.318 260.525 228.556 260.136 228.712C259.747 228.868 259.329 228.939 258.91 228.92V228.92Z" fill="white"/>
<path d="M172.59 183.14L169.26 136.82L159.15 130.74H131.35L135.12 183.14H172.59Z" fill="white"/>
<path d="M172.59 183.62H135.12C134.996 183.623 134.876 183.578 134.784 183.494C134.693 183.41 134.638 183.294 134.63 183.17L130.86 130.77C130.855 130.704 130.864 130.638 130.887 130.576C130.909 130.514 130.944 130.458 130.99 130.41C131.034 130.361 131.088 130.321 131.148 130.293C131.208 130.266 131.274 130.251 131.34 130.25H159.15C159.238 130.253 159.323 130.277 159.4 130.32L169.5 136.4C169.568 136.439 169.625 136.494 169.667 136.56C169.709 136.626 169.734 136.702 169.74 136.78L173.06 183.1C173.067 183.167 173.059 183.236 173.036 183.3C173.014 183.364 172.978 183.422 172.93 183.47C172.887 183.517 172.834 183.554 172.775 183.58C172.717 183.606 172.654 183.619 172.59 183.62V183.62ZM135.59 182.62H172.06L168.78 137.07L159.06 131.22H131.86L135.59 182.62Z" fill="#006BA9"/>
<path d="M169.26 136.82L159.15 130.74L162.86 138.8L169.26 136.82Z" fill="#EBEBEB"/>
<path d="M162.86 139.28C162.768 139.28 162.677 139.253 162.6 139.203C162.522 139.154 162.46 139.083 162.42 139L158.71 130.94C158.667 130.845 158.654 130.74 158.674 130.637C158.694 130.535 158.745 130.442 158.82 130.37C158.899 130.302 158.998 130.261 159.102 130.252C159.206 130.243 159.31 130.267 159.4 130.32L169.5 136.4C169.581 136.449 169.647 136.52 169.69 136.605C169.732 136.69 169.75 136.785 169.74 136.88C169.727 136.972 169.688 137.059 169.628 137.129C169.568 137.2 169.489 137.252 169.4 137.28L163 139.28H162.86ZM160.25 131.96L163.12 138.21L168.12 136.68L160.25 131.96Z" fill="#006BA9"/>
<path d="M147.06 154.34C147.075 154.612 147.034 154.884 146.941 155.139C146.847 155.395 146.702 155.628 146.515 155.826C146.327 156.023 146.102 156.181 145.852 156.288C145.602 156.395 145.332 156.45 145.06 156.45C144.489 156.44 143.942 156.219 143.525 155.829C143.108 155.439 142.849 154.909 142.8 154.34C142.774 154.065 142.807 153.788 142.897 153.528C142.987 153.267 143.131 153.028 143.32 152.828C143.51 152.627 143.739 152.469 143.995 152.364C144.25 152.259 144.524 152.21 144.8 152.22C145.372 152.233 145.919 152.456 146.336 152.847C146.753 153.239 147.011 153.77 147.06 154.34Z" fill="#006BA9"/>
<path d="M160.76 154.34C160.784 154.614 160.75 154.89 160.66 155.149C160.569 155.409 160.425 155.646 160.236 155.846C160.046 156.045 159.817 156.202 159.563 156.307C159.308 156.411 159.035 156.46 158.76 156.45C158.188 156.44 157.64 156.219 157.221 155.83C156.802 155.44 156.542 154.91 156.49 154.34C156.474 154.067 156.513 153.794 156.606 153.538C156.7 153.281 156.844 153.046 157.032 152.848C157.219 152.649 157.445 152.491 157.696 152.383C157.947 152.275 158.217 152.22 158.49 152.22C159.064 152.228 159.615 152.45 160.034 152.842C160.454 153.234 160.713 153.768 160.76 154.34V154.34Z" fill="#006BA9"/>
<path d="M164.64 168.08C164.518 168.078 164.402 168.031 164.313 167.948C164.225 167.864 164.17 167.751 164.16 167.63C163.91 164.22 158.57 161.45 152.26 161.45C148.07 161.45 144.31 162.7 142.45 164.7C142.068 165.069 141.769 165.514 141.572 166.007C141.376 166.5 141.286 167.03 141.31 167.56C141.315 167.626 141.306 167.692 141.285 167.754C141.264 167.816 141.232 167.874 141.188 167.924C141.101 168.024 140.978 168.086 140.845 168.095C140.712 168.104 140.582 168.061 140.481 167.973C140.381 167.886 140.319 167.763 140.31 167.63C140.28 166.967 140.389 166.305 140.631 165.687C140.872 165.069 141.239 164.508 141.71 164.04C143.71 161.85 147.78 160.48 152.23 160.48C159.16 160.48 164.81 163.59 165.09 167.56C165.094 167.623 165.086 167.686 165.065 167.746C165.045 167.806 165.013 167.861 164.971 167.908C164.929 167.956 164.878 167.995 164.822 168.022C164.765 168.05 164.703 168.066 164.64 168.07V168.08Z" fill="#006BA9"/>
<path d="M139.23 150.06C139.108 150.058 138.991 150.011 138.9 149.93C138.809 149.838 138.758 149.714 138.758 149.585C138.758 149.456 138.809 149.332 138.9 149.24L141.03 146.95C141.121 146.862 141.243 146.813 141.37 146.813C141.497 146.813 141.619 146.862 141.71 146.95C141.755 146.995 141.79 147.048 141.814 147.106C141.839 147.164 141.851 147.227 141.851 147.29C141.851 147.353 141.839 147.416 141.814 147.474C141.79 147.532 141.755 147.585 141.71 147.63L139.58 149.92C139.534 149.966 139.479 150.002 139.419 150.026C139.359 150.05 139.295 150.062 139.23 150.06V150.06Z" fill="#006BA9"/>
<path d="M163.64 150.06C163.519 150.054 163.403 150.009 163.31 149.93L160.86 147.64C160.814 147.595 160.777 147.542 160.752 147.482C160.727 147.423 160.714 147.359 160.714 147.295C160.714 147.231 160.727 147.167 160.752 147.108C160.777 147.048 160.814 146.995 160.86 146.95C160.951 146.862 161.073 146.813 161.2 146.813C161.327 146.813 161.449 146.862 161.54 146.95L163.99 149.24C164.035 149.285 164.07 149.338 164.094 149.396C164.119 149.454 164.131 149.517 164.131 149.58C164.131 149.643 164.119 149.706 164.094 149.764C164.07 149.822 164.035 149.875 163.99 149.92C163.895 150.009 163.77 150.059 163.64 150.06V150.06Z" fill="#006BA9"/>
<path d="M279.75 101.42C280.64 100.97 281.75 100.42 282.69 99.85C283.63 99.28 284.69 98.73 285.69 98.13C287.64 96.92 289.62 95.73 291.49 94.41C295.246 91.8402 298.766 88.9421 302.01 85.75C302.42 85.37 302.78 84.95 303.17 84.54L303.74 83.93L304.02 83.63L304.16 83.47C304.02 83.74 304.16 83.66 304.16 83.4C304.248 83.0429 304.298 82.6776 304.31 82.31C304.287 80.1837 304.042 78.0656 303.58 75.99C302.69 71.51 301.34 66.89 300.01 62.37L303.89 60.67C306.339 65.0067 308.384 69.5591 310 74.27C310.908 76.8158 311.486 79.4674 311.72 82.16C311.781 82.9972 311.754 83.8384 311.64 84.67C311.492 85.8459 311.074 86.9717 310.42 87.96L310.25 88.19L310.12 88.35L309.97 88.54L309.66 88.92L309.04 89.67C308.63 90.16 308.23 90.67 307.79 91.14C304.37 94.9349 300.555 98.3542 296.41 101.34C294.41 102.82 292.29 104.24 290.12 105.53C289.05 106.18 287.96 106.8 286.85 107.41C285.74 108.02 284.66 108.58 283.38 109.18L279.75 101.42Z" fill="#FFC3BD"/>
<path d="M270.85 336.52C271.599 336.501 272.343 336.401 273.07 336.22C273.107 336.209 273.14 336.188 273.166 336.16C273.193 336.132 273.211 336.097 273.22 336.06C273.225 336.022 273.219 335.983 273.203 335.947C273.187 335.912 273.162 335.882 273.13 335.86C272.84 335.67 270.3 334.03 269.32 334.47C269.211 334.521 269.118 334.599 269.05 334.698C268.981 334.796 268.94 334.911 268.93 335.03C268.891 335.219 268.901 335.414 268.959 335.598C269.016 335.782 269.12 335.948 269.26 336.08C269.719 336.414 270.284 336.57 270.85 336.52V336.52ZM272.5 335.94C271.05 336.23 269.95 336.18 269.5 335.79C269.41 335.698 269.344 335.585 269.309 335.461C269.275 335.336 269.271 335.206 269.3 335.08C269.304 335.027 269.321 334.976 269.351 334.932C269.381 334.888 269.422 334.853 269.47 334.83C270 334.6 271.47 335.34 272.5 335.94Z" fill="#006BA9"/>
<path d="M273.06 336.22H273.16C273.189 336.202 273.214 336.177 273.231 336.147C273.249 336.118 273.259 336.084 273.26 336.05C273.26 335.94 273.26 333.53 272.34 332.73C272.23 332.624 272.097 332.544 271.951 332.497C271.806 332.451 271.651 332.438 271.5 332.46C271.342 332.461 271.19 332.517 271.068 332.617C270.946 332.717 270.862 332.856 270.83 333.01C270.64 334.01 272.16 335.76 272.96 336.22C272.993 336.229 273.027 336.229 273.06 336.22V336.22ZM271.63 332.83C271.793 332.83 271.949 332.891 272.07 333C272.598 333.778 272.87 334.7 272.85 335.64C272.05 335 271.1 333.64 271.22 333.07C271.22 332.98 271.29 332.86 271.54 332.83H271.63Z" fill="#006BA9"/>
<path d="M272.28 76.41C271.28 81.41 269.28 91.41 272.73 94.76C272.73 94.76 271.37 99.76 262.14 99.76C251.98 99.76 257.29 94.76 257.29 94.76C262.83 93.44 262.68 89.33 261.72 85.46L272.28 76.41Z" fill="#FFC3BD"/>
<path d="M255.34 96.76C253.75 96.98 255.11 92.85 255.75 92.42C257.25 91.42 276.61 90.03 276.48 92.42C276.4 93.42 275.92 95.42 275.08 96.08C274.24 96.74 269.26 94.68 255.34 96.76Z" fill="#263238"/>
<path d="M258.5 95.34C257.23 95.77 257.35 91.61 257.78 91.11C258.78 89.95 274.45 85.93 274.91 88.2C275.09 89.2 275.18 91.2 274.64 91.91C274.1 92.62 269.5 91.45 258.5 95.34Z" fill="#263238"/>
<path d="M252.67 67.45C252.607 67.4527 252.544 67.4406 252.487 67.4145C252.43 67.3885 252.379 67.3492 252.34 67.3C252.035 66.9065 251.641 66.5902 251.192 66.3765C250.742 66.1629 250.248 66.0579 249.75 66.07C249.698 66.077 249.645 66.0734 249.594 66.0594C249.544 66.0454 249.497 66.0213 249.456 65.9886C249.414 65.956 249.38 65.9153 249.355 65.8692C249.33 65.823 249.315 65.7723 249.31 65.72C249.301 65.617 249.333 65.5147 249.398 65.4345C249.464 65.3544 249.557 65.3026 249.66 65.29C250.29 65.2579 250.917 65.3784 251.49 65.6413C252.063 65.9042 252.564 66.3018 252.95 66.8C253.017 66.8812 253.049 66.9854 253.04 67.0903C253.031 67.1951 252.98 67.292 252.9 67.36C252.832 67.4088 252.753 67.4397 252.67 67.45V67.45Z" fill="#263238"/>
<path d="M250.73 72.34C250.276 73.9353 249.603 75.4599 248.73 76.87C249.097 77.0809 249.505 77.2089 249.927 77.2452C250.348 77.2815 250.773 77.2251 251.17 77.08L250.73 72.34Z" fill="#FF5652"/>
<path d="M251.22 71.13C251.29 71.8 250.98 72.38 250.54 72.42C250.1 72.46 249.69 71.96 249.63 71.28C249.57 70.6 249.87 70.03 250.3 69.99C250.73 69.95 251.15 70.45 251.22 71.13Z" fill="#263238"/>
<path d="M250.5 70.01L248.84 69.7C248.84 69.7 249.79 70.88 250.5 70.01Z" fill="#263238"/>
<path d="M282.76 336.03H274.39L275.04 316.63H283.42L282.76 336.03Z" fill="#FFC3BD"/>
<path d="M273.72 335.06H283.13C283.292 335.056 283.45 335.112 283.574 335.217C283.697 335.322 283.778 335.469 283.8 335.63L284.87 343.07C284.891 343.258 284.872 343.449 284.814 343.629C284.757 343.809 284.661 343.975 284.535 344.116C284.408 344.257 284.253 344.369 284.08 344.446C283.907 344.522 283.719 344.561 283.53 344.56C280.25 344.51 278.67 344.31 274.53 344.31C271.98 344.31 268.26 344.58 264.75 344.58C261.24 344.58 261.04 341.1 262.51 340.79C269.07 339.37 270.11 337.43 272.32 335.57C272.714 335.243 273.208 335.063 273.72 335.06V335.06Z" fill="#263238"/>
<g opacity="0.2">
<path d="M283.42 316.63H275.04L274.71 326.63H283.09L283.42 316.63Z" fill="black"/>
</g>
<path d="M249.43 106.34C244.302 104.346 239.279 102.093 234.38 99.59C229.32 97.1174 224.499 94.1815 219.98 90.82C218.773 89.8743 217.63 88.8486 216.56 87.75C216.28 87.45 216 87.17 215.73 86.82C215.413 86.4623 215.119 86.0849 214.85 85.69C214.112 84.6156 213.652 83.3755 213.51 82.08C213.4 80.8519 213.567 79.6146 214 78.46C214.347 77.5319 214.821 76.6568 215.41 75.86C216.376 74.5391 217.516 73.355 218.8 72.34C221.066 70.5358 223.512 68.9708 226.1 67.67C227.34 67.01 228.6 66.42 229.88 65.87C231.16 65.32 232.42 64.8 233.79 64.33L235.56 68.18C231.2 70.93 226.68 73.96 223.36 77.34C222.617 78.0929 221.963 78.9283 221.41 79.83C220.93 80.62 220.94 81.21 221.02 81.16C221.1 81.11 221.02 81.16 221.16 81.26L221.56 81.69C221.71 81.87 221.92 82.05 222.11 82.24C222.957 83.0196 223.856 83.7413 224.8 84.4C226.864 85.8616 229.015 87.1973 231.24 88.4C233.49 89.66 235.81 90.85 238.17 91.99C242.89 94.25 247.77 96.42 252.56 98.4L249.43 106.34Z" fill="#FFC3BD"/>
<path d="M238.06 65.49L239.44 62.49L233.12 60.34C233.12 60.34 231.12 66.25 233.49 68.97C234.48 68.8141 235.417 68.4144 236.214 67.807C237.012 67.1995 237.646 66.4033 238.06 65.49Z" fill="#FFC3BD"/>
<path d="M239.42 56L234.38 54.55L233 60.5L239.42 62.49V56Z" fill="#FFC3BD"/>
<path d="M304.41 62.78L305.14 55.78L298.66 57.34C298.66 57.34 298.56 63.92 301.99 64.96L304.41 62.78Z" fill="#FFC3BD"/>
<path d="M302.02 50.85L297.79 52.82L298.5 57.5L305.5 56L302.02 50.85Z" fill="#FFC3BD"/>
<path d="M273.6 66.59C273.91 74.9 274.21 78.41 270.46 83.06C264.81 90.06 254.54 88.61 251.76 80.56C249.26 73.32 249.18 60.95 256.94 56.87C258.646 55.9629 260.556 55.5068 262.488 55.5449C264.419 55.583 266.309 56.1141 267.978 57.0878C269.647 58.0616 271.04 59.4456 272.024 61.1086C273.008 62.7716 273.55 64.6584 273.6 66.59V66.59Z" fill="#FFC3BD"/>
<path d="M269.98 83.05C278.14 79.52 283.5 72.05 281.24 60.47C279.07 49.36 271.57 48.26 268.47 50.56C265.37 52.86 257.64 49.43 253 53.33C245 60.1 252.56 67.33 256.52 71.7C258.88 76.56 261.98 86.5 269.98 83.05Z" fill="#263238"/>
<path d="M266.59 58.48C267.585 59.7569 268.933 60.7145 270.466 61.2343C272 61.7542 273.652 61.8137 275.219 61.4054C276.785 60.9972 278.198 60.1391 279.283 58.937C280.368 57.735 281.077 56.2416 281.322 54.6413C281.568 53.0409 281.34 51.4037 280.665 49.9316C279.991 48.4595 278.901 47.2171 277.529 46.3577C276.157 45.4982 274.563 45.0594 272.944 45.0953C271.325 45.1313 269.753 45.6405 268.42 46.56C266.597 47.8984 265.381 49.9059 265.037 52.1412C264.694 54.3764 265.253 56.6564 266.59 58.48Z" fill="#006BA9"/>
<path d="M268.71 51.34C267.54 44.64 273.87 39.48 282.35 41.97C290.83 44.46 286.35 51.97 284.6 57.97C282.85 63.97 287.43 69.69 289.33 65.12C291.23 60.55 288.03 59.12 288.03 59.12C288.03 59.12 297.03 61.45 288.67 71.6C280.31 81.75 272.74 70.54 274.79 63.93C276.45 58.62 269.82 57.67 268.71 51.34Z" fill="#263238"/>
<path d="M260.24 53.87C256.37 51.87 249.82 50.22 246.09 56.5C244.33 59.5 245.01 63.5 245.01 63.5L256.4 64.25L260.24 53.87Z" fill="#263238"/>
<path d="M243.67 61.52C243.603 61.5149 243.54 61.4839 243.495 61.4335C243.451 61.3831 243.427 61.3174 243.43 61.25C243.43 61.08 243.72 57.06 246.15 54.54C252.02 48.44 258.9 53.54 260.86 55.19C260.902 55.2346 260.927 55.2932 260.928 55.3546C260.93 55.416 260.909 55.4759 260.87 55.5228C260.83 55.5698 260.775 55.6006 260.714 55.6093C260.653 55.618 260.591 55.604 260.54 55.57C258.65 53.95 252.07 49.1 246.54 54.88C244.24 57.27 243.96 61.24 243.96 61.28C243.959 61.3157 243.95 61.3507 243.935 61.3827C243.919 61.4148 243.897 61.4431 243.87 61.4659C243.842 61.4886 243.81 61.5052 243.776 61.5145C243.741 61.5239 243.705 61.5257 243.67 61.52Z" fill="#263238"/>
<path d="M257.91 71.34C257.865 72.9132 257.283 74.4237 256.26 75.62C254.88 77.24 253.26 76.44 252.93 74.62C252.6 73.01 252.93 70.22 254.67 69.25C256.41 68.28 257.93 69.52 257.91 71.34Z" fill="#FFC3BD"/>
<path d="M256.11 147.46C256.11 147.46 256.65 205.61 261.69 238.01C265.77 264.18 273.3 324.7 273.3 324.7H284.73C284.73 324.7 285.84 266.27 283.73 240.39C278.5 174.89 292.01 162.64 281.11 147.46H256.11Z" fill="#263238"/>
<path opacity="0.1" d="M256.11 147.46C256.11 147.46 256.65 205.61 261.69 238.01C265.77 264.18 273.3 324.7 273.3 324.7H284.73C284.73 324.7 285.84 266.27 283.73 240.39C278.5 174.89 292.01 162.64 281.11 147.46H256.11Z" fill="white"/>
<path opacity="0.3" d="M262.12 173.84C266.12 191.39 262.93 219.03 260.74 231.2C258.42 212.72 257.25 188.77 256.67 171.2C258.74 167.86 260.7 167.64 262.12 173.84Z" fill="black"/>
<path d="M271.74 324.92H286.29L287.06 319.82L271.66 319.3L271.74 324.92Z" fill="#006BA9"/>
<path d="M275.89 98.34C277.26 95.62 284.62 93.91 288.64 93.92L291.64 107.28C291.64 107.28 283.64 119.17 280.3 117.91C276.37 116.46 272.96 104.21 275.89 98.34Z" fill="#232E5B"/>
<path d="M267.41 321.65C267.427 321.621 267.435 321.588 267.435 321.555C267.435 321.522 267.427 321.489 267.41 321.46C267.391 321.422 267.361 321.39 267.323 321.37C267.285 321.351 267.242 321.344 267.2 321.35C266.78 321.42 263.08 322 262.58 323.06C262.527 323.156 262.499 323.265 262.499 323.375C262.499 323.485 262.527 323.594 262.58 323.69C262.666 323.848 262.789 323.983 262.939 324.082C263.089 324.181 263.261 324.243 263.44 324.26C264.65 324.38 266.44 322.7 267.34 321.68L267.41 321.65ZM262.97 323.19C263.31 322.63 265.23 322.11 266.69 321.84C265.37 323.18 264.21 323.93 263.53 323.84C263.412 323.828 263.3 323.787 263.202 323.721C263.104 323.655 263.024 323.565 262.97 323.46C262.948 323.422 262.937 323.379 262.937 323.335C262.937 323.291 262.948 323.248 262.97 323.21C262.97 323.21 262.96 323.2 262.97 323.19Z" fill="#006BA9"/>
<path d="M276.15 318.11L268.49 321.51L265.07 314.41L260.61 305.1L260.09 304.02L267.74 300.61L268.33 301.83L272.65 310.84L276.15 318.11Z" fill="#FFC3BD"/>
<path opacity="0.2" d="M272.65 310.84L265.07 314.41L260.61 305.1L268.33 301.83L272.65 310.84Z" fill="black"/>
<path d="M247.13 147.46C247.13 147.46 222.66 208.34 229.29 236.94C235.29 262.83 261.79 311.86 261.79 311.86L272.06 306.72C272.06 306.72 255.67 247.53 253.9 234.67C250.44 209.67 272.67 174.34 272.67 147.46H247.13Z" fill="#263238"/>
<path opacity="0.1" d="M247.13 147.46C247.13 147.46 222.66 208.34 229.29 236.94C235.29 262.83 261.79 311.86 261.79 311.86L272.06 306.72C272.06 306.72 255.67 247.53 253.9 234.67C250.44 209.67 272.67 174.34 272.67 147.46H247.13Z" fill="white"/>
<path d="M267.12 320.44L274.72 314.91C274.848 314.81 275.009 314.76 275.171 314.771C275.334 314.783 275.487 314.853 275.6 314.97L280.85 320.36C280.977 320.501 281.074 320.667 281.132 320.847C281.191 321.027 281.212 321.218 281.192 321.407C281.172 321.596 281.113 321.778 281.017 321.942C280.922 322.107 280.794 322.249 280.64 322.36C277.95 324.24 276.56 325.02 273.22 327.45C271.16 328.95 267.06 332.26 264.22 334.33C261.38 336.4 259.22 333.7 260.22 332.59C264.7 327.59 265.64 324.49 266.34 321.68C266.448 321.189 266.724 320.75 267.12 320.44V320.44Z" fill="#263238"/>
<path d="M261.14 314.04L274.37 307.99L272.67 302.59L258.5 309.06L261.14 314.04Z" fill="#006BA9"/>
<path d="M253.62 97.7C252.53 94.86 242.97 91.7 238.17 90.7L236.06 106.42C236.06 106.42 243.9 117.68 247.33 116.75C251.39 115.65 255.98 103.79 253.62 97.7Z" fill="#232E5B"/>
<path d="M243.13 96.91C243.13 96.91 239.13 98.31 247.13 147.46H281.13C280.56 133.62 280.54 125.08 287.13 96.66C282.366 95.677 277.536 95.042 272.68 94.76C267.54 94.3896 262.38 94.3896 257.24 94.76C250.65 95.34 243.13 96.91 243.13 96.91Z" fill="#232E5B"/>
<path d="M281.66 145.47L283.19 148.47C283.31 148.71 283.03 148.95 282.64 148.95H246.96C246.65 148.95 246.4 148.8 246.38 148.6L246.07 145.6C246.07 145.39 246.32 145.21 246.65 145.21H281.06C281.174 145.192 281.292 145.207 281.398 145.253C281.504 145.299 281.595 145.374 281.66 145.47Z" fill="#006BA9"/>
<path opacity="0.3" d="M281.66 145.47L283.19 148.47C283.31 148.71 283.03 148.95 282.64 148.95H246.96C246.65 148.95 246.4 148.8 246.38 148.6L246.07 145.6C246.07 145.39 246.32 145.21 246.65 145.21H281.06C281.174 145.192 281.292 145.207 281.398 145.253C281.504 145.299 281.595 145.374 281.66 145.47Z" fill="#006BA9"/>
<path d="M277.06 149.34H277.98C278.17 149.34 278.31 149.24 278.29 149.13L277.86 145.13C277.86 145.01 277.69 144.92 277.51 144.92H276.58C276.4 144.92 276.26 145.01 276.27 145.13L276.7 149.13C276.69 149.22 276.85 149.34 277.06 149.34Z" fill="#263238"/>
<path d="M254.67 149.34H255.59C255.77 149.34 255.91 149.24 255.9 149.13L255.47 145.13C255.47 145.01 255.3 144.92 255.11 144.92H254.19C254 144.92 253.87 145.01 253.88 145.13L254.31 149.13C254.32 149.22 254.48 149.34 254.67 149.34Z" fill="#263238"/>
<path d="M102.946 194.76V204H101.168L97.598 198.176L96.702 196.538H96.688L96.744 198.036V204H95.372V194.76H97.136L100.692 200.57L101.602 202.236H101.616L101.56 200.724V194.76H102.946ZM108.413 196.86C109.094 196.86 109.696 197.005 110.219 197.294C110.742 197.583 111.148 198.003 111.437 198.554C111.736 199.095 111.885 199.744 111.885 200.5C111.885 201.256 111.736 201.909 111.437 202.46C111.148 203.001 110.742 203.417 110.219 203.706C109.696 203.995 109.094 204.14 108.413 204.14C107.732 204.14 107.13 203.995 106.607 203.706C106.084 203.417 105.674 203.001 105.375 202.46C105.076 201.909 104.927 201.256 104.927 200.5C104.927 199.744 105.076 199.095 105.375 198.554C105.674 198.003 106.084 197.583 106.607 197.294C107.13 197.005 107.732 196.86 108.413 196.86ZM108.413 198.036C107.993 198.036 107.634 198.134 107.335 198.33C107.046 198.517 106.822 198.792 106.663 199.156C106.504 199.52 106.425 199.968 106.425 200.5C106.425 201.023 106.504 201.471 106.663 201.844C106.822 202.208 107.046 202.488 107.335 202.684C107.634 202.871 107.993 202.964 108.413 202.964C108.833 202.964 109.188 202.871 109.477 202.684C109.766 202.488 109.99 202.208 110.149 201.844C110.308 201.471 110.387 201.023 110.387 200.5C110.387 199.968 110.308 199.52 110.149 199.156C109.99 198.792 109.766 198.517 109.477 198.33C109.188 198.134 108.833 198.036 108.413 198.036ZM121.794 194.76C123.241 194.76 124.365 195.161 125.168 195.964C125.98 196.757 126.386 197.896 126.386 199.38C126.386 200.864 125.98 202.007 125.168 202.81C124.365 203.603 123.241 204 121.794 204H118.532V194.76H121.794ZM121.794 202.726C122.774 202.726 123.521 202.437 124.034 201.858C124.557 201.27 124.818 200.444 124.818 199.38C124.818 198.316 124.557 197.495 124.034 196.916C123.521 196.328 122.774 196.034 121.794 196.034H120.03V202.726H121.794ZM132.417 199.506C132.417 199.039 132.286 198.68 132.025 198.428C131.773 198.167 131.423 198.036 130.975 198.036C130.555 198.036 130.196 198.134 129.897 198.33C129.598 198.526 129.379 198.843 129.239 199.282L127.979 198.75C128.156 198.181 128.502 197.723 129.015 197.378C129.538 197.033 130.21 196.86 131.031 196.86C131.591 196.86 132.086 196.953 132.515 197.14C132.944 197.317 133.28 197.588 133.523 197.952C133.775 198.316 133.901 198.783 133.901 199.352V202.474C133.901 202.819 134.074 202.992 134.419 202.992C134.587 202.992 134.75 202.969 134.909 202.922L134.825 203.958C134.61 204.061 134.34 204.112 134.013 204.112C133.714 204.112 133.444 204.061 133.201 203.958C132.968 203.846 132.781 203.683 132.641 203.468C132.51 203.244 132.445 202.969 132.445 202.642V202.544L132.753 202.53C132.669 202.894 132.496 203.197 132.235 203.44C131.974 203.673 131.67 203.851 131.325 203.972C130.98 204.084 130.63 204.14 130.275 204.14C129.836 204.14 129.44 204.07 129.085 203.93C128.74 203.79 128.464 203.58 128.259 203.3C128.063 203.011 127.965 202.656 127.965 202.236C127.965 201.713 128.133 201.284 128.469 200.948C128.814 200.612 129.3 200.383 129.925 200.262L132.641 199.73L132.627 200.78L130.653 201.186C130.261 201.261 129.967 201.368 129.771 201.508C129.575 201.648 129.477 201.853 129.477 202.124C129.477 202.385 129.575 202.595 129.771 202.754C129.976 202.903 130.247 202.978 130.583 202.978C130.816 202.978 131.04 202.95 131.255 202.894C131.479 202.838 131.68 202.749 131.857 202.628C132.034 202.497 132.17 202.334 132.263 202.138C132.366 201.933 132.417 201.69 132.417 201.41V199.506ZM138.126 194.942V201.9C138.126 202.245 138.215 202.497 138.392 202.656C138.579 202.815 138.826 202.894 139.134 202.894C139.386 202.894 139.605 202.857 139.792 202.782C139.979 202.698 140.151 202.586 140.31 202.446L140.646 203.538C140.431 203.725 140.165 203.874 139.848 203.986C139.54 204.089 139.195 204.14 138.812 204.14C138.411 204.14 138.042 204.075 137.706 203.944C137.37 203.813 137.109 203.603 136.922 203.314C136.735 203.015 136.637 202.628 136.628 202.152V195.362L138.126 194.942ZM140.534 197V198.176H135.284V197H140.534ZM146.103 199.506C146.103 199.039 145.972 198.68 145.711 198.428C145.459 198.167 145.109 198.036 144.661 198.036C144.241 198.036 143.881 198.134 143.583 198.33C143.284 198.526 143.065 198.843 142.925 199.282L141.665 198.75C141.842 198.181 142.187 197.723 142.701 197.378C143.223 197.033 143.895 196.86 144.717 196.86C145.277 196.86 145.771 196.953 146.201 197.14C146.63 197.317 146.966 197.588 147.209 197.952C147.461 198.316 147.587 198.783 147.587 199.352V202.474C147.587 202.819 147.759 202.992 148.105 202.992C148.273 202.992 148.436 202.969 148.595 202.922L148.511 203.958C148.296 204.061 148.025 204.112 147.699 204.112C147.4 204.112 147.129 204.061 146.887 203.958C146.653 203.846 146.467 203.683 146.327 203.468C146.196 203.244 146.131 202.969 146.131 202.642V202.544L146.439 202.53C146.355 202.894 146.182 203.197 145.921 203.44C145.659 203.673 145.356 203.851 145.011 203.972C144.665 204.084 144.315 204.14 143.961 204.14C143.522 204.14 143.125 204.07 142.771 203.93C142.425 203.79 142.15 203.58 141.945 203.3C141.749 203.011 141.651 202.656 141.651 202.236C141.651 201.713 141.819 201.284 142.155 200.948C142.5 200.612 142.985 200.383 143.611 200.262L146.327 199.73L146.313 200.78L144.339 201.186C143.947 201.261 143.653 201.368 143.457 201.508C143.261 201.648 143.163 201.853 143.163 202.124C143.163 202.385 143.261 202.595 143.457 202.754C143.662 202.903 143.933 202.978 144.269 202.978C144.502 202.978 144.726 202.95 144.941 202.894C145.165 202.838 145.365 202.749 145.543 202.628C145.72 202.497 145.855 202.334 145.949 202.138C146.051 201.933 146.103 201.69 146.103 201.41V199.506ZM161.208 196.048H156.028V198.736H160.088V200.024H156.028V204H154.53V194.76H161.208V196.048ZM165.179 196.86C165.86 196.86 166.462 197.005 166.985 197.294C167.507 197.583 167.913 198.003 168.203 198.554C168.501 199.095 168.651 199.744 168.651 200.5C168.651 201.256 168.501 201.909 168.203 202.46C167.913 203.001 167.507 203.417 166.985 203.706C166.462 203.995 165.86 204.14 165.179 204.14C164.497 204.14 163.895 203.995 163.373 203.706C162.85 203.417 162.439 203.001 162.141 202.46C161.842 201.909 161.693 201.256 161.693 200.5C161.693 199.744 161.842 199.095 162.141 198.554C162.439 198.003 162.85 197.583 163.373 197.294C163.895 197.005 164.497 196.86 165.179 196.86ZM165.179 198.036C164.759 198.036 164.399 198.134 164.101 198.33C163.811 198.517 163.587 198.792 163.429 199.156C163.27 199.52 163.191 199.968 163.191 200.5C163.191 201.023 163.27 201.471 163.429 201.844C163.587 202.208 163.811 202.488 164.101 202.684C164.399 202.871 164.759 202.964 165.179 202.964C165.599 202.964 165.953 202.871 166.243 202.684C166.532 202.488 166.756 202.208 166.915 201.844C167.073 201.471 167.153 201.023 167.153 200.5C167.153 199.968 167.073 199.52 166.915 199.156C166.756 198.792 166.532 198.517 166.243 198.33C165.953 198.134 165.599 198.036 165.179 198.036ZM173.027 204.14C172.57 204.14 172.145 204.056 171.753 203.888C171.37 203.72 171.062 203.449 170.829 203.076C170.596 202.703 170.479 202.217 170.479 201.62V197H171.977V201.242C171.977 201.877 172.112 202.315 172.383 202.558C172.654 202.791 173.032 202.908 173.517 202.908C173.75 202.908 173.974 202.871 174.189 202.796C174.413 202.712 174.614 202.586 174.791 202.418C174.968 202.241 175.104 202.017 175.197 201.746C175.3 201.475 175.351 201.158 175.351 200.794V197H176.849V204H175.533L175.463 202.866C175.22 203.305 174.894 203.627 174.483 203.832C174.072 204.037 173.587 204.14 173.027 204.14ZM179.189 204V197H180.519L180.617 198.82L180.421 198.624C180.552 198.223 180.739 197.891 180.981 197.63C181.233 197.359 181.527 197.163 181.863 197.042C182.209 196.921 182.573 196.86 182.955 196.86C183.45 196.86 183.893 196.958 184.285 197.154C184.687 197.341 185.004 197.625 185.237 198.008C185.471 198.391 185.587 198.876 185.587 199.464V204H184.089V199.926C184.089 199.235 183.945 198.759 183.655 198.498C183.375 198.227 183.021 198.092 182.591 198.092C182.283 198.092 181.985 198.167 181.695 198.316C181.406 198.456 181.163 198.685 180.967 199.002C180.781 199.319 180.687 199.744 180.687 200.276V204H179.189ZM190.545 204.14C189.967 204.14 189.439 203.995 188.963 203.706C188.497 203.417 188.128 203.001 187.857 202.46C187.587 201.919 187.451 201.27 187.451 200.514C187.451 199.73 187.596 199.067 187.885 198.526C188.175 197.985 188.562 197.574 189.047 197.294C189.533 197.005 190.065 196.86 190.643 196.86C191.241 196.86 191.745 197.023 192.155 197.35C192.566 197.677 192.841 198.101 192.981 198.624L192.813 198.778V193.85H194.311V204H192.981L192.869 202.096L193.065 202.11C193 202.53 192.846 202.894 192.603 203.202C192.361 203.501 192.057 203.734 191.693 203.902C191.339 204.061 190.956 204.14 190.545 204.14ZM190.867 202.936C191.269 202.936 191.614 202.833 191.903 202.628C192.193 202.423 192.417 202.133 192.575 201.76C192.734 201.387 192.813 200.939 192.813 200.416C192.813 199.931 192.734 199.515 192.575 199.17C192.417 198.815 192.193 198.545 191.903 198.358C191.623 198.171 191.297 198.078 190.923 198.078C190.298 198.078 189.813 198.293 189.467 198.722C189.122 199.151 188.949 199.744 188.949 200.5C188.949 201.256 189.117 201.853 189.453 202.292C189.789 202.721 190.261 202.936 190.867 202.936Z" fill="#0B2464"/>
</svg>
