<svg width="522" height="522" viewBox="0 0 522 522" fill="none" xmlns="http://www.w3.org/2000/svg">
<path fill-rule="evenodd" clip-rule="evenodd" d="M274.858 5.85787C267.047 -1.95262 254.384 -1.95263 246.574 5.85786L5.85787 246.574C-1.95262 254.384 -1.95263 267.047 5.85786 274.858L246.574 515.574C254.384 523.384 267.047 523.384 274.858 515.574L515.574 274.858C523.384 267.047 523.384 254.384 515.574 246.574L274.858 5.85787ZM492.811 264.251C494.763 262.299 494.763 259.133 492.811 257.18L264.251 28.6206C262.299 26.668 259.133 26.668 257.18 28.6206L28.6206 257.18C26.668 259.133 26.668 262.299 28.6206 264.251L257.18 492.811C259.133 494.763 262.299 494.763 264.251 492.811L492.811 264.251Z" fill="#FFB557"/>
</svg>
