<svg width="404" height="404" viewBox="0 0 404 404" fill="none" xmlns="http://www.w3.org/2000/svg">
<path fill-rule="evenodd" clip-rule="evenodd" d="M215.841 5.85787C208.03 -1.95262 195.367 -1.95263 187.557 5.85786L5.85787 187.557C-1.95262 195.367 -1.95263 208.03 5.85786 215.841L187.557 397.54C195.367 405.35 208.03 405.35 215.841 397.54L397.54 215.841C405.35 208.03 405.35 195.367 397.54 187.557L215.841 5.85787ZM370.002 205.234C371.955 203.282 371.955 200.116 370.002 198.163L205.234 33.3951C203.282 31.4425 200.116 31.4425 198.163 33.3951L33.3951 198.163C31.4425 200.116 31.4425 203.282 33.3951 205.234L198.163 370.002C200.116 371.955 203.282 371.955 205.234 370.002L370.002 205.234Z" fill="#F27661"/>
</svg>
