<svg width="114" height="172" viewBox="0 0 114 172" fill="none" xmlns="http://www.w3.org/2000/svg">
<path opacity="0.32" d="M7.63659 167.311L0.0275921 97.1212C-0.048659 96.3774 0.0335665 95.6259 0.268851 94.9162C0.504135 94.2065 0.887136 93.5547 1.39262 93.0038C1.8981 92.4529 2.51459 92.0153 3.20146 91.7199C3.88834 91.4246 4.63 91.2781 5.37759 91.2902L63.5846 92.4402C64.8741 92.4691 66.1087 92.9679 67.0563 93.843C68.0039 94.7181 68.5993 95.9091 68.7306 97.1922L75.3186 163.259C75.3949 163.973 75.3246 164.696 75.112 165.382C74.8995 166.068 74.5491 166.703 74.0825 167.249C73.6158 167.795 73.0426 168.24 72.398 168.556C71.7534 168.873 71.0509 169.055 70.3336 169.09L13.1466 171.99C11.8061 172.054 10.4912 171.607 9.46823 170.738C8.44524 169.869 7.79052 168.644 7.63659 167.311V167.311Z" fill="url(#paint0_linear_1_3142)"/>
<path d="M88.2816 63.2572C86.8164 63.2552 85.4019 62.7202 84.3021 61.7519C83.2023 60.7837 82.4923 59.4484 82.3046 57.9952L78.0917 25.9252C77.8255 23.8721 77.1576 21.8914 76.126 20.0964C75.0945 18.3014 73.7194 16.7271 72.0795 15.4635C70.4395 14.1999 68.5667 13.2717 66.568 12.7318C64.5693 12.192 62.4838 12.0511 60.4306 12.3172C56.2841 12.8547 52.5209 15.0173 49.9689 18.3294C47.4169 21.6415 46.2852 25.8317 46.8227 29.9782L49.6656 52.1652C49.7998 52.9711 49.7694 53.7957 49.5762 54.5895C49.383 55.3833 49.0311 56.1297 48.5416 56.7838C48.0521 57.4378 47.4353 57.986 46.7282 58.3952C46.0211 58.8044 45.2385 59.0661 44.4275 59.1647C43.6165 59.2632 42.794 59.1965 42.0095 58.9685C41.225 58.7405 40.4948 58.356 39.863 57.8382C39.2311 57.3204 38.7107 56.68 38.333 55.9556C37.9554 55.2311 37.7284 54.4378 37.6656 53.6232L34.7556 31.4492C34.2847 27.8206 34.5331 24.1348 35.4867 20.6021C36.4402 17.0695 38.0802 13.7593 40.313 10.8605C42.5459 7.96167 45.3278 5.53104 48.5 3.70735C51.6722 1.88366 55.1725 0.702644 58.8012 0.231724C62.4298 -0.239196 66.1156 0.00920463 69.6482 0.962744C73.1809 1.91628 76.4911 3.55629 79.3899 5.78912C82.2887 8.02195 84.7193 10.8039 86.543 13.9761C88.3667 17.1483 89.5477 20.6486 90.0186 24.2772L94.2187 56.3472C94.323 57.1338 94.2713 57.9333 94.0663 58.6999C93.8614 59.4664 93.5073 60.1851 93.0243 60.8146C92.5413 61.4442 91.9389 61.9723 91.2516 62.3688C90.5642 62.7653 89.8054 63.0223 89.0186 63.1252C88.7767 63.1878 88.5303 63.2319 88.2816 63.2572Z" fill="url(#paint1_linear_1_3142)"/>
<g opacity="0.6">
<path opacity="0.6" d="M80.5197 7.04625C76.2981 4.26127 71.3657 2.74679 66.3086 2.68279C61.2516 2.61878 56.2824 4.00794 51.9917 6.68518C47.701 9.36242 44.2691 13.2152 42.1037 17.7857C39.9384 22.3562 39.1307 27.4522 39.7767 32.4682L42.4767 53.4743C42.5842 54.3645 42.8956 55.2179 43.3867 55.9683C42.379 55.6173 41.4893 54.992 40.8179 54.1626C40.1465 53.3333 39.7201 52.3329 39.5867 51.2743L36.9047 30.2682C36.2217 24.9477 37.1749 19.5453 39.6374 14.7797C42.0999 10.0141 45.9551 6.11118 50.69 3.59016C55.4249 1.06914 60.8151 0.0495046 66.1437 0.666877C71.4723 1.28425 76.4866 3.50937 80.5197 7.04625V7.04625Z" fill="url(#paint2_linear_1_3142)"/>
<path opacity="0.6" d="M87.4158 60.9542C86.4057 60.6089 85.5125 59.9875 84.8375 59.1605C84.1625 58.3335 83.7327 57.334 83.5968 56.2752L79.6028 25.9252C79.165 22.6021 77.6248 19.522 75.2288 17.1782C77.1825 18.3209 78.8477 19.8969 80.096 21.7848C81.3443 23.6727 82.1424 25.8221 82.4288 28.0672L86.4518 58.4752C86.5689 59.3665 86.8989 60.2164 87.4138 60.9532L87.4158 60.9542Z" fill="url(#paint3_linear_1_3142)"/>
</g>
<path d="M103.214 135.746L35.5016 139.973C33.9194 139.762 32.4148 139.16 31.1242 138.221C29.8335 137.281 28.7977 136.035 28.1106 134.594L20.5886 66.9702C20.5886 66.9702 24.6266 51.2562 38.7486 51.4882C45.7746 51.6052 105.076 118.806 113.094 130.629C111.231 134.536 103.214 135.746 103.214 135.746Z" fill="url(#paint4_linear_1_3142)"/>
<path d="M42.7467 131.2L34.7727 57.3802C34.6851 56.5956 34.7663 55.8013 35.0108 55.0505C35.2553 54.2998 35.6575 53.6101 36.1903 53.0275C36.7232 52.4449 37.3745 51.983 38.1005 51.6727C38.8264 51.3623 39.6104 51.2108 40.3997 51.2282L98.6217 52.3802C100.814 52.4127 102.917 53.251 104.53 54.7352C106.143 56.2195 107.153 58.2457 107.368 60.4272L113.968 126.927C114.044 127.677 113.967 128.434 113.741 129.152C113.515 129.871 113.146 130.536 112.655 131.108C112.164 131.679 111.562 132.145 110.885 132.476C110.209 132.807 109.472 132.998 108.72 133.035L48.5437 136.135C47.1274 136.214 45.7352 135.744 44.6554 134.824C43.5757 133.904 42.8912 132.604 42.7437 131.193L42.7467 131.2Z" fill="url(#paint5_linear_1_3142)"/>
<path opacity="0.32" d="M83.5266 96.4322L84.4446 107.409C84.5453 108.761 84.1089 110.097 83.2301 111.129C82.3512 112.161 81.1009 112.804 79.7506 112.919L78.4966 113.036C77.8245 113.094 77.1477 113.019 76.5047 112.815C75.8617 112.612 75.2653 112.283 74.7494 111.848C74.2335 111.414 73.8084 110.882 73.4984 110.283C73.1884 109.684 72.9995 109.029 72.9426 108.357L72.0426 97.7302C70.1534 96.9051 68.52 95.5885 67.3124 93.9177C66.1049 92.2469 65.3673 90.2829 65.1766 88.2302L64.3456 78.3902C64.17 76.862 64.3032 75.314 64.7372 73.8382C65.1712 72.3624 65.8973 70.9888 66.8722 69.7989C67.8472 68.609 69.0512 67.6271 70.4129 66.9113C71.7746 66.1956 73.2661 65.7606 74.7991 65.6323C76.332 65.5039 77.8751 65.6848 79.3368 66.1641C80.7986 66.6435 82.1491 67.4115 83.3084 68.4227C84.4676 69.4339 85.412 70.6676 86.0854 72.0507C86.7588 73.4338 87.1475 74.9381 87.2286 76.4742L88.0736 86.3432C88.2253 88.2716 87.8882 90.2071 87.0934 91.9706C86.2986 93.7341 85.0718 95.2687 83.5266 96.4322V96.4322Z" fill="url(#paint6_linear_1_3142)"/>
<path d="M74.5576 100.249L75.4176 111.226C75.4614 111.614 75.4614 112.005 75.4176 112.392C74.7177 111.972 74.1269 111.393 73.6937 110.701C73.2604 110.01 72.9969 109.225 72.9246 108.412L72.0246 97.7852C70.1396 96.9481 68.5137 95.6206 67.3163 93.9413C66.1189 92.2619 65.3938 90.2921 65.2166 88.2372L64.3856 78.3972C64.2562 76.8338 64.4481 75.2604 64.9494 73.7738C65.4507 72.2873 66.2508 70.919 67.3006 69.7532C70.1051 69.8534 72.7758 70.9767 74.8088 72.9112C76.8417 74.8456 78.0963 77.4572 78.3356 80.2532L79.1666 90.1222C79.322 92.0628 78.9803 94.0109 78.1739 95.7827C77.3675 97.5546 76.1229 99.0918 74.5576 100.249V100.249Z" fill="white"/>
<path opacity="0.5" d="M22.6687 65.7332C22.6687 65.7332 29.3447 60.1212 34.8557 58.1092C34.5346 56.1506 34.984 54.1438 36.1097 52.5092C36.1097 52.5092 26.8817 54.4212 22.6687 65.7332Z" fill="url(#paint7_linear_1_3142)"/>
<defs>
<linearGradient id="paint0_linear_1_3142" x1="37.6742" y1="171.996" x2="37.6742" y2="91.2895" gradientUnits="userSpaceOnUse">
<stop stop-color="#D6CAFF"/>
<stop offset="0.21" stop-color="#C8BCF3"/>
<stop offset="0.6" stop-color="#A597D3"/>
<stop offset="1" stop-color="#7A6AAD"/>
</linearGradient>
<linearGradient id="paint1_linear_1_3142" x1="64.4573" y1="63.2572" x2="64.4573" y2="0.189775" gradientUnits="userSpaceOnUse">
<stop stop-color="#FFFFD6"/>
<stop offset="0.14" stop-color="#F1F2D3"/>
<stop offset="0.4" stop-color="#CCD1C9"/>
<stop offset="0.76" stop-color="#909CBB"/>
<stop offset="1" stop-color="#6475B0"/>
</linearGradient>
<linearGradient id="paint2_linear_1_3142" x1="58.6047" y1="55.9683" x2="58.6047" y2="0.491333" gradientUnits="userSpaceOnUse">
<stop/>
<stop offset="1" stop-color="white"/>
</linearGradient>
<linearGradient id="paint3_linear_1_3142" x1="81.3344" y1="17.1782" x2="81.3344" y2="17.222" gradientUnits="userSpaceOnUse">
<stop/>
<stop offset="1" stop-color="white"/>
</linearGradient>
<linearGradient id="paint4_linear_1_3142" x1="66.8411" y1="139.973" x2="66.8411" y2="51.4857" gradientUnits="userSpaceOnUse">
<stop stop-color="#A190F0"/>
<stop offset="1" stop-color="#D4BDF0"/>
</linearGradient>
<linearGradient id="paint5_linear_1_3142" x1="74.3673" y1="136.144" x2="74.3673" y2="51.2269" gradientUnits="userSpaceOnUse">
<stop stop-color="#8D78ED"/>
<stop offset="1" stop-color="#BE9BE8"/>
</linearGradient>
<linearGradient id="paint6_linear_1_3142" x1="76.2136" y1="113.103" x2="76.2136" y2="65.877" gradientUnits="userSpaceOnUse">
<stop stop-color="#D6CAFF"/>
<stop offset="0.21" stop-color="#C8BCF3"/>
<stop offset="0.6" stop-color="#A597D3"/>
<stop offset="1" stop-color="#7A6AAD"/>
</linearGradient>
<linearGradient id="paint7_linear_1_3142" x1="29.3892" y1="52.5092" x2="29.3892" y2="52.5092" gradientUnits="userSpaceOnUse">
<stop/>
<stop offset="1" stop-color="white"/>
</linearGradient>
</defs>
</svg>
