<svg width="32" height="30" viewBox="0 0 32 30" fill="none" xmlns="http://www.w3.org/2000/svg">
<path d="M31 15.003L20 26.0029L20.9994 27.0023L31.9993 16.0023L31 15.003Z" fill="white"/>
<path d="M17.9994 5.99673L17 6.99609L27.0006 16.9967L28 15.9973L17.9994 5.99673Z" fill="white"/>
<path d="M15.9969 7.99768L14.998 8.99756L22.0019 15.9941L23.0007 14.9942L15.9969 7.99768Z" fill="white"/>
<path d="M14.0015 1.99707L9 6.99854L9.99936 7.9979L15.0008 2.99643L14.0015 1.99707Z" fill="white"/>
<path d="M0.99936 15.0002L0 15.9995L14.0004 29.9999L14.9997 29.0005L0.99936 15.0002Z" fill="white"/>
<path d="M14.0012 6.00176L7.00098 13.002L8.00034 14.0013L15.0005 7.00112L14.0012 6.00176Z" fill="white"/>
<path d="M22.0012 19.9998L15.001 27L16.0003 27.9994L23.0005 20.9992L22.0012 19.9998Z" fill="white"/>
<path d="M16.0003 0.000152132L15.001 0.999512L26.0009 11.9995L27.0003 11.0001L16.0003 0.000152132Z" fill="white"/>
<path d="M2.99821 12.9995L1.99902 13.999L4.99996 16.9989L5.99915 15.9994L2.99821 12.9995Z" fill="white"/>
</svg>
