<svg width="214" height="40" viewBox="0 0 214 40" fill="none" xmlns="http://www.w3.org/2000/svg">
<path d="M41.0326 19.8588L26.4727 34.4187L27.7954 35.7415L42.3554 21.1815L41.0326 19.8588Z" fill="#009DB4"/>
<path d="M23.8247 7.93771L22.502 9.2605L35.7391 22.4977L37.0619 21.1749L23.8247 7.93771Z" fill="#EE3124"/>
<path d="M21.1737 10.5857L19.8516 11.9092L29.1221 21.17L30.4442 19.8466L21.1737 10.5857Z" fill="#EE3124"/>
<path d="M18.5332 2.64306L11.9131 9.26318L13.2359 10.586L19.856 3.96585L18.5332 2.64306Z" fill="#009DB4"/>
<path d="M1.32279 19.8557L0 21.1785L18.5314 39.7099L19.8542 38.3871L1.32279 19.8557Z" fill="#009DB4"/>
<path d="M18.5313 7.9445L9.26562 17.2102L10.5884 18.533L19.8541 9.26729L18.5313 7.9445Z" fill="#EE3124"/>
<path d="M29.1202 26.4728L19.8545 35.7385L21.1773 37.0613L30.443 27.7956L29.1202 26.4728Z" fill="#EE3124"/>
<path d="M21.1802 -3.46897e-05L19.8574 1.32275L34.4174 15.8827L35.7402 14.5599L21.1802 -3.46897e-05Z" fill="#009DB4"/>
<path d="M3.96709 17.207L2.64453 18.53L6.61668 22.5008L7.93924 21.1778L3.96709 17.207Z" fill="#009DB4"/>
<path d="M70.9423 19.7425C70.9423 14.0824 66.8818 10.0481 59.8754 10.0481H52.3096V29.6599H59.7618C66.825 29.6599 70.9423 25.4552 70.9423 19.7994V19.7425ZM65.3652 19.8824C65.3652 23.0513 63.206 24.8433 59.9585 24.8433H57.7469V14.8691H59.9585C63.2104 14.8691 65.3652 16.6917 65.3652 19.83V19.8868V19.8824Z" fill="#EE3124"/>
<path d="M90.5498 14.8079H96.4329V29.6599H101.87V14.8079H107.753V10.0481H90.5498V14.8079Z" fill="#EE3124"/>
<path d="M148.852 17.1887L144.818 10.0468H139.049H138.625H133.419L130.001 21.3934L126.216 9.98999H121.539L117.754 21.3934L114.336 10.0468H108.593L115.149 29.7985H119.883L123.808 18.5087L127.759 29.7985H132.492L138.9 10.497L146.081 22.3157V29.6586H151.545V22.2326L158.997 10.0468H152.917L148.852 17.1887Z" fill="#EE3124"/>
<path d="M165.889 10.0481H160.452V29.6599H175.387V24.8957H165.889V10.0481Z" fill="#EE3124"/>
<path d="M182.864 21.928H192.279V17.6402H182.864V14.668H193.262V10.0481H177.483V29.6599H193.398V25.0356H182.864V21.928Z" fill="#EE3124"/>
<path d="M209.319 22.824C211.758 21.7881 213.353 19.7994 213.353 16.801V16.7442C213.353 14.8079 212.763 13.2956 211.614 12.1767C210.298 10.8305 208.222 10.0481 205.228 10.0481H195.953V29.6599H201.39V23.72H203.772L207.724 29.6599H214L209.323 22.824H209.319ZM207.89 17.1375C207.89 18.5668 206.823 19.4628 204.974 19.4628H201.39V14.7555H204.948C206.771 14.7555 207.89 15.5422 207.89 17.0807V17.1375Z" fill="#EE3124"/>
<path d="M84.137 9.90332H78.8964L76.8203 14.8161H86.2088L84.137 9.90332Z" fill="#EE3124"/>
<path d="M81.6055 16.687L83.6598 21.9276H79.2584L81.3389 16.687H76.0283L70.543 29.6596H76.26L77.663 26.1586H85.2289L86.6581 29.6596H92.4844L86.9991 16.687H81.6055Z" fill="#EE3124"/>
</svg>
