<svg width="37" height="46" viewBox="0 0 37 46" fill="none" xmlns="http://www.w3.org/2000/svg">
<path fill-rule="evenodd" clip-rule="evenodd" d="M14.2965 25.213C14.3841 25.213 14.4769 25.213 14.5645 25.213H14.5774C14.4821 25.213 14.3893 25.213 14.2965 25.213ZM14.2965 25.213C11.5076 25.2646 8.9095 26.1177 6.72119 27.5457C8.97393 26.0816 11.6056 25.2646 14.2965 25.213ZM14.2965 25.213C14.3841 25.213 14.4769 25.213 14.5645 25.213H14.5774C14.4821 25.213 14.3893 25.213 14.2965 25.213ZM14.2965 25.213C11.5076 25.2646 8.9095 26.1177 6.72119 27.5457C8.97393 26.0816 11.6056 25.2646 14.2965 25.213ZM14.2965 25.213C14.3841 25.213 14.4769 25.213 14.5645 25.213H14.5774C14.4821 25.213 14.3893 25.213 14.2965 25.213ZM14.2965 25.213C11.5076 25.2646 8.9095 26.1177 6.72119 27.5457C8.97393 26.0816 11.6056 25.2646 14.2965 25.213ZM18.5056 0.456055C12.2474 0.456055 7.15679 5.54663 7.15679 11.8048C7.15679 18.063 12.2474 23.151 18.5056 23.151C24.7638 23.151 29.8543 18.063 29.8543 11.8048C29.8543 5.54663 24.7638 0.456055 18.5056 0.456055Z"/>
<path fill-rule="evenodd" clip-rule="evenodd" d="M36.8294 39.6182V40.742C36.8294 43.3891 34.6746 45.5439 32.0275 45.5439H4.96877C2.32167 45.5439 0.16687 43.3891 0.16687 40.742V39.6182C0.16687 34.6642 2.67994 30.2902 6.49723 27.6972C6.57198 27.6482 6.64673 27.5967 6.72147 27.5477C8.97422 26.0837 11.6059 25.2666 14.2968 25.2151C14.3844 25.2151 14.4772 25.2151 14.5648 25.2151H22.434C22.5216 25.2151 22.6144 25.2151 22.702 25.2151C25.3929 25.2666 28.0246 26.0811 30.2773 27.5477C30.3521 27.5967 30.4268 27.6482 30.5016 27.6972C34.3189 30.2902 36.8319 34.6642 36.8319 39.6182H36.8294Z" />
<path fill-rule="evenodd" clip-rule="evenodd" d="M22.2274 23.6527C22.3181 23.6527 22.4067 23.6527 22.4953 23.6568C22.4108 23.6548 22.3243 23.6548 22.2398 23.6548H22.2274V23.6527Z" />
<defs>
<linearGradient id="paint0_linear_0_1" x1="8.74196" y1="28.7107" x2="24.1787" y2="1.97679" gradientUnits="userSpaceOnUse">
<stop stop-color="#00AAE3"/>
<stop offset="1" stop-color="#58C3BD"/>
</linearGradient>
<linearGradient id="paint1_linear_0_1" x1="17.0392" y1="45.6805" x2="27.4781" y2="2.30359" gradientUnits="userSpaceOnUse">
<stop stop-color="#00AAE3"/>
<stop offset="0.22" stop-color="#0EAEDC"/>
<stop offset="0.65" stop-color="#33B8CC"/>
<stop offset="1" stop-color="#58C3BD"/>
</linearGradient>
<linearGradient id="paint2_linear_0_1" x1="22.3263" y1="23.5971" x2="22.3963" y2="23.7145" gradientUnits="userSpaceOnUse">
<stop stop-color="#0091AE"/>
<stop offset="1" stop-color="#58C3BD"/>
<stop offset="1" stop-color="#00BBE0"/>
</linearGradient>
</defs>
</svg>
