<svg width="57" height="53" viewBox="0 0 57 53" fill="none" xmlns="http://www.w3.org/2000/svg">
<path d="M54.6465 26.4473L35.2559 45.8379L37.0175 47.5996L56.4082 28.2089L54.6465 26.4473Z" fill="#009DB4"/>
<path d="M31.7294 10.5713L29.9678 12.333L47.5967 29.962L49.3584 28.2003L31.7294 10.5713Z" fill="#EE3124"/>
<path d="M28.1992 14.0978L26.4385 15.8604L38.7848 28.1938L40.5455 26.4312L28.1992 14.0978Z" fill="#EE3124"/>
<path d="M24.6818 3.52037L15.8652 12.3369L17.6269 14.0986L26.4434 5.28203L24.6818 3.52037Z" fill="#009DB4"/>
<path d="M1.76166 26.4434L0 28.2051L24.6797 52.8848L26.4414 51.1232L1.76166 26.4434Z" fill="#009DB4"/>
<path d="M24.6797 10.5801L12.3398 22.9199L14.1015 24.6816L26.4414 12.3417L24.6797 10.5801Z" fill="#EE3124"/>
<path d="M38.7813 35.2558L26.4414 47.5957L28.2031 49.3574L40.5429 37.0175L38.7813 35.2558Z" fill="#EE3124"/>
<path d="M28.207 5.68825e-05L26.4453 1.76172L45.8359 21.1524L47.5976 19.3907L28.207 5.68825e-05Z" fill="#009DB4"/>
<path d="M5.28382 22.9158L3.52246 24.6777L8.81249 29.9659L10.5738 28.2039L5.28382 22.9158Z" fill="#009DB4"/>
</svg>
