<svg width="24" height="24" viewBox="0 0 24 24" fill="none" xmlns="http://www.w3.org/2000/svg">
            <g clipPath="url(#clip0_863_251251)">
            <path d="M9.33333 4H6.66667C5.95942 4 5.28115 4.28095 4.78105 4.78105C4.28095 5.28115 4 5.95942 4 6.66667L4 7.33333C4 8.04058 4.28095 8.71885 4.78105 9.21895C5.28115 9.71905 5.95942 10 6.66667 10H7.33333V11.3333H6C5.82319 11.3333 5.65362 11.4036 5.5286 11.5286C5.40357 11.6536 5.33333 11.8232 5.33333 12C5.33333 12.1768 5.40357 12.3464 5.5286 12.4714C5.65362 12.5964 5.82319 12.6667 6 12.6667H10C10.1768 12.6667 10.3464 12.5964 10.4714 12.4714C10.5964 12.3464 10.6667 12.1768 10.6667 12C10.6667 11.8232 10.5964 11.6536 10.4714 11.5286C10.3464 11.4036 10.1768 11.3333 10 11.3333H8.66667V10H9.33333C10.0406 10 10.7189 9.71905 11.219 9.21895C11.719 8.71885 12 8.04058 12 7.33333V6.66667C12 5.95942 11.719 5.28115 11.219 4.78105C10.7189 4.28095 10.0406 4 9.33333 4V4ZM10.6667 7.33333C10.6667 7.68696 10.5262 8.02609 10.2761 8.27614C10.0261 8.52619 9.68696 8.66667 9.33333 8.66667H6.66667C6.31304 8.66667 5.97391 8.52619 5.72386 8.27614C5.47381 8.02609 5.33333 7.68696 5.33333 7.33333V6.66667C5.33333 6.31304 5.47381 5.97391 5.72386 5.72386C5.97391 5.47381 6.31304 5.33333 6.66667 5.33333H9.33333C9.68696 5.33333 10.0261 5.47381 10.2761 5.72386C10.5262 5.97391 10.6667 6.31304 10.6667 6.66667V7.33333ZM17.3333 11.3333H16C15.2928 11.3333 14.6145 11.6143 14.1144 12.1144C13.6143 12.6145 13.3333 13.2928 13.3333 14V17.3333C13.3333 18.0406 13.6143 18.7189 14.1144 19.219C14.6145 19.719 15.2928 20 16 20H17.3333C18.0406 20 18.7189 19.719 19.219 19.219C19.719 18.7189 20 18.0406 20 17.3333V14C20 13.2928 19.719 12.6145 19.219 12.1144C18.7189 11.6143 18.0406 11.3333 17.3333 11.3333V11.3333ZM18.6667 17.3333C18.6667 17.687 18.5262 18.0261 18.2761 18.2761C18.0261 18.5262 17.687 18.6667 17.3333 18.6667H16C15.6464 18.6667 15.3072 18.5262 15.0572 18.2761C14.8071 18.0261 14.6667 17.687 14.6667 17.3333V14C14.6667 13.6464 14.8071 13.3072 15.0572 13.0572C15.3072 12.8071 15.6464 12.6667 16 12.6667H17.3333C17.687 12.6667 18.0261 12.8071 18.2761 13.0572C18.5262 13.3072 18.6667 13.6464 18.6667 14V17.3333ZM13.3333 6.66667C13.3333 6.48986 13.4036 6.32029 13.5286 6.19526C13.6536 6.07024 13.8232 6 14 6H15.3333C15.8638 6 16.3725 6.21071 16.7475 6.58579C17.1226 6.96086 17.3333 7.46957 17.3333 8V9.33333C17.3333 9.51014 17.2631 9.67971 17.1381 9.80474C17.013 9.92976 16.8435 10 16.6667 10C16.4899 10 16.3203 9.92976 16.1953 9.80474C16.0702 9.67971 16 9.51014 16 9.33333V8C16 7.82319 15.9298 7.65362 15.8047 7.5286C15.6797 7.40357 15.5101 7.33333 15.3333 7.33333H14C13.8232 7.33333 13.6536 7.2631 13.5286 7.13807C13.4036 7.01305 13.3333 6.84348 13.3333 6.66667ZM12 17.3333C12 17.5101 11.9298 17.6797 11.8047 17.8047C11.6797 17.9298 11.5101 18 11.3333 18H9.33333C8.8029 18 8.29419 17.7893 7.91912 17.4142C7.54405 17.0391 7.33333 16.5304 7.33333 16V14.6667C7.33333 14.4899 7.40357 14.3203 7.5286 14.1953C7.65362 14.0702 7.82319 14 8 14C8.17681 14 8.34638 14.0702 8.4714 14.1953C8.59643 14.3203 8.66667 14.4899 8.66667 14.6667V16C8.66667 16.1768 8.7369 16.3464 8.86193 16.4714C8.98695 16.5964 9.15652 16.6667 9.33333 16.6667H11.3333C11.5101 16.6667 11.6797 16.7369 11.8047 16.8619C11.9298 16.987 12 17.1565 12 17.3333ZM17.3333 17.3333C17.3333 17.4652 17.2942 17.5941 17.221 17.7037C17.1477 17.8133 17.0436 17.8988 16.9218 17.9493C16.8 17.9997 16.6659 18.0129 16.5366 17.9872C16.4073 17.9615 16.2885 17.898 16.1953 17.8047C16.102 17.7115 16.0385 17.5927 16.0128 17.4634C15.9871 17.3341 16.0003 17.2 16.0507 17.0782C16.1012 16.9564 16.1867 16.8523 16.2963 16.779C16.4059 16.7058 16.5348 16.6667 16.6667 16.6667C16.8435 16.6667 17.013 16.7369 17.1381 16.8619C17.2631 16.987 17.3333 17.1565 17.3333 17.3333Z" fill="#374957"/>
            </g>
            <defs>
            <clipPath id="clip0_863_251251">
            <rect width="16" height="16" fill="white" transform="translate(4 4)"/>
            </clipPath>
            </defs>
            </svg>