<svg width="24" height="24" viewBox="0 0 24 24" fill="none" xmlns="http://www.w3.org/2000/svg">
<path d="M0.0381818 14.744C0.101812 14.6427 0.203624 14.6363 0.343636 14.725C3.52544 16.5617 6.98727 17.48 10.7291 17.48C13.2236 17.48 15.6864 17.0177 18.1173 16.093C18.1809 16.0677 18.2732 16.0297 18.3941 15.979C18.515 15.9283 18.6009 15.8903 18.6518 15.865C18.8427 15.789 18.9923 15.827 19.1005 15.979C19.2086 16.131 19.1736 16.2703 18.9955 16.397C18.7664 16.5617 18.4736 16.7517 18.1173 16.967C17.0227 17.613 15.8009 18.1133 14.4518 18.468C13.1027 18.8227 11.7854 19 10.5 19C8.51455 19 6.63726 18.6548 4.86818 17.9645C3.09908 17.2742 1.51454 16.302 0.114545 15.048C0.0381818 14.9847 0 14.9213 0 14.858C0 14.82 0.0127145 14.782 0.0381818 14.744ZM5.78455 9.329C5.78455 8.455 6.0009 7.70767 6.43364 7.087C6.86635 6.46633 7.45817 5.99767 8.20909 5.681C8.89636 5.38967 9.74272 5.18067 10.7482 5.054C11.0918 5.016 11.6518 4.96533 12.4282 4.902V4.579C12.4282 3.76833 12.3391 3.22367 12.1609 2.945C11.8936 2.565 11.4736 2.375 10.9009 2.375H10.7482C10.3282 2.413 9.96546 2.546 9.66 2.774C9.35455 3.002 9.15726 3.31867 9.06818 3.724C9.01727 3.97733 8.88999 4.123 8.68636 4.161L6.49091 3.895C6.27453 3.84433 6.16636 3.73033 6.16636 3.553C6.16636 3.515 6.17272 3.47067 6.18545 3.42C6.40181 2.29267 6.93317 1.45667 7.77955 0.912C8.6259 0.367327 9.61544 0.063327 10.7482 0H11.2255C12.6764 0 13.8091 0.373673 14.6236 1.121C14.7514 1.24824 14.8695 1.38479 14.9768 1.5295C15.085 1.67517 15.1709 1.805 15.2345 1.919C15.2982 2.033 15.3554 2.19767 15.4064 2.413C15.4573 2.62833 15.4954 2.77717 15.5209 2.8595C15.5464 2.94183 15.5654 3.11917 15.5782 3.3915C15.5909 3.66383 15.5973 3.82533 15.5973 3.876V8.474C15.5973 8.80333 15.645 9.10417 15.7405 9.3765C15.8359 9.64883 15.9282 9.84517 16.0173 9.9655C16.1064 10.0858 16.2527 10.279 16.4564 10.545C16.5327 10.659 16.5709 10.7603 16.5709 10.849C16.5709 10.9503 16.52 11.039 16.4182 11.115C15.3618 12.027 14.7891 12.521 14.7 12.597C14.5473 12.711 14.3627 12.7237 14.1464 12.635C13.9682 12.483 13.8123 12.3373 13.6786 12.198C13.545 12.0587 13.4495 11.9573 13.3923 11.894C13.335 11.8307 13.2427 11.7072 13.1155 11.5235C12.9882 11.3398 12.8991 11.2163 12.8482 11.153C12.1354 11.9257 11.4355 12.407 10.7482 12.597C10.3154 12.7237 9.7809 12.787 9.14455 12.787C8.16453 12.787 7.35955 12.4862 6.72955 11.8845C6.09955 11.2828 5.78455 10.431 5.78455 9.329ZM9.06818 8.949C9.06818 9.443 9.19227 9.83883 9.44045 10.1365C9.68864 10.4342 10.0227 10.583 10.4427 10.583C10.4809 10.583 10.535 10.5767 10.605 10.564C10.675 10.5513 10.7227 10.545 10.7482 10.545C11.2827 10.4057 11.6964 10.0637 11.9891 9.519C12.1291 9.27833 12.2341 9.0155 12.3041 8.7305C12.3741 8.4455 12.4123 8.21433 12.4186 8.037C12.425 7.85967 12.4282 7.56833 12.4282 7.163V6.688C11.69 6.688 11.13 6.73867 10.7482 6.84C9.62818 7.15667 9.06818 7.85967 9.06818 8.949ZM17.0864 15.067C17.1118 15.0163 17.15 14.9657 17.2009 14.915C17.5191 14.6997 17.8245 14.554 18.1173 14.478C18.6009 14.3513 19.0718 14.2817 19.53 14.269C19.6573 14.2563 19.7782 14.2627 19.8927 14.288C20.4655 14.3387 20.8091 14.4337 20.9236 14.573C20.9745 14.649 21 14.763 21 14.915V15.048C21 15.4913 20.8791 16.0138 20.6373 16.6155C20.3954 17.2172 20.0582 17.7017 19.6255 18.069C19.5618 18.1197 19.5045 18.145 19.4536 18.145C19.4282 18.145 19.4027 18.1387 19.3773 18.126C19.3009 18.088 19.2818 18.0183 19.32 17.917C19.7909 16.815 20.0264 16.0487 20.0264 15.618C20.0264 15.4787 20.0009 15.3773 19.95 15.314C19.8227 15.162 19.4664 15.086 18.8809 15.086C18.6645 15.086 18.41 15.0987 18.1173 15.124C17.7991 15.162 17.5064 15.2 17.2391 15.238C17.1627 15.238 17.1118 15.2253 17.0864 15.2C17.0609 15.1747 17.0545 15.1493 17.0673 15.124C17.0673 15.1113 17.0736 15.0923 17.0864 15.067Z" fill="#374957"/>
</svg>
