<svg width="24" height="24" viewBox="0 0 24 24" fill="none" xmlns="http://www.w3.org/2000/svg">
<g clip-path="url(#clip0_821_249447)">
<path d="M12.0002 1.99996C13.3267 2.00432 14.6392 2.2717 15.8617 2.78665C17.0842 3.3016 18.1924 4.05388 19.1222 4.99996H16.0002C15.735 4.99996 15.4806 5.10532 15.2931 5.29286C15.1056 5.48039 15.0002 5.73475 15.0002 5.99996C15.0002 6.26518 15.1056 6.51953 15.2931 6.70707C15.4806 6.89461 15.735 6.99996 16.0002 6.99996H20.1432C20.6356 6.9997 21.1078 6.80397 21.456 6.45577C21.8042 6.10757 21.9999 5.63539 22.0002 5.14296V0.999963C22.0002 0.734747 21.8948 0.480393 21.7073 0.292856C21.5198 0.10532 21.2654 -3.68409e-05 21.0002 -3.68409e-05C20.735 -3.68409e-05 20.4806 0.10532 20.2931 0.292856C20.1056 0.480393 20.0002 0.734747 20.0002 0.999963V3.07796C18.3474 1.58942 16.3128 0.590373 14.1243 0.192712C11.9358 -0.204949 9.67983 0.0144751 7.60899 0.826411C5.53815 1.63835 3.73422 3.01073 2.39921 4.78989C1.06421 6.56904 0.250844 8.68471 0.0502025 10.9C0.0372859 11.0392 0.0535183 11.1796 0.0978654 11.3123C0.142213 11.4449 0.213702 11.5669 0.307779 11.6703C0.401856 11.7738 0.516457 11.8566 0.644281 11.9133C0.772104 11.9701 0.910348 11.9996 1.0502 12C1.29479 12.0031 1.53174 11.9148 1.71466 11.7524C1.89759 11.59 2.01332 11.3652 2.0392 11.122C2.26182 8.63271 3.40718 6.31667 5.25028 4.6288C7.09339 2.94094 9.50102 2.00326 12.0002 1.99996Z" fill="#374957"/>
<path d="M22.951 12.0002C22.7064 11.9971 22.4695 12.0854 22.2865 12.2478C22.1036 12.4102 21.9879 12.635 21.962 12.8782C21.7967 14.7815 21.0889 16.5974 19.9227 18.1105C18.7564 19.6235 17.1806 20.7704 15.3821 21.4148C13.5837 22.0593 11.6382 22.1743 9.77635 21.7464C7.91451 21.3184 6.21449 20.3653 4.878 19.0002H8C8.26522 19.0002 8.51957 18.8949 8.70711 18.7074C8.89464 18.5198 9 18.2655 9 18.0002C9 17.735 8.89464 17.4807 8.70711 17.2931C8.51957 17.1056 8.26522 17.0002 8 17.0002H3.857C3.6131 17.0001 3.37156 17.0481 3.1462 17.1413C2.92084 17.2346 2.71607 17.3714 2.54361 17.5439C2.37115 17.7163 2.23436 17.9211 2.14109 18.1464C2.04781 18.3718 1.99987 18.6133 2 18.8572V23.0003C2 23.2655 2.10536 23.5198 2.29289 23.7074C2.48043 23.8949 2.73478 24.0003 3 24.0003C3.26522 24.0003 3.51957 23.8949 3.70711 23.7074C3.89464 23.5198 4 23.2655 4 23.0003V20.9223C5.65283 22.4108 7.68741 23.4099 9.8759 23.8075C12.0644 24.2052 14.3204 23.9858 16.3912 23.1738C18.4621 22.3619 20.266 20.9895 21.601 19.2103C22.936 17.4312 23.7494 15.3155 23.95 13.1002C23.9629 12.961 23.9467 12.8206 23.9023 12.6879C23.858 12.5553 23.7865 12.4333 23.6924 12.3298C23.5983 12.2264 23.4837 12.1436 23.3559 12.0869C23.2281 12.0301 23.0899 12.0006 22.95 12.0002H22.951Z" fill="#374957"/>
</g>
<defs>
<clipPath id="clip0_821_249447">
<rect width="24" height="24" fill="white"/>
</clipPath>
</defs>
</svg>
