<svg width="24" height="24" viewBox="0 0 24 24" fill="none" xmlns="http://www.w3.org/2000/svg">
<g clip-path="url(#clip0_820_249429)">
<path d="M13 20.0001C14.3256 19.9985 15.5964 19.4712 16.5338 18.5339C17.4711 17.5965 17.9984 16.3257 18 15.0001V6.2431C18.0016 5.71746 17.8988 5.19674 17.6976 4.71112C17.4964 4.2255 17.2008 3.78464 16.828 3.4141L14.586 1.1721C14.2155 0.799275 13.7746 0.503704 13.289 0.302521C12.8034 0.101339 12.2826 -0.00145403 11.757 0.000101313H7C5.67441 0.00168917 4.40356 0.528983 3.46622 1.46632C2.52888 2.40366 2.00159 3.67451 2 5.0001V15.0001C2.00159 16.3257 2.52888 17.5965 3.46622 18.5339C4.40356 19.4712 5.67441 19.9985 7 20.0001H13ZM4 15.0001V5.0001C4 4.20445 4.31607 3.44139 4.87868 2.87878C5.44129 2.31617 6.20435 2.0001 7 2.0001C7 2.0001 11.919 2.0141 12 2.0241V4.0001C12 4.53053 12.2107 5.03924 12.5858 5.41431C12.9609 5.78939 13.4696 6.0001 14 6.0001H15.976C15.986 6.0811 16 15.0001 16 15.0001C16 15.7958 15.6839 16.5588 15.1213 17.1214C14.5587 17.684 13.7956 18.0001 13 18.0001H7C6.20435 18.0001 5.44129 17.684 4.87868 17.1214C4.31607 16.5588 4 15.7958 4 15.0001ZM22 8.0001V19.0001C21.9984 20.3257 21.4711 21.5965 20.5338 22.5339C19.5964 23.4712 18.3256 23.9985 17 24.0001H8C7.73478 24.0001 7.48043 23.8947 7.29289 23.7072C7.10536 23.5197 7 23.2653 7 23.0001C7 22.7349 7.10536 22.4805 7.29289 22.293C7.48043 22.1055 7.73478 22.0001 8 22.0001H17C17.7956 22.0001 18.5587 21.684 19.1213 21.1214C19.6839 20.5588 20 19.7957 20 19.0001V8.0001C20 7.73488 20.1054 7.48053 20.2929 7.29299C20.4804 7.10546 20.7348 7.0001 21 7.0001C21.2652 7.0001 21.5196 7.10546 21.7071 7.29299C21.8946 7.48053 22 7.73488 22 8.0001Z" fill="#374957"/>
</g>
<defs>
<clipPath id="clip0_820_249429">
<rect width="24" height="24" fill="white"/>
</clipPath>
</defs>
</svg>
