<svg width="18" height="18" viewBox="0 0 18 18" fill="none" xmlns="http://www.w3.org/2000/svg">
<g clip-path="url(#clip0_836_249160)">
<path d="M0.75 3.56275H2.802C2.96298 4.15505 3.31438 4.67792 3.80199 5.0507C4.28961 5.42347 4.88634 5.62544 5.50012 5.62544C6.11391 5.62544 6.71064 5.42347 7.19826 5.0507C7.68587 4.67792 8.03727 4.15505 8.19825 3.56275H17.25C17.4489 3.56275 17.6397 3.48373 17.7803 3.34308C17.921 3.20243 18 3.01166 18 2.81275C18 2.61384 17.921 2.42307 17.7803 2.28242C17.6397 2.14177 17.4489 2.06275 17.25 2.06275H8.19825C8.03727 1.47045 7.68587 0.947577 7.19826 0.574799C6.71064 0.202022 6.11391 5.34058e-05 5.50012 5.34058e-05C4.88634 5.34058e-05 4.28961 0.202022 3.80199 0.574799C3.31438 0.947577 2.96298 1.47045 2.802 2.06275H0.75C0.551088 2.06275 0.360322 2.14177 0.21967 2.28242C0.0790176 2.42307 0 2.61384 0 2.81275C0 3.01166 0.0790176 3.20243 0.21967 3.34308C0.360322 3.48373 0.551088 3.56275 0.75 3.56275ZM5.49975 1.50025C5.75934 1.50025 6.0131 1.57722 6.22894 1.72144C6.44478 1.86566 6.613 2.07065 6.71234 2.31048C6.81168 2.5503 6.83767 2.8142 6.78703 3.0688C6.73639 3.3234 6.61138 3.55727 6.42783 3.74083C6.24427 3.92438 6.01041 4.04939 5.75581 4.10003C5.50121 4.15067 5.23731 4.12468 4.99748 4.02534C4.75765 3.926 4.55267 3.75777 4.40845 3.54193C4.26423 3.32609 4.18725 3.07234 4.18725 2.81275C4.18765 2.46477 4.32606 2.13116 4.57211 1.88511C4.81817 1.63905 5.15178 1.50064 5.49975 1.50025Z" fill="#374957"/>
<path d="M17.25 8.24933H15.198C15.0373 7.6569 14.686 7.13384 14.1985 6.76091C13.7109 6.38798 13.1141 6.18591 12.5002 6.18591C11.8864 6.18591 11.2896 6.38798 10.802 6.76091C10.3145 7.13384 9.96321 7.6569 9.8025 8.24933H0.75C0.551088 8.24933 0.360322 8.32835 0.21967 8.469C0.0790176 8.60966 0 8.80042 0 8.99933C0 9.19825 0.0790176 9.38901 0.21967 9.52966C0.360322 9.67031 0.551088 9.74933 0.75 9.74933H9.8025C9.96321 10.3418 10.3145 10.8648 10.802 11.2378C11.2896 11.6107 11.8864 11.8128 12.5002 11.8128C13.1141 11.8128 13.7109 11.6107 14.1985 11.2378C14.686 10.8648 15.0373 10.3418 15.198 9.74933H17.25C17.4489 9.74933 17.6397 9.67031 17.7803 9.52966C17.921 9.38901 18 9.19825 18 8.99933C18 8.80042 17.921 8.60966 17.7803 8.469C17.6397 8.32835 17.4489 8.24933 17.25 8.24933ZM12.5002 10.3118C12.2407 10.3118 11.9869 10.2349 11.7711 10.0906C11.5552 9.94642 11.387 9.74143 11.2877 9.5016C11.1883 9.26178 11.1623 8.99788 11.213 8.74328C11.2636 8.48868 11.3886 8.25481 11.5722 8.07126C11.7557 7.8877 11.9896 7.7627 12.2442 7.71206C12.4988 7.66141 12.7627 7.6874 13.0025 7.78674C13.2424 7.88608 13.4473 8.05431 13.5916 8.27015C13.7358 8.48599 13.8127 8.73975 13.8127 8.99933C13.8124 9.34731 13.6739 9.68092 13.4279 9.92697C13.1818 10.173 12.8482 10.3114 12.5002 10.3118Z" fill="#374957"/>
<path d="M17.25 14.4377H8.19825C8.03727 13.8454 7.68587 13.3226 7.19826 12.9498C6.71064 12.577 6.11391 12.375 5.50012 12.375C4.88634 12.375 4.28961 12.577 3.80199 12.9498C3.31438 13.3226 2.96298 13.8454 2.802 14.4377H0.75C0.551088 14.4377 0.360322 14.5167 0.21967 14.6574C0.0790176 14.7981 0 14.9888 0 15.1877C0 15.3866 0.0790176 15.5774 0.21967 15.7181C0.360322 15.8587 0.551088 15.9377 0.75 15.9377H2.802C2.96298 16.53 3.31438 17.0529 3.80199 17.4257C4.28961 17.7984 4.88634 18.0004 5.50012 18.0004C6.11391 18.0004 6.71064 17.7984 7.19826 17.4257C7.68587 17.0529 8.03727 16.53 8.19825 15.9377H17.25C17.4489 15.9377 17.6397 15.8587 17.7803 15.7181C17.921 15.5774 18 15.3866 18 15.1877C18 14.9888 17.921 14.7981 17.7803 14.6574C17.6397 14.5167 17.4489 14.4377 17.25 14.4377ZM5.49975 16.5002C5.24016 16.5002 4.9864 16.4232 4.77056 16.279C4.55472 16.1348 4.3865 15.9298 4.28716 15.69C4.18782 15.4502 4.16183 15.1863 4.21247 14.9317C4.26311 14.6771 4.38812 14.4432 4.57167 14.2597C4.75523 14.0761 4.98909 13.9511 5.24369 13.9005C5.49829 13.8498 5.76219 13.8758 6.00202 13.9751C6.24185 14.0745 6.44683 14.2427 6.59105 14.4585C6.73527 14.6744 6.81225 14.9281 6.81225 15.1877C6.81166 15.5356 6.67318 15.8691 6.42717 16.1151C6.18116 16.3612 5.84766 16.4996 5.49975 16.5002Z" fill="#374957"/>
</g>
<defs>
<clipPath id="clip0_836_249160">
<rect width="18" height="18" fill="white"/>
</clipPath>
</defs>
</svg>
