<svg width="20" height="20" viewBox="0 0 20 20" fill="none" xmlns="http://www.w3.org/2000/svg">
<path d="M3.67187 12.378C3.52141 12.2288 3.40198 12.0513 3.32049 11.8556C3.23899 11.66 3.19703 11.4502 3.19703 11.2383C3.19703 11.0264 3.23899 10.8165 3.32049 10.6209C3.40198 10.4253 3.52141 10.2478 3.67187 10.0985L11.0401 2.74631C11.1906 2.59708 11.31 2.41953 11.3915 2.22392C11.473 2.0283 11.515 1.81848 11.515 1.60656C11.515 1.39464 11.473 1.18482 11.3915 0.989203C11.31 0.793584 11.1906 0.616038 11.0401 0.466805C10.7394 0.167819 10.3325 0 9.90841 0C9.48432 0 9.07745 0.167819 8.77668 0.466805L1.40841 7.83507C0.506561 8.73805 0 9.96208 0 11.2383C0 12.5145 0.506561 13.7385 1.40841 14.6415L8.77668 22.0098C9.07569 22.3063 9.47925 22.4735 9.90038 22.4753C10.1117 22.4765 10.3211 22.436 10.5167 22.3561C10.7122 22.2763 10.8901 22.1585 11.0401 22.0098C11.1906 21.8605 11.31 21.683 11.3915 21.4874C11.473 21.2917 11.515 21.0819 11.515 20.87C11.515 20.6581 11.473 20.4483 11.3915 20.2527C11.31 20.057 11.1906 19.8795 11.0401 19.7303L3.67187 12.378Z" fill="#374957"/>
<path d="M27.7657 7.83507L20.3975 0.466805C20.0967 0.167819 19.6898 0 19.2657 0C18.8417 0 18.4348 0.167819 18.134 0.466805C17.9836 0.616038 17.8641 0.793584 17.7826 0.989203C17.7011 1.18482 17.6592 1.39464 17.6592 1.60656C17.6592 1.81848 17.7011 2.0283 17.7826 2.22392C17.8641 2.41953 17.9836 2.59708 18.134 2.74631L25.5183 10.0985C25.6688 10.2478 25.7882 10.4253 25.8697 10.6209C25.9512 10.8165 25.9932 11.0264 25.9932 11.2383C25.9932 11.4502 25.9512 11.66 25.8697 11.8556C25.7882 12.0513 25.6688 12.2288 25.5183 12.378L18.134 19.7303C17.8317 20.0304 17.6611 20.4383 17.6596 20.8643C17.6581 21.2903 17.8258 21.6995 18.126 22.0017C18.4261 22.304 18.8341 22.4747 19.2601 22.4762C19.6861 22.4777 20.0952 22.3099 20.3975 22.0098L27.7657 14.6415C28.6676 13.7385 29.1742 12.5145 29.1742 11.2383C29.1742 9.96208 28.6676 8.73805 27.7657 7.83507Z" fill="#374957"/>
</svg>
