<svg width="25" height="25" viewBox="0 0 25 25" fill="none" xmlns="http://www.w3.org/2000/svg">
<path d="M7.85746 24.6528C6.94471 24.4125 6.07071 23.7353 5.59021 22.8995C5.24446 22.2943 5.06671 21.4298 5.15321 20.7428C5.25421 19.8925 5.54221 19.321 6.19071 18.6725C6.65171 18.2065 7.05046 17.9615 7.65571 17.755L7.96796 17.6493L7.98246 16.8135L7.99196 15.9778L7.75671 15.9153C6.85371 15.6848 5.94096 14.9305 5.51346 14.0613C5.22996 13.485 5.14346 13.12 5.14346 12.5003C5.13871 11.8855 5.22521 11.5253 5.51821 10.9345C5.94571 10.065 6.84871 9.31576 7.75646 9.08526L7.99171 9.02276L7.98221 8.18701L7.96771 7.35126L7.70346 7.26951C7.13196 7.09176 6.62746 6.78426 6.17596 6.34251C5.18646 5.36751 4.87896 4.05126 5.33046 2.71126C5.70996 1.56801 6.70896 0.645756 7.88571 0.343256C8.38046 0.218256 9.14421 0.218257 9.65346 0.348007C11.9207 0.919757 13.0927 3.47501 12.0167 5.49726C11.5797 6.31376 10.8062 6.95276 9.88896 7.24576L9.55271 7.35151V8.17776V9.00401L9.88896 9.10976C10.3645 9.25876 10.893 9.55151 11.1907 9.82551L11.45 10.061L11.7477 9.88801C12.5017 9.46051 12.819 9.24926 12.7997 9.18201C12.6747 8.68251 12.6365 8.21651 12.6892 7.76976C12.8332 6.46326 13.525 5.47376 14.6875 4.90701C15.2447 4.63326 15.6577 4.55626 16.3927 4.59001C17.0555 4.61876 17.3775 4.69576 17.8912 4.95976C18.8422 5.44001 19.5147 6.28551 19.7837 7.33751C19.9087 7.80826 19.899 8.61051 19.7692 9.09551C19.2222 11.1505 17.1182 12.289 15.1537 11.5925C14.7022 11.434 14.342 11.2228 13.924 10.8818C13.7557 10.7425 13.607 10.6273 13.5925 10.6273C13.5685 10.6273 12.262 11.3863 12.2282 11.4198C12.2187 11.4293 12.257 11.5975 12.31 11.7895C12.4397 12.2505 12.4397 12.755 12.3147 13.216C12.257 13.408 12.2235 13.5763 12.2282 13.581C12.2907 13.6435 13.5492 14.3735 13.5925 14.3735C13.6212 14.3735 13.6932 14.3158 13.7605 14.2485C13.9335 14.0613 14.4185 13.725 14.75 13.5618C15.4512 13.211 16.3975 13.1055 17.142 13.288C18.3907 13.5908 19.4282 14.6233 19.7695 15.9058C19.8945 16.3765 19.904 17.1883 19.7935 17.6495C19.5917 18.4805 19.0297 19.3068 18.338 19.787C18.0545 19.9888 17.4975 20.2385 17.1322 20.3298C16.6327 20.4595 15.8257 20.4595 15.3212 20.3298C13.909 19.9695 12.8475 18.7398 12.7082 17.3038C12.665 16.881 12.713 16.1845 12.7995 15.9205C12.8667 15.714 12.9002 15.7475 12.0645 15.2818L11.4497 14.9408L11.1905 15.1763C10.8927 15.45 10.3642 15.743 9.88871 15.892L9.55246 15.9978V16.824V17.6503L9.88871 17.756C12.0117 18.438 13.0157 20.7438 12.0455 22.7228C11.5845 23.6643 10.6812 24.3943 9.65346 24.6538C9.14946 24.7825 8.34746 24.7825 7.85746 24.6528ZM9.43771 23.1158C10.0045 22.9235 10.3935 22.5778 10.6722 22.0158C10.8452 21.665 10.85 21.641 10.85 21.1273C10.85 20.6135 10.8452 20.5798 10.677 20.2338C10.2782 19.4123 9.57696 18.9993 8.64521 19.0425C8.27046 19.057 8.15996 19.0858 7.87196 19.225C7.03621 19.6285 6.57021 20.5028 6.69996 21.4345C6.81046 22.2128 7.32921 22.8418 8.08821 23.1158C8.45296 23.2453 9.04871 23.2453 9.43771 23.1158ZM16.6475 18.884C17.738 18.6535 18.5015 17.5535 18.319 16.4873C18.2422 16.0405 18.074 15.709 17.7617 15.3825C16.6905 14.2585 14.851 14.614 14.2745 16.055C14.188 16.2663 14.1687 16.4153 14.164 16.8235C14.164 17.2943 14.1735 17.3518 14.3177 17.6545C14.51 18.0628 14.875 18.447 15.2592 18.6535C15.754 18.9175 16.1672 18.9848 16.6475 18.884ZM9.20246 14.561C10.1872 14.3545 10.874 13.5043 10.874 12.5005C10.874 10.6465 8.66446 9.70501 7.32421 10.9875C6.58921 11.6888 6.45971 12.8465 7.02646 13.6678C7.52596 14.3975 8.35696 14.7388 9.20246 14.561ZM16.7485 10.2188C17.1472 10.113 17.3872 9.97851 17.7045 9.67601C18.1897 9.21476 18.4347 8.50401 18.324 7.87951C18.0742 6.46726 16.6427 5.68926 15.37 6.27051C15.0002 6.44351 14.7792 6.61626 14.539 6.94301C13.9 7.81226 14.0537 9.10926 14.875 9.78176C15.389 10.2043 16.1385 10.3773 16.7485 10.2188ZM9.41846 5.88126C9.98996 5.70351 10.4032 5.33376 10.677 4.76676C10.8452 4.42101 10.85 4.38726 10.85 3.87826C10.85 3.38351 10.8405 3.33076 10.6962 3.02326C10.4127 2.43251 9.88446 1.98576 9.27446 1.83201C9.14471 1.80326 8.86621 1.78401 8.62596 1.79826C8.27521 1.81751 8.15521 1.84626 7.87171 1.98076C7.04071 2.37951 6.55571 3.29201 6.69971 4.19026C6.82471 4.99726 7.38671 5.65526 8.15996 5.90026C8.45296 5.99176 9.08696 5.98226 9.41846 5.88126Z" fill="#374957"/>
</svg>
