<svg width="24" height="24" viewBox="0 0 24 24" fill="none" xmlns="http://www.w3.org/2000/svg">
<g clip-path="url(#clip0_832_248769)">
<path d="M13.7849 0.0217292L2.24512 7.21244e-07C1.02002 -0.000975841 0.0253913 0.989869 0.0217292 2.21509L7.21244e-07 13.7549C-0.000975841 14.98 0.989869 15.9746 2.21509 15.9783L13.7549 16C14.98 16.001 15.9746 15.01 15.9783 13.7849L16 2.24512C16.001 1.02002 15.01 0.0253913 13.7849 0.0217292ZM7.54273 15.1006L2.21668 15.0906C1.48169 15.0884 0.887086 14.4916 0.887696 13.7566L0.897706 8.43042L7.5553 8.44299L7.54273 15.1006ZM7.55701 7.5553L0.899415 7.54273L0.909425 2.21668C0.911622 1.48169 1.50842 0.887086 2.24341 0.887696L7.56946 0.897706L7.55701 7.5553ZM15.0906 13.7833C15.0884 14.5183 14.4916 15.1129 13.7566 15.1123L8.43042 15.1023L8.44299 8.4447L15.1006 8.45728L15.0906 13.7833ZM15.1023 7.56946L8.4447 7.55701L8.45728 0.899415L13.7833 0.909425C14.5183 0.911622 15.1129 1.50842 15.1123 2.24341L15.1023 7.56946Z" fill="#374957"/>
<path d="M2.90198 4.66162L3.78967 4.66333L3.78796 5.5509C3.7876 5.79602 3.98584 5.99512 4.23096 5.99561C4.47608 5.99609 4.67517 5.79773 4.67566 5.55261L4.67737 4.66492L5.56506 4.66663C5.81018 4.66712 6.00928 4.46875 6.00977 4.22363C6.01025 3.97852 5.81189 3.77942 5.56677 3.77893L4.67908 3.77722L4.68067 2.88965C4.68115 2.64453 4.48279 2.44544 4.23767 2.44495C3.99255 2.44446 3.79346 2.64282 3.79297 2.88794L3.79138 3.77564L2.90369 3.77393C2.65857 3.77344 2.45947 3.9718 2.45899 4.21692C2.4585 4.46204 2.65686 4.66113 2.90198 4.66162Z" fill="#374957"/>
<path d="M13.1125 3.7931L10.4496 3.78809C10.2045 3.78773 10.0054 3.98597 10.0049 4.23109C10.0044 4.4762 10.2028 4.6753 10.4479 4.67579L13.1108 4.68079C13.356 4.68128 13.5551 4.48292 13.5555 4.2378C13.556 3.99268 13.3577 3.79359 13.1125 3.7931Z" fill="#374957"/>
<path d="M2.96236 13.0185C3.13521 13.192 3.41609 13.1927 3.5898 13.0198C3.5898 13.0198 3.58992 13.0197 3.59004 13.0196L4.21883 12.3932L4.84529 13.022C5.0212 13.1927 5.3022 13.1883 5.47286 13.0122C5.63936 12.8406 5.63985 12.5679 5.47408 12.3955L4.84761 11.7667L5.4764 11.1403C5.64705 10.9643 5.64266 10.6833 5.46663 10.5127C5.295 10.3462 5.02229 10.3457 4.85005 10.5115L4.22115 11.138L3.59468 10.5092C3.41878 10.3385 3.13777 10.3429 2.96712 10.5189C2.80074 10.6906 2.80013 10.9633 2.96602 11.1356L3.59236 11.7644L2.96358 12.3909C2.78999 12.5639 2.78938 12.8448 2.96236 13.0185Z" fill="#374957"/>
<path d="M10.4313 13.1088L13.0944 13.1138C13.3395 13.1143 13.5386 12.9159 13.5391 12.6708C13.5394 12.4257 13.3411 12.2266 13.0959 12.2261L10.433 12.2211C10.1879 12.2206 9.98877 12.419 9.98828 12.6641C9.98779 12.9092 10.1862 13.1083 10.4313 13.1088Z" fill="#374957"/>
<path d="M10.4352 11.3334L13.0983 11.3384C13.3434 11.3389 13.5425 11.1405 13.543 10.8954C13.5435 10.6503 13.3451 10.4512 13.1 10.4507L10.4369 10.4457C10.1918 10.4453 9.99268 10.6436 9.99219 10.8887C9.99182 11.1338 10.1901 11.3329 10.4352 11.3334Z" fill="#374957"/>
</g>
<defs>
<clipPath id="clip0_832_248769">
<rect width="24" height="24" fill="white"/>
</clipPath>
</defs>
</svg>
