<svg width="24" height="24" viewBox="0 0 24 24" fill="none" xmlns="http://www.w3.org/2000/svg">
<g clip-path="url(#clip0_829_248806)">
<path d="M16.582 0.578809L13.291 3.86981C13.1934 3.96153 13.1151 4.07195 13.0609 4.19451C13.0068 4.31707 12.9778 4.44926 12.9757 4.58324C12.9736 4.71722 12.9985 4.85025 13.0488 4.97443C13.0992 5.09861 13.1739 5.21141 13.2687 5.30613C13.3635 5.40084 13.4764 5.47554 13.6006 5.52579C13.7248 5.57604 13.8578 5.60081 13.9918 5.59864C14.1258 5.59646 14.258 5.56738 14.3805 5.51313C14.503 5.45887 14.6134 5.38055 14.705 5.2828L16.999 2.99281C17.0019 4.23767 16.7556 5.47052 16.2747 6.61877C15.7939 7.76702 15.0881 8.80744 14.199 9.6788C14.1099 9.77556 14.0412 9.88923 13.9968 10.0131C13.9525 10.1369 13.9335 10.2684 13.941 10.3997C13.9484 10.5311 13.9822 10.6595 14.0403 10.7776C14.0983 10.8956 14.1795 11.0008 14.279 11.0868L14.299 11.0998C14.4946 11.2679 14.7476 11.354 15.0051 11.34C15.2626 11.326 15.5048 11.2131 15.681 11.0248C16.7427 9.975 17.5833 8.72313 18.1532 7.3431C18.7231 5.96306 19.0107 4.48283 18.999 2.98981L21.292 5.2828C21.3819 5.38729 21.4924 5.47207 21.6166 5.53182C21.7408 5.59158 21.876 5.62502 22.0137 5.63004C22.1514 5.63507 22.2887 5.61157 22.4169 5.56102C22.5452 5.51048 22.6615 5.43397 22.7588 5.33631C22.856 5.23865 22.932 5.12194 22.982 4.99351C23.032 4.86509 23.055 4.72771 23.0493 4.59C23.0437 4.4523 23.0097 4.31724 22.9494 4.1933C22.8892 4.06937 22.8039 3.95923 22.699 3.86981L19.408 0.578809C19.0331 0.204478 18.5249 -0.00576407 17.995 -0.00576405C17.4652 -0.00576403 16.957 0.204479 16.582 0.578809V0.578809Z" fill="#374957"/>
<path d="M6.99935 2.99297L9.28935 5.28297C9.31567 5.30246 9.34304 5.32048 9.37135 5.33696C9.5681 5.49834 9.81934 5.57793 10.0731 5.55928C10.3269 5.54064 10.5638 5.42518 10.7349 5.23679C10.9059 5.0484 10.998 4.80148 10.9922 4.54708C10.9863 4.29269 10.8829 4.05027 10.7033 3.86997L8.99935 2.16397L7.41435 0.57797C7.1441 0.309826 6.80294 0.124385 6.43095 0.0434319C6.05896 -0.0375209 5.67158 -0.0106206 5.31435 0.120971C5.0409 0.218125 4.7923 0.374522 4.58635 0.578971L1.29935 3.86997C1.20016 3.96126 1.12045 4.07167 1.06502 4.19455C1.00958 4.31744 0.979569 4.45026 0.976776 4.58504C0.973984 4.71982 0.998472 4.85377 1.04877 4.97885C1.09906 5.10392 1.17413 5.21754 1.26945 5.31286C1.36478 5.40818 1.47839 5.48325 1.60347 5.53355C1.72854 5.58384 1.8625 5.60833 1.99728 5.60554C2.13206 5.60275 2.26488 5.57273 2.38776 5.5173C2.51065 5.46186 2.62105 5.38216 2.71235 5.28297L5.00435 2.98997C5.01635 7.92296 7.67835 10.627 10.4783 13.079C7.93635 15.331 5.39935 17.9999 5.04535 22.5129L4.99935 22.9939C4.99935 23.2592 5.10471 23.5135 5.29224 23.701C5.47978 23.8886 5.73413 23.9939 5.99935 23.9939C6.26296 23.9888 6.51435 23.8818 6.70079 23.6954C6.88723 23.5089 6.99423 23.2576 6.99935 22.9939C6.99935 22.9219 7.03235 22.7069 7.03235 22.7069C7.32735 18.8109 9.52135 16.5749 11.9993 14.4C14.4653 16.5619 16.6993 18.7829 16.9593 22.6469L16.9804 23.0469C16.9968 23.3102 17.1171 23.5561 17.3149 23.7306C17.5126 23.9051 17.7716 23.9939 18.0348 23.9774C18.2981 23.961 18.544 23.8407 18.7185 23.6429C18.893 23.4451 18.9818 23.1862 18.9653 22.9229C18.9583 22.7669 18.9524 22.5129 18.9424 22.3879C18.5554 17.3679 15.3423 14.645 12.5333 12.217C9.69935 9.76496 7.01735 7.44896 6.99935 2.99297Z" fill="#374957"/>
</g>
<defs>
<clipPath id="clip0_829_248806">
<rect width="24" height="24" fill="white" transform="translate(0 24) rotate(-90)"/>
</clipPath>
</defs>
</svg>
