<svg width="24" height="24" viewBox="0 0 24 24" fill="none" xmlns="http://www.w3.org/2000/svg">
<g clip-path="url(#clip0_828_248772)">
<path d="M22.2004 9.739H15.1104C14.5434 9.671 14.1114 9.172 14.1114 8.584V1.144C14.1124 0.51 13.5974 0 12.9684 0H10.4874C9.85239 0 9.34239 0.515 9.34239 1.145V8.663C9.31139 9.23 8.84339 9.687 8.28139 9.739H6.42439C5.87839 9.672 5.45639 9.214 5.42039 8.662V1.145C5.42039 0.51 4.90539 0 4.27639 0H1.79439C1.16039 0 0.650391 0.515 0.650391 1.145V10.884V22.855C0.650391 23.49 1.16539 24 1.79439 24H4.27539H10.4864H12.9674H22.2054C22.8404 24 23.3494 23.485 23.3494 22.855V10.884C23.3454 10.249 22.8354 9.739 22.2004 9.739ZM18.9344 17.949C18.9344 18.584 18.4194 19.094 17.7904 19.094H15.3094C14.6744 19.094 14.1654 18.579 14.1654 17.949V15.608C14.1654 14.973 14.6804 14.463 15.3094 14.463H17.7904C18.4254 14.463 18.9344 14.978 18.9344 15.608V17.949Z" fill="#374957"/>
</g>
<defs>
<clipPath id="clip0_828_248772">
<rect width="24" height="24" fill="white"/>
</clipPath>
</defs>
</svg>
